# This file uses meters as units for non-parametric coordinates.

mtllib 3D_Road_Intersection.mtl
g default
v -187.500000 0.000000 -250.000000
v -250.000000 0.000000 -187.500076
v -250.000000 10.000000 -187.500076
v -187.500000 10.000000 -250.000000
v -250.000000 10.000000 -250.000000
v -196.651978 0.000000 -196.652069
v -218.746826 0.000000 -187.500076
v -187.500000 0.000000 -218.746933
v -187.500000 10.000000 -218.746933
v -218.746826 10.000000 -187.500076
v -196.651978 10.000000 -196.652069
v 187.500000 0.000000 -250.000000
v 250.000000 0.000000 -187.500076
v 250.000000 10.000000 -187.500076
v 187.500000 10.000000 -250.000000
v 250.000000 10.000000 -250.000000
v 196.651978 -0.000000 -196.652069
v 218.746887 0.000000 -187.500076
v 187.500000 -0.000000 -218.746933
v 187.500000 10.000000 -218.746933
v 218.746887 10.000000 -187.500076
v 196.651978 10.000000 -196.652069
v -187.500000 0.000000 250.000000
v -250.000000 0.000000 187.500076
v -250.000000 10.000000 187.500076
v -187.500000 10.000000 250.000000
v -250.000000 10.000000 250.000000
v -196.651978 -0.000000 196.652069
v -218.746826 0.000000 187.500076
v -187.500000 -0.000000 218.746933
v -187.500000 10.000000 218.746933
v -218.746826 10.000000 187.500076
v -196.651978 10.000000 196.652069
v 187.500000 0.000000 250.000000
v 250.000000 0.000000 187.500076
v 250.000000 10.000000 187.500076
v 187.500000 10.000000 250.000000
v 250.000000 10.000000 250.000000
v 196.651978 -0.000000 196.652069
v 218.746887 0.000000 187.500076
v 187.500000 -0.000000 218.746933
v 187.500000 10.000000 218.746933
v 218.746887 10.000000 187.500076
v 196.651978 10.000000 196.652069
vt 0.920376 0.060973
vt 0.902997 0.060973
vt 0.902997 0.006659
vt 0.920376 0.006659
vt 0.902997 0.099372
vt 0.920376 0.099372
vt 0.883628 0.942175
vt 0.990439 0.995586
vt 0.883628 0.995586
vt 0.937028 0.888775
vt 0.899269 0.904416
vt 0.990439 0.888775
vt 0.902997 0.192086
vt 0.902997 0.137771
vt 0.920376 0.137771
vt 0.920376 0.192086
vt 0.902997 0.192086
vt 0.902997 0.137771
vt 0.920376 0.137771
vt 0.920376 0.192086
vt 0.920376 0.060973
vt 0.902997 0.060973
vt 0.902997 0.006659
vt 0.920376 0.006659
vt 0.902997 0.099372
vt 0.920376 0.099372
vt 0.883628 0.942175
vt 0.990439 0.995586
vt 0.883628 0.995586
vt 0.937028 0.888775
vt 0.990439 0.888775
vt 0.899269 0.904416
vt 0.902997 0.192086
vt 0.902997 0.137771
vt 0.920376 0.137771
vt 0.920376 0.192086
vt 0.920376 0.060973
vt 0.902997 0.060973
vt 0.902997 0.006659
vt 0.920376 0.006659
vt 0.902997 0.099372
vt 0.920376 0.099372
vt 0.883628 0.942175
vt 0.990439 0.995586
vt 0.883628 0.995586
vt 0.937028 0.888775
vt 0.990439 0.888775
vt 0.899269 0.904416
vt 0.902997 0.192086
vt 0.920376 0.192086
vt 0.920376 0.137771
vt 0.902997 0.137771
vt 0.920376 0.060973
vt 0.920376 0.006659
vt 0.902997 0.006659
vt 0.902997 0.060973
vt 0.920376 0.099372
vt 0.902997 0.099372
vt 0.883628 0.942175
vt 0.883628 0.995586
vt 0.990439 0.995586
vt 0.937028 0.888775
vt 0.990439 0.888775
vt 0.899269 0.904416
vn 0.000000 0.000000 1.000000
vn 0.169083 0.000000 0.985602
vn 0.169083 0.000000 0.985602
vn 0.000000 0.000000 1.000000
vn 0.985602 0.000000 0.169083
vn 0.985602 0.000000 0.169083
vn 1.000000 0.000000 0.000000
vn 1.000000 0.000000 0.000000
vn 0.382684 0.000000 0.923879
vn 0.382684 0.000000 0.923879
vn 0.923880 0.000000 0.382683
vn 0.923880 0.000000 0.382683
vn 0.000000 1.000000 0.000000
vn 0.000000 1.000000 0.000000
vn 0.000000 1.000000 0.000000
vn 0.000000 1.000000 0.000000
vn 0.000000 1.000000 0.000000
vn 0.000000 1.000000 0.000000
vn -0.000000 0.000000 1.000000
vn -0.000000 0.000000 1.000000
vn -0.169083 0.000000 0.985602
vn -0.169083 0.000000 0.985602
vn -0.985602 0.000000 0.169083
vn -1.000000 0.000000 0.000000
vn -1.000000 0.000000 0.000000
vn -0.985602 0.000000 0.169083
vn -0.382683 0.000000 0.923880
vn -0.382683 0.000000 0.923880
vn -0.923880 0.000000 0.382683
vn -0.923880 0.000000 0.382683
vn 0.000000 1.000000 0.000000
vn 0.000000 1.000000 0.000000
vn 0.000000 1.000000 0.000000
vn 0.000000 1.000000 0.000000
vn 0.000000 1.000000 0.000000
vn 0.000000 1.000000 0.000000
vn 0.000000 0.000000 -1.000000
vn 0.000000 0.000000 -1.000000
vn 0.169083 0.000000 -0.985602
vn 0.169083 0.000000 -0.985602
vn 0.985602 0.000000 -0.169083
vn 1.000000 0.000000 0.000000
vn 1.000000 0.000000 0.000000
vn 0.985602 0.000000 -0.169083
vn 0.382684 0.000000 -0.923879
vn 0.382684 0.000000 -0.923879
vn 0.923880 0.000000 -0.382683
vn 0.923880 0.000000 -0.382683
vn 0.000000 1.000000 0.000000
vn 0.000000 1.000000 0.000000
vn 0.000000 1.000000 0.000000
vn 0.000000 1.000000 0.000000
vn 0.000000 1.000000 0.000000
vn 0.000000 1.000000 0.000000
vn 0.000000 0.000000 -1.000000
vn -0.169083 0.000000 -0.985602
vn -0.169083 0.000000 -0.985602
vn 0.000000 0.000000 -1.000000
vn -0.985602 0.000000 -0.169083
vn -0.985602 0.000000 -0.169083
vn -1.000000 0.000000 0.000000
vn -1.000000 0.000000 0.000000
vn -0.382683 0.000000 -0.923880
vn -0.382683 0.000000 -0.923880
vn -0.923880 0.000000 -0.382683
vn -0.923880 0.000000 -0.382683
vn 0.000000 1.000000 0.000000
vn 0.000000 1.000000 0.000000
vn 0.000000 1.000000 0.000000
vn 0.000000 1.000000 0.000000
vn 0.000000 1.000000 0.000000
vn 0.000000 1.000000 0.000000
s 1
g RoadTile_Intersection_Pavement RoadTile_Intersection
usemtl initialShadingGroup
f 2/13/1 7/14/2 10/15/3 3/16/4
s 2
f 9/1/5 8/2/6 1/3/7 4/4/8
s 1
f 7/14/2 6/5/9 11/6/10 10/15/3
s 2
f 6/5/11 8/2/6 9/1/5 11/6/12
s 3
f 10/7/13 5/8/14 3/9/15
f 9/10/16 4/12/17 5/8/14
f 9/10/16 5/8/14 10/7/13 11/11/18
s 4
f 13/17/19 14/20/20 21/19/21 18/18/22
s 5
f 20/21/23 15/24/24 12/23/25 19/22/26
s 4
f 18/18/22 21/19/21 22/26/27 17/25/28
s 5
f 17/25/29 22/26/30 20/21/23 19/22/26
s 6
f 21/27/31 14/29/32 16/28/33
f 20/30/34 16/28/33 15/31/35
f 20/30/34 22/32/36 21/27/31 16/28/33
s 7
f 24/33/37 25/36/38 32/35/39 29/34/40
s 8
f 31/37/41 26/40/42 23/39/43 30/38/44
s 7
f 29/34/40 32/35/39 33/42/45 28/41/46
s 8
f 28/41/47 33/42/48 31/37/41 30/38/44
s 9
f 32/43/49 25/45/50 27/44/51
f 31/46/52 27/44/51 26/47/53
f 31/46/52 33/48/54 32/43/49 27/44/51
s 10
f 35/49/55 40/52/56 43/51/57 36/50/58
s 11
f 42/53/59 41/56/60 34/55/61 37/54/62
s 10
f 40/52/56 39/58/63 44/57/64 43/51/57
s 11
f 39/58/65 41/56/60 42/53/59 44/57/66
s 12
f 43/59/67 38/61/68 36/60/69
f 42/62/70 37/63/71 38/61/68
f 42/62/70 38/61/68 43/59/67 44/64/72
g default
v -250.000000 0.000000 250.000000
v 250.000000 0.000000 250.000000
v -250.000000 0.000000 -250.000000
v 250.000000 0.000000 -250.000000
v -125.000000 0.000000 250.000000
v -125.000000 0.000000 -250.000000
v 125.000153 0.000000 250.000000
v 125.000153 0.000000 -250.000000
v 187.500076 0.000000 250.000000
v 187.500076 0.000000 -250.000000
v -187.500000 0.000000 250.000000
v -187.500000 0.000000 -250.000000
v -250.000000 0.000000 125.000000
v -187.500000 0.000000 125.000000
v -125.000000 0.000000 125.000000
v 125.000153 0.000000 125.000000
v 187.500076 0.000000 125.000000
v 250.000000 0.000000 125.000000
v -250.000000 0.000000 -125.000137
v -187.500000 0.000000 -125.000137
v -125.000000 0.000000 -125.000137
v 125.000153 0.000000 -125.000137
v 187.500076 0.000000 -125.000137
v 250.000000 0.000000 -125.000137
v -250.000000 0.000000 187.500000
v -187.500000 0.000000 187.500000
v -125.000000 0.000000 187.500000
v 125.000153 0.000000 187.500000
v 187.500076 0.000000 187.500000
v 250.000000 0.000000 187.500000
v -250.000000 0.000000 -187.500076
v -187.500000 0.000000 -187.500076
v -125.000000 0.000000 -187.500076
v 125.000153 0.000000 -187.500076
v 187.500076 0.000000 -187.500076
v 250.000000 0.000000 -187.500076
vt 0.021355 0.021365
vt 0.875847 0.021365
vt 0.021355 0.875857
vt 0.875847 0.875857
vt 0.234978 0.021365
vt 0.234978 0.875857
vt 0.662224 0.021365
vt 0.662224 0.875857
vt 0.769035 0.021365
vt 0.769035 0.875857
vt 0.128166 0.021365
vt 0.128166 0.875857
vt 0.021355 0.234988
vt 0.128166 0.234988
vt 0.234978 0.234988
vt 0.662224 0.234988
vt 0.769035 0.234988
vt 0.875847 0.234988
vt 0.021355 0.662234
vt 0.128166 0.662234
vt 0.234978 0.662234
vt 0.662224 0.662234
vt 0.769035 0.662234
vt 0.875847 0.662234
vt 0.021355 0.128176
vt 0.128166 0.128176
vt 0.234978 0.128176
vt 0.662224 0.128176
vt 0.769035 0.128176
vt 0.875847 0.128176
vt 0.021355 0.769046
vt 0.128166 0.769046
vt 0.234978 0.769046
vt 0.662224 0.769046
vt 0.769035 0.769046
vt 0.875847 0.769046
vn 0.000000 1.000000 0.000000
vn 0.000000 1.000000 0.000000
vn 0.000000 1.000000 0.000000
vn 0.000000 1.000000 0.000000
vn 0.000000 1.000000 0.000000
vn 0.000000 1.000000 0.000000
vn 0.000000 1.000000 0.000000
vn 0.000000 1.000000 0.000000
vn 0.000000 1.000000 0.000000
vn 0.000000 1.000000 0.000000
vn 0.000000 1.000000 0.000000
vn 0.000000 1.000000 0.000000
vn 0.000000 1.000000 0.000000
vn 0.000000 1.000000 0.000000
vn 0.000000 1.000000 0.000000
vn 0.000000 1.000000 0.000000
vn 0.000000 1.000000 0.000000
vn 0.000000 1.000000 0.000000
vn 0.000000 1.000000 0.000000
vn 0.000000 1.000000 0.000000
vn 0.000000 1.000000 0.000000
vn 0.000000 1.000000 0.000000
vn 0.000000 1.000000 0.000000
vn 0.000000 1.000000 0.000000
vn 0.000000 1.000000 0.000000
vn 0.000000 1.000000 0.000000
vn 0.000000 1.000000 0.000000
vn 0.000000 1.000000 0.000000
vn 0.000000 1.000000 0.000000
vn 0.000000 1.000000 0.000000
vn 0.000000 1.000000 0.000000
vn 0.000000 1.000000 0.000000
vn 0.000000 1.000000 0.000000
vn 0.000000 1.000000 0.000000
vn 0.000000 1.000000 0.000000
vn 0.000000 1.000000 0.000000
s 1
g RoadTile_Intersection RoadTile_Intersection_Ground
usemtl initialShadingGroup
f 75/95/73 76/96/74 56/76/75 47/67/76
f 50/70/77 77/97/78 78/98/79 52/72/80
f 52/72/80 78/98/79 79/99/81 54/74/82
f 54/74/82 79/99/81 80/100/83 48/68/84
f 56/76/75 76/96/74 77/97/78 50/70/77
f 69/89/85 70/90/86 58/78/87 57/77/88
f 59/79/89 58/78/87 70/90/86 71/91/90
f 60/80/91 59/79/89 71/91/90 72/92/92
f 61/81/93 60/80/91 72/92/92 73/93/94
f 62/82/95 61/81/93 73/93/94 74/94/96
f 57/77/88 58/78/87 64/84/97 63/83/98
f 65/85/99 64/84/97 58/78/87 59/79/89
f 66/86/100 65/85/99 59/79/89 60/80/91
f 67/87/101 66/86/100 60/80/91 61/81/93
f 68/88/102 67/87/101 61/81/93 62/82/95
f 45/65/103 55/75/104 70/90/86 69/89/85
f 71/91/90 70/90/86 55/75/104 49/69/105
f 72/92/92 71/91/90 49/69/105 51/71/106
f 73/93/94 72/92/92 51/71/106 53/73/107
f 74/94/96 73/93/94 53/73/107 46/66/108
f 63/83/98 64/84/97 76/96/74 75/95/73
f 77/97/78 76/96/74 64/84/97 65/85/99
f 78/98/79 77/97/78 65/85/99 66/86/100
f 79/99/81 78/98/79 66/86/100 67/87/101
f 80/100/83 79/99/81 67/87/101 68/88/102
