# This file uses meters as units for non-parametric coordinates.

mtllib 3D_Construction_Shovel.mtl
g default
v 0.717655 41.276718 -1.108125
v -0.717654 41.276718 -1.108125
v -1.435308 41.276718 0.134888
v -0.717654 41.276718 1.377902
v 0.717654 41.276718 1.377902
v 1.435308 41.276718 0.134889
v 0.717655 61.203320 -1.108125
v -0.717654 61.203320 -1.108125
v -1.435308 61.203320 0.134888
v -0.717654 61.203320 1.377902
v 0.717654 61.203320 1.377902
v 1.435308 61.203320 0.134889
v 0.555755 61.203293 -0.827708
v -0.555755 61.203293 -0.827708
v -1.111510 61.203293 0.134888
v -0.555755 61.203293 1.097485
v 0.555755 61.203293 1.097485
v 1.111511 61.203457 0.134889
v 0.553012 188.481400 -0.829284
v -0.555755 188.481400 -0.827650
v -0.001829 188.481400 0.134895
v -1.111510 188.481400 0.134908
v -0.555755 188.481400 1.097447
v 0.553012 188.481400 1.099061
v 1.106023 188.481567 0.134889
v -1.149612 0.863308 2.449427
v 1.149612 0.863308 2.449427
v -14.556084 15.697604 0.575631
v -10.631209 15.697604 0.575630
v -1.799760 15.697604 0.575630
v 1.799760 15.697604 0.575630
v 10.631209 15.697604 0.575630
v 14.556084 15.697604 0.575631
v -14.556084 41.343021 0.575631
v -10.631209 41.343021 -0.198539
v -2.108117 41.343021 -0.198539
v 2.108117 41.343021 -0.198539
v 10.631209 41.343021 -0.198539
v 14.556084 41.343021 0.575631
v -14.556084 41.343021 -0.656075
v -10.631209 41.343021 -1.299720
v -3.005047 41.343021 -1.299720
v 3.005047 41.343021 -1.299720
v 10.631209 41.343021 -1.299720
v 14.556084 41.343021 -0.656075
v -14.556084 15.697604 -0.656075
v -10.631209 15.697604 -1.299720
v -3.005047 15.697604 -1.299720
v 3.005047 15.697604 -1.299720
v 10.631209 15.697604 -1.299720
v 14.556084 15.697604 -0.656075
v -1.149612 0.863308 1.780774
v 1.149612 0.863308 1.780774
v -14.556084 24.520538 0.575631
v -10.631209 24.520538 -0.198539
v -2.108117 24.520536 -0.905457
v 2.108117 24.520536 -0.905457
v 10.631209 24.520538 -0.198539
v 14.556084 24.520538 0.575631
v 14.556084 24.520538 -0.656075
v 10.631209 24.520538 -1.299720
v 3.005047 24.520538 -1.299720
v -3.005047 24.520538 -1.299720
v -10.631209 24.520538 -1.299720
v -14.556084 24.520538 -0.656075
v -14.556084 32.931774 -0.656075
v -10.631209 32.931774 -1.299720
v -3.005047 32.931774 -1.299720
v 3.005047 32.931774 -1.299720
v 10.631209 32.931774 -1.299720
v 14.556084 32.931774 -0.656075
v 14.556084 32.931774 0.575631
v 10.631209 32.931774 -0.198539
v 2.108117 32.931774 -0.905457
v -2.108117 32.931774 -0.905457
v -10.631209 32.931774 -0.198539
v -14.556084 32.931774 0.575631
v 2.108117 32.931774 0.847937
v -2.108117 32.931774 0.847937
v 2.108117 41.343021 1.490446
v -2.108117 41.343021 1.490446
v -13.203216 12.730746 0.950390
v -9.126946 12.730746 0.950390
v -1.669731 12.730746 0.950390
v 1.669731 12.730746 0.950390
v 9.126946 12.730746 0.950390
v 13.203216 12.730746 0.950390
v 13.203216 12.730746 -0.168706
v 9.126946 12.730746 -0.683621
v 2.633960 12.730746 -0.683621
v -2.633960 12.730746 -0.683621
v -9.126946 12.730746 -0.683622
v -13.203216 12.730746 -0.168706
vt 0.495495 0.333882
vt 0.503905 0.333881
vt 0.503905 0.450639
vt 0.495495 0.450639
vt 0.487085 0.333882
vt 0.487085 0.450639
vt 0.520726 0.333881
vt 0.529136 0.333881
vt 0.529135 0.450639
vt 0.520725 0.450639
vt 0.512316 0.333881
vt 0.512315 0.450639
vt 0.674473 0.772745
vt 0.667946 0.772745
vt 0.667798 0.027045
vt 0.674310 0.027044
vt 0.661434 0.772747
vt 0.661286 0.027047
vt 0.136265 0.402125
vt 0.136256 0.408622
vt 0.130616 0.405376
vt 0.130616 0.411878
vt 0.130616 0.398885
vt 0.124976 0.408622
vt 0.124967 0.402125
vt 0.146610 0.326826
vt 0.146610 0.335236
vt 0.144967 0.334287
vt 0.144967 0.327775
vt 0.139327 0.339441
vt 0.139327 0.337544
vt 0.139327 0.322621
vt 0.139327 0.324518
vt 0.132044 0.335236
vt 0.133687 0.334287
vt 0.132044 0.326826
vt 0.133687 0.327775
vt 0.478675 0.333881
vt 0.478675 0.450639
vt 0.654922 0.772748
vt 0.654790 0.027048
vt 0.648410 0.772749
vt 0.648278 0.027049
vt 0.641898 0.772751
vt 0.635385 0.772752
vt 0.635270 0.027051
vt 0.641766 0.027050
vt 0.246190 0.103364
vt 0.270270 0.103267
vt 0.261331 0.120599
vt 0.238500 0.120034
vt 0.314058 0.103308
vt 0.313195 0.120840
vt 0.333501 0.103319
vt 0.334249 0.120809
vt 0.376707 0.103272
vt 0.385526 0.120408
vt 0.400176 0.103428
vt 0.407986 0.119706
vt 0.237191 0.171814
vt 0.260827 0.172462
vt 0.259678 0.222090
vt 0.236022 0.221517
vt 0.311357 0.173412
vt 0.310270 0.223150
vt 0.051119 0.290613
vt 0.076278 0.290084
vt 0.076751 0.340883
vt 0.052420 0.341154
vt 0.336335 0.173212
vt 0.386404 0.171803
vt 0.387905 0.220968
vt 0.337819 0.222444
vt 0.409802 0.170944
vt 0.411336 0.220197
vt 0.230887 0.303525
vt 0.253952 0.304505
vt 0.254372 0.310781
vt 0.231972 0.310476
vt 0.302640 0.303415
vt 0.297439 0.309885
vt 0.328963 0.304048
vt 0.333855 0.310745
vt 0.377480 0.307337
vt 0.376774 0.313582
vt 0.400539 0.307394
vt 0.399144 0.314283
vt 0.210494 0.226281
vt 0.186837 0.226410
vt 0.187064 0.176982
vt 0.210232 0.177029
vt 0.141457 0.225947
vt 0.142503 0.176357
vt 0.105680 0.224975
vt 0.107359 0.175404
vt 0.060383 0.223008
vt 0.062837 0.173617
vt 0.036827 0.221689
vt 0.039697 0.172413
vt 0.210410 0.126037
vt 0.187554 0.126059
vt 0.179367 0.108514
vt 0.202993 0.108491
vt 0.143687 0.125158
vt 0.141977 0.107597
vt 0.108964 0.124218
vt 0.111623 0.106776
vt 0.065117 0.122748
vt 0.074240 0.105672
vt 0.042301 0.121490
vt 0.050651 0.104375
vt 0.315715 0.030394
vt 0.333614 0.030813
vt 0.331040 0.033531
vt 0.318278 0.033205
vt 0.405414 0.099638
vt 0.415093 0.118801
vt 0.417026 0.170696
vt 0.418551 0.219970
vt 0.240911 0.099421
vt 0.231278 0.119189
vt 0.229896 0.171625
vt 0.228751 0.221329
vt 0.186671 0.276926
vt 0.210780 0.276753
vt 0.140450 0.276523
vt 0.103866 0.275497
vt 0.057756 0.273328
vt 0.033827 0.271902
vt 0.420157 0.269210
vt 0.412950 0.269443
vt 0.389538 0.270219
vt 0.339643 0.271876
vt 0.076087 0.390045
vt 0.051095 0.389976
vt 0.308844 0.273072
vt 0.258419 0.271828
vt 0.234752 0.271210
vt 0.227472 0.271022
vt 0.086939 0.339385
vt 0.042488 0.339873
vt 0.086109 0.389307
vt 0.302889 0.292893
vt 0.329220 0.293527
vt 0.040938 0.389081
vt 0.122065 0.037178
vt 0.135315 0.037536
vn 0.500000 0.000000 -0.866025
vn -0.500000 0.000000 -0.866026
vn -0.500000 0.000000 -0.866026
vn 0.500000 0.000000 -0.866025
vn -1.000000 0.000000 -0.000000
vn -1.000000 0.000000 -0.000000
vn -0.500000 0.000000 0.866025
vn -0.500000 0.000000 0.866025
vn 0.500000 0.000000 0.866025
vn 0.500000 0.000000 0.866025
vn 1.000000 0.000000 0.000000
vn 1.000000 0.000000 0.000000
vn -0.000076 1.000000 -0.000014
vn 0.000000 1.000000 0.000000
vn -0.000051 1.000000 -0.000002
vn 0.000000 1.000000 0.000000
vn 0.000000 1.000000 -0.000000
vn -0.000076 1.000000 0.000007
vn -0.000152 1.000000 -0.000007
vn 0.000069 1.000000 -0.000043
vn 0.000041 1.000000 0.000059
vn 0.000041 1.000000 0.000059
vn 0.000069 1.000000 -0.000043
vn 0.000082 1.000000 -0.000000
vn 0.000082 1.000000 -0.000000
vn 0.000041 1.000000 -0.000059
vn 0.000041 1.000000 -0.000059
vn 0.000069 1.000000 0.000043
vn 0.000069 1.000000 0.000043
vn 0.000139 1.000000 -0.000000
vn 0.000139 1.000000 0.000000
vn 0.500590 0.000011 -0.865685
vn -0.500619 -0.000003 -0.865668
vn -0.500619 -0.000003 -0.865668
vn 0.500624 0.000011 -0.865665
vn -1.000000 0.000000 -0.000000
vn -1.000000 0.000000 -0.000000
vn -0.500612 -0.000003 0.865672
vn -0.500612 -0.000003 0.865672
vn 0.500593 0.000011 0.865683
vn 0.500627 0.000011 0.865663
vn 1.000000 0.000029 0.000000
vn 1.000000 0.000029 0.000000
vn 0.000000 0.125319 0.992116
vn 0.000000 0.125319 0.992116
vn 0.045201 0.106878 0.993244
vn 0.078509 0.060068 0.995102
vn -0.000000 0.125319 0.992116
vn 0.020841 0.136241 0.990457
vn 0.000000 0.125319 0.992116
vn -0.020841 0.136241 0.990457
vn -0.000000 0.125319 0.992116
vn -0.045201 0.106878 0.993244
vn -0.000000 0.125319 0.992116
vn -0.078509 0.060068 0.995102
vn 0.145166 0.022217 0.989158
vn 0.087415 0.052476 0.994789
vn 0.104204 -0.014306 0.994453
vn 0.193518 0.000000 0.981097
vn 0.049522 0.085003 0.995149
vn 0.062118 -0.020920 0.997850
vn 0.000000 -0.204072 0.978956
vn 0.000000 -0.204072 0.978956
vn 0.000000 -0.141000 0.990010
vn 0.000000 -0.141000 0.990010
vn -0.049522 0.085003 0.995149
vn -0.087415 0.052476 0.994789
vn -0.104204 -0.014306 0.994453
vn -0.062118 -0.020920 0.997850
vn -0.145166 0.022217 0.989158
vn -0.193518 0.000000 0.981097
vn 0.000000 1.000000 0.000000
vn 0.000000 1.000000 0.000002
vn 0.000000 1.000000 0.000002
vn 0.000000 1.000000 0.000000
vn 0.000000 1.000000 0.000001
vn 0.000000 1.000000 0.000003
vn 0.000000 1.000000 0.000000
vn 0.000000 1.000000 0.000002
vn 0.000000 1.000000 0.000001
vn 0.000000 1.000000 0.000001
vn 0.000000 1.000000 0.000000
vn 0.000000 1.000000 0.000000
vn -0.161830 0.000000 -0.986819
vn -0.055636 0.000000 -0.998451
vn -0.055636 0.000000 -0.998451
vn -0.161830 0.000000 -0.986819
vn 0.000000 0.000000 -1.000000
vn 0.000000 0.000000 -1.000000
vn 0.000000 0.000000 -1.000000
vn 0.000000 0.000000 -1.000000
vn 0.055636 0.000000 -0.998451
vn 0.055636 0.000000 -0.998451
vn 0.161830 0.000000 -0.986819
vn 0.161830 0.000000 -0.986819
vn -0.157839 -0.051624 -0.986115
vn -0.059453 -0.052374 -0.996856
vn -0.056307 -0.234914 -0.970384
vn -0.130440 -0.260692 -0.956569
vn 0.000000 -0.049785 -0.998760
vn 0.000000 -0.203323 -0.979112
vn 0.000000 -0.049785 -0.998760
vn 0.000000 -0.203323 -0.979112
vn 0.059453 -0.052374 -0.996856
vn 0.056307 -0.234914 -0.970384
vn 0.157839 -0.051624 -0.986115
vn 0.130440 -0.260692 -0.956569
vn 0.000000 -1.000000 0.000000
vn 0.655936 -0.754817 0.000000
vn 0.649960 -0.759969 0.000000
vn 0.000000 -1.000000 0.000000
vn 0.746867 -0.664974 0.000000
vn 0.758489 -0.651686 0.000000
vn 0.994771 -0.102134 0.000000
vn 0.993250 -0.115993 0.000000
vn 1.000000 0.000000 0.000000
vn 1.000000 0.000000 0.000000
vn 1.000000 0.000000 0.000000
vn 1.000000 0.000000 0.000000
vn -0.758489 -0.651686 0.000000
vn -0.746867 -0.664974 0.000000
vn -0.993250 -0.115993 0.000000
vn -0.994771 -0.102134 0.000000
vn -1.000000 0.000000 0.000000
vn -1.000000 0.000000 0.000000
vn -1.000000 0.000000 0.000000
vn -1.000000 0.000000 0.000000
vn -0.055636 0.000000 -0.998451
vn -0.161830 0.000000 -0.986819
vn 0.000000 0.000000 -1.000000
vn 0.000000 0.000000 -1.000000
vn 0.055636 0.000000 -0.998451
vn 0.161830 0.000000 -0.986819
vn 1.000000 0.000000 0.000000
vn 1.000000 0.000000 0.000000
vn -0.193518 0.000000 0.981097
vn -0.090181 -0.028643 0.995513
vn -0.041399 -0.041949 0.998262
vn 0.000000 -0.076165 0.997095
vn 0.000000 -0.076165 0.997095
vn 0.041399 -0.041949 0.998262
vn 0.090181 -0.028643 0.995513
vn 0.193518 0.000000 0.981097
vn -1.000000 0.000000 0.000000
vn -1.000000 0.000000 0.000000
vn 1.000000 0.000000 0.000000
vn 1.000000 0.000000 0.000000
vn 1.000000 0.000000 0.000000
vn -1.000000 0.000000 0.000000
vn -1.000000 0.000000 0.000000
vn -1.000000 0.000000 0.000000
vn 1.000000 0.000000 0.000000
vn 1.000000 0.000000 0.000000
vn 0.000000 1.000000 0.000000
vn 0.000000 1.000000 0.000000
vn -1.000000 0.000000 0.000000
vn -1.000000 0.000000 0.000000
vn -0.000000 0.125319 0.992117
vn -0.000000 0.125319 0.992117
vn 0.006265 -0.207354 -0.978246
vn -0.006265 -0.207354 -0.978246
vn -0.701583 -0.712588 0.000000
vn -0.701583 -0.712588 0.000000
s 1
g Shovel_Stick
usemtl initialShadingGroup
f 1/38/1 2/5/2 8/6/3 7/39/4
f 2/5/2 3/1/5 9/4/6 8/6/3
f 3/1/5 4/2/7 10/3/8 9/4/6
f 4/2/7 5/11/9 11/12/10 10/3/8
f 5/11/9 6/7/11 12/10/12 11/12/10
f 6/7/11 1/8/1 7/9/4 12/10/12
s 2
f 19/19/13 20/20/14 21/21/15
f 20/20/14 22/22/16 21/21/15
f 22/22/16 23/24/17 21/21/15
f 23/24/17 24/25/18 21/21/15
f 24/25/18 25/23/19 21/21/15
f 25/23/19 19/19/13 21/21/15
s 3
f 7/26/20 8/27/21 14/28/22 13/29/23
f 8/27/21 9/30/24 15/31/25 14/28/22
f 9/30/24 10/34/26 16/35/27 15/31/25
f 10/34/26 11/36/28 17/37/29 16/35/27
f 11/36/28 12/32/30 18/33/31 17/37/29
f 12/32/30 7/26/20 13/29/23 18/33/31
s 4
f 13/17/32 14/40/33 20/41/34 19/18/35
f 14/40/33 15/42/36 22/43/37 20/41/34
f 15/42/36 16/44/38 23/47/39 22/43/37
f 16/44/38 17/45/40 24/46/41 23/47/39
f 17/13/40 18/14/42 25/15/43 24/16/41
f 18/14/42 13/17/32 19/18/35 25/15/43
s 5
f 82/48/44 83/49/45 29/50/46 28/51/47
f 83/49/45 84/52/48 30/53/49 29/50/46
f 84/52/48 85/54/50 31/55/51 30/53/49
f 85/54/50 86/56/52 32/57/53 31/55/51
f 86/56/52 87/58/54 33/59/55 32/57/53
f 54/60/56 55/61/57 76/62/58 77/63/59
f 55/61/57 56/64/60 75/65/61 76/62/58
s 6
f 56/66/62 57/67/63 78/68/64 79/69/65
s 5
f 57/70/66 58/71/67 73/72/68 74/73/69
f 58/71/67 59/74/70 72/75/71 73/72/68
s 7
f 34/76/72 35/77/73 41/78/74 40/79/75
f 35/77/73 36/80/76 42/81/77 41/78/74
f 36/80/76 37/82/78 43/83/79 42/81/77
f 37/82/78 38/84/80 44/85/81 43/83/79
f 38/84/80 39/86/82 45/87/83 44/85/81
s 8
f 66/88/84 67/89/85 64/90/86 65/91/87
f 67/89/85 68/92/88 63/93/89 64/90/86
f 68/92/88 69/94/90 62/95/91 63/93/89
f 69/94/90 70/96/92 61/97/93 62/95/91
f 70/96/92 71/98/94 60/99/95 61/97/93
f 46/100/96 47/101/97 92/102/98 93/103/99
f 47/101/97 48/104/100 91/105/101 92/102/98
f 48/104/100 49/106/102 90/107/103 91/105/101
f 49/106/102 50/108/104 89/109/105 90/107/103
f 50/108/104 51/110/106 88/111/107 89/109/105
s 9
f 52/112/108 53/113/109 27/114/110 26/115/111
f 87/58/112 88/116/113 51/117/114 33/59/115
f 59/74/116 60/118/117 71/119/118 72/75/119
s 10
f 93/120/120 82/48/121 28/51/122 46/121/123
f 65/122/124 54/60/125 77/63/126 66/123/127
s 5
f 29/50/46 55/61/57 54/60/56 28/51/47
f 30/53/49 56/64/60 55/61/57 29/50/46
f 31/55/51 57/70/66 56/64/60 30/53/49
f 32/57/53 58/71/67 57/70/66 31/55/51
f 33/59/55 59/74/70 58/71/67 32/57/53
s 9
f 33/59/115 51/117/114 60/118/117 59/74/116
s 8
f 61/97/93 60/99/95 51/110/106 50/108/104
f 62/95/91 61/97/93 50/108/104 49/106/102
f 63/93/89 62/95/91 49/106/102 48/104/100
f 64/90/86 63/93/89 48/104/100 47/101/97
f 65/91/87 64/90/86 47/101/97 46/100/96
s 10
f 28/51/122 54/60/125 65/122/124 46/121/123
s 8
f 41/124/128 67/89/85 66/88/84 40/125/129
f 42/126/130 68/92/88 67/89/85 41/124/128
f 43/127/131 69/94/90 68/92/88 42/126/130
f 44/128/132 70/96/92 69/94/90 43/127/131
f 45/129/133 71/98/94 70/96/92 44/128/132
s 9
f 72/75/119 71/119/118 45/130/134 39/131/135
s 5
f 73/72/68 72/75/71 39/131/136 38/132/137
f 74/73/69 73/72/68 38/132/137 37/133/138
s 6
f 79/69/65 78/68/64 80/134/139 81/135/140
s 5
f 76/62/58 75/65/61 36/136/141 35/137/142
f 77/63/59 76/62/58 35/137/142 34/138/143
s 10
f 66/123/127 77/63/126 34/138/144 40/139/145
s 11
f 57/67/146 74/140/147 78/68/148
s 12
f 75/141/149 56/66/150 79/69/151
s 11
f 74/140/147 37/142/152 80/134/153 78/68/148
s 7
f 37/82/78 36/80/76 81/143/154 80/144/155
s 12
f 36/145/156 75/141/149 79/69/151 81/135/157
s 5
f 26/115/158 83/49/45 82/48/44
f 26/115/158 84/52/48 83/49/45
f 26/115/158 27/114/159 85/54/50 84/52/48
f 27/114/159 86/56/52 85/54/50
f 27/114/159 87/58/54 86/56/52
s 9
f 27/114/110 53/113/109 88/116/113 87/58/112
s 8
f 89/109/105 88/111/107 53/146/160
f 90/107/103 89/109/105 53/146/160
f 91/105/101 90/107/103 53/146/160 52/147/161
f 92/102/98 91/105/101 52/147/161
f 93/103/99 92/102/98 52/147/161
s 10
f 52/112/162 26/115/163 82/48/121 93/120/120
