# This file uses meters as units for non-parametric coordinates.

mtllib 3D_Construction_Barrier.mtl
g default
v -75.000000 42.781807 2.500000
v 75.000000 42.781807 2.500000
v -75.000000 67.781807 2.500000
v 75.000000 67.781807 2.500000
v -75.000000 67.781807 -2.500000
v 75.000000 67.781807 -2.500000
v -75.000000 42.781807 -2.500000
v 75.000000 42.781807 -2.500000
v -61.250000 1.896341 1.250000
v -58.750000 1.896341 1.250000
v -61.250000 43.365593 1.250000
v -58.750000 43.365593 1.250000
v -61.250000 43.365593 -1.250000
v -58.750000 43.365593 -1.250000
v -61.250000 1.896341 -1.250000
v -58.750000 1.896341 -1.250000
v 61.250000 1.896341 1.250000
v 58.750000 1.896341 1.250000
v 61.250000 43.365593 1.250000
v 58.750000 43.365593 1.250000
v 61.250000 43.365593 -1.250000
v 58.750000 43.365593 -1.250000
v 61.250000 1.896341 -1.250000
v 58.750000 1.896341 -1.250000
v -59.156357 26.250000 1.250000
v -59.156357 23.750000 1.250000
v 59.008209 26.250000 1.250000
v 59.008209 23.750000 1.250000
v 59.008209 26.250000 -1.250000
v 59.008209 23.750000 -1.250000
v -59.156357 26.250000 -1.250000
v -59.156357 23.750000 -1.250000
v 56.763222 2.721323 1.250000
v 56.763222 0.221323 1.250000
v 63.236778 2.721323 1.250000
v 63.236778 0.221323 1.250000
v 63.236778 2.721323 -1.250000
v 63.236778 0.221323 -1.250000
v 56.763222 2.721323 -1.250000
v 56.763222 0.221323 -1.250000
v -63.236778 2.721323 1.250000
v -63.236778 0.221323 1.250000
v -56.763222 2.721323 1.250000
v -56.763222 0.221323 1.250000
v -56.763222 2.721323 -1.250000
v -56.763222 0.221323 -1.250000
v -63.236778 2.721323 -1.250000
v -63.236778 0.221323 -1.250000
vt 0.803565 0.948943
vt 0.807548 0.070051
vt 0.950050 0.949606
vt 0.954032 0.070715
vt 0.979347 0.949739
vt 0.983328 0.070847
vt 0.765645 0.938461
vt 0.765645 0.059556
vt 0.794942 0.938461
vt 0.794942 0.059556
vt 0.807680 0.040755
vt 0.954166 0.041418
vt 0.803436 0.978238
vt 0.949914 0.978901
vt 0.501781 0.029898
vt 0.516429 0.029898
vt 0.516429 0.272882
vt 0.501781 0.272882
vt 0.531078 0.029898
vt 0.531078 0.272882
vt 0.487133 0.029898
vt 0.487133 0.272882
vt 0.501781 0.029898
vt 0.501781 0.272882
vt 0.516429 0.272882
vt 0.516429 0.029898
vt 0.531078 0.272882
vt 0.531078 0.029898
vt 0.487133 0.029898
vt 0.487133 0.272882
vt 0.722842 0.241416
vt 0.737490 0.241416
vt 0.737490 0.933787
vt 0.722842 0.933787
vt 0.752138 0.241416
vt 0.752138 0.933787
vt 0.708193 0.241416
vt 0.708193 0.933787
vt 0.738670 0.213115
vt 0.724022 0.213112
vt 0.724021 0.175184
vt 0.738670 0.175184
vt 0.724022 0.160537
vt 0.738670 0.160535
vt 0.753318 0.213115
vt 0.753319 0.175185
vt 0.738670 0.227763
vt 0.724023 0.227764
vt 0.713428 0.175503
vt 0.728075 0.175678
vt 0.727621 0.213607
vt 0.712974 0.213431
vt 0.727446 0.228254
vt 0.712798 0.228079
vt 0.698780 0.175327
vt 0.698326 0.213256
vt 0.713603 0.160855
vt 0.728251 0.161031
vn 0.000000 0.000000 1.000000
vn 0.000000 0.000000 1.000000
vn 0.000000 0.000000 1.000000
vn 0.000000 0.000000 1.000000
vn 0.000000 1.000000 0.000000
vn 0.000000 1.000000 0.000000
vn 0.000000 1.000000 0.000000
vn 0.000000 1.000000 0.000000
vn 0.000000 -1.000000 0.000000
vn 0.000000 -1.000000 0.000000
vn 0.000000 -1.000000 0.000000
vn 0.000000 -1.000000 0.000000
vn 1.000000 0.000000 0.000000
vn 1.000000 0.000000 0.000000
vn 1.000000 0.000000 0.000000
vn 1.000000 0.000000 0.000000
vn -1.000000 0.000000 0.000000
vn -1.000000 0.000000 0.000000
vn -1.000000 0.000000 0.000000
vn -1.000000 0.000000 0.000000
vn 0.000000 0.000000 1.000000
vn 0.000000 0.000000 1.000000
vn 0.000000 0.000000 1.000000
vn 0.000000 0.000000 1.000000
vn 1.000000 0.000000 0.000000
vn 1.000000 0.000000 0.000000
vn 1.000000 0.000000 0.000000
vn 1.000000 0.000000 0.000000
vn -1.000000 0.000000 0.000000
vn -1.000000 0.000000 0.000000
vn -1.000000 0.000000 0.000000
vn -1.000000 0.000000 0.000000
vn 0.000000 0.000000 1.000000
vn 0.000000 0.000000 1.000000
vn 0.000000 0.000000 1.000000
vn 0.000000 0.000000 1.000000
vn -1.000000 0.000000 0.000000
vn -1.000000 0.000000 0.000000
vn -1.000000 0.000000 0.000000
vn -1.000000 0.000000 0.000000
vn 1.000000 0.000000 0.000000
vn 1.000000 0.000000 0.000000
vn 1.000000 0.000000 0.000000
vn 1.000000 0.000000 0.000000
vn 0.000000 0.000000 1.000000
vn 0.000000 0.000000 1.000000
vn 0.000000 0.000000 1.000000
vn 0.000000 0.000000 1.000000
vn 0.000000 -1.000000 0.000000
vn 0.000000 -1.000000 0.000000
vn 0.000000 -1.000000 0.000000
vn 0.000000 -1.000000 0.000000
vn 0.000000 1.000000 0.000000
vn 0.000000 1.000000 0.000000
vn 0.000000 1.000000 0.000000
vn 0.000000 1.000000 0.000000
vn 0.000000 0.000000 1.000000
vn 0.000000 0.000000 1.000000
vn 0.000000 0.000000 1.000000
vn 0.000000 0.000000 1.000000
vn 1.000000 0.000000 0.000000
vn 1.000000 0.000000 0.000000
vn 1.000000 0.000000 0.000000
vn 1.000000 0.000000 0.000000
vn 0.000000 1.000000 0.000000
vn 0.000000 1.000000 0.000000
vn 0.000000 1.000000 0.000000
vn 0.000000 1.000000 0.000000
vn -1.000000 0.000000 0.000000
vn -1.000000 0.000000 0.000000
vn -1.000000 0.000000 0.000000
vn -1.000000 0.000000 0.000000
vn 0.000000 0.000000 1.000000
vn 0.000000 0.000000 1.000000
vn 0.000000 0.000000 1.000000
vn 0.000000 0.000000 1.000000
vn 1.000000 0.000000 0.000000
vn 1.000000 0.000000 0.000000
vn 1.000000 0.000000 0.000000
vn 1.000000 0.000000 0.000000
vn 0.000000 1.000000 0.000000
vn 0.000000 1.000000 0.000000
vn 0.000000 1.000000 0.000000
vn 0.000000 1.000000 0.000000
vn -1.000000 0.000000 0.000000
vn -1.000000 0.000000 0.000000
vn -1.000000 0.000000 0.000000
vn -1.000000 0.000000 0.000000
s off
g Barrier_Top
usemtl initialShadingGroup
f 1/1/1 2/2/2 4/4/3 3/3/4
f 3/3/5 4/4/6 6/6/7 5/5/8
f 7/7/9 8/8/10 2/10/11 1/9/12
f 2/2/13 8/11/14 6/12/15 4/4/16
f 7/13/17 1/1/18 3/3/19 5/14/20
f 9/15/21 10/16/22 12/17/23 11/18/24
f 10/16/25 16/19/26 14/20/27 12/17/28
f 15/21/29 9/15/30 11/18/31 13/22/32
f 17/23/33 19/24/34 20/25/35 18/26/36
f 18/26/37 20/25/38 22/27/39 24/28/40
f 23/29/41 21/30/42 19/24/43 17/23/44
f 25/31/45 26/32/46 28/33/47 27/34/48
f 26/32/49 32/35/50 30/36/51 28/33/52
f 31/37/53 25/31/54 27/34/55 29/38/56
f 33/39/57 34/40/58 36/41/59 35/42/60
f 35/42/61 36/41/62 38/43/63 37/44/64
f 39/45/65 33/39/66 35/42/67 37/46/68
f 34/40/69 33/39/70 39/47/71 40/48/72
f 41/49/73 42/50/74 44/51/75 43/52/76
f 43/52/77 44/51/78 46/53/79 45/54/80
f 47/55/81 41/49/82 43/52/83 45/56/84
f 42/50/85 41/49/86 47/57/87 48/58/88
