# This file uses meters as units for non-parametric coordinates.

mtllib 3D_Road_Rounadbout_Curve.mtl
g default
v -276.035553 0.423732 40.697823
v -174.854172 0.423732 -13.384811
v -86.167786 0.423732 -86.167793
v -13.384811 0.423732 -174.854172
v 40.697823 0.423732 -276.035675
v -276.035553 9.576268 40.697823
v -174.854172 9.576268 -13.384811
v -86.167786 9.576268 -86.167793
v -13.384811 9.576268 -174.854172
v 40.697823 9.576268 -276.035675
v -251.150604 9.576268 100.775360
v -138.726685 9.576268 40.683540
v -40.186310 9.576268 -40.186523
v 40.683678 9.576268 -138.726959
v 100.775368 9.576268 -251.150818
v -251.150604 0.423732 100.775360
v -138.726685 0.423732 40.683540
v -40.186310 0.423732 -40.186523
v 40.683678 0.423732 -138.726959
v 100.775368 0.423732 -251.150818
vt 0.857413 0.000493
vt 0.857413 0.209369
vt 0.857413 0.421038
vt 0.857413 0.630989
vt 0.857413 0.834384
vt 0.873115 0.000493
vt 0.873115 0.209369
vt 0.873115 0.421038
vt 0.873115 0.630989
vt 0.873115 0.834384
vt 0.982657 0.000493
vt 0.982657 0.209369
vt 0.982657 0.421038
vt 0.982657 0.630989
vt 0.982657 0.834384
vt 0.998263 0.000493
vt 0.998263 0.209369
vt 0.998263 0.421038
vt 0.998263 0.630989
vt 0.998263 0.834384
vn -0.555570 0.000000 -0.831470
vn -0.471397 0.000000 -0.881921
vn -0.471397 0.000000 -0.881921
vn -0.555570 0.000000 -0.831470
vn -0.707107 0.000000 -0.707107
vn -0.707107 0.000000 -0.707107
vn -0.831470 0.000000 -0.555570
vn -0.831470 0.000000 -0.555570
vn -0.881921 0.000000 -0.471397
vn -0.881921 0.000000 -0.471397
vn 0.000000 1.000000 0.000000
vn 0.000000 1.000000 0.000000
vn 0.000000 1.000000 0.000000
vn 0.000000 1.000000 0.000000
vn 0.000000 1.000000 0.000000
vn 0.000000 1.000000 0.000000
vn 0.000000 1.000000 -0.000000
vn 0.000000 1.000000 -0.000000
vn 0.000000 1.000000 -0.000000
vn 0.000000 1.000000 -0.000000
vn 0.555570 0.000000 0.831470
vn 0.471397 0.000000 0.881921
vn 0.471397 0.000000 0.881921
vn 0.555570 0.000000 0.831470
vn 0.707107 0.000000 0.707107
vn 0.707107 0.000000 0.707107
vn 0.831470 0.000000 0.555570
vn 0.831470 0.000000 0.555570
vn 0.881922 0.000000 0.471396
vn 0.881922 0.000000 0.471396
s 1
g RoadTile_Roundabout_Curve_Pavement RoadTile_Roundabout_Curve
usemtl initialShadingGroup
f 2/2/1 1/1/2 6/6/3 7/7/4
f 3/3/5 2/2/1 7/7/4 8/8/6
f 4/4/7 3/3/5 8/8/6 9/9/8
f 5/5/9 4/4/7 9/9/8 10/10/10
s 2
f 7/7/11 6/6/12 11/11/13 12/12/14
f 8/8/15 7/7/11 12/12/14 13/13/16
f 9/9/17 8/8/15 13/13/16 14/14/18
f 10/10/19 9/9/17 14/14/18 15/15/20
s 3
f 12/12/21 11/11/22 16/16/23 17/17/24
f 13/13/25 12/12/21 17/17/24 18/18/26
f 14/14/27 13/13/25 18/18/26 19/19/28
f 15/15/29 14/14/27 19/19/28 20/20/30
g default
v -250.000000 0.000000 250.000000
v 250.000000 0.000000 250.000000
v -250.000000 0.000000 -250.000000
v 250.000000 0.000000 -250.000000
v -43.278442 0.000000 -250.000000
v -250.000000 0.000000 -43.278320
v -187.500000 0.000000 -77.616394
v -125.000000 0.000000 -125.000122
v -73.604858 0.000000 -187.500061
vt 0.000442 0.000153
vt 0.854935 0.000153
vt 0.000442 0.854645
vt 0.854935 0.854646
vt 0.353728 0.854643
vt 0.000442 0.501361
vt 0.107252 0.560047
vt 0.214064 0.641025
vt 0.301899 0.747834
vn -0.000000 1.000000 0.000000
vn 0.000000 1.000000 0.000000
vn -0.000000 1.000000 -0.000000
vn -0.000000 1.000000 -0.000000
vn 0.000000 1.000000 0.000000
vn 0.000000 1.000000 0.000000
vn 0.000000 1.000000 0.000000
vn 0.000000 1.000000 0.000000
vn 0.000000 1.000000 0.000000
s 1
g RoadTile_Roundabout_Curve RoadTile_Roundabout_Curve_Ground
usemtl initialShadingGroup
f 29/29/31 24/24/32 25/25/33
f 23/23/34 26/26/35 27/27/36 28/28/37
f 23/23/34 28/28/37 29/29/31 25/25/33
f 27/27/36 21/21/38 22/22/39 28/28/37
f 28/28/37 22/22/39 24/24/32 29/29/31
f 27/27/36 26/26/35 21/21/38
