# This file uses meters as units for non-parametric coordinates.

mtllib 3D_Road_Rounadbout_Curve_v2.mtl
g default
v -250.000000 0.000000 250.000000
v 250.000000 0.000000 250.000000
v -250.000000 0.000000 -250.000000
v 250.000000 0.000000 -250.000000
v -43.278442 0.000000 -250.000000
v -250.000000 0.000000 -43.278320
v -187.500000 0.000000 -77.616394
v -125.000000 0.000000 -125.000122
v -73.604858 0.000000 -187.500061
v -276.035522 0.423732 40.697815
v -174.854126 0.423732 -13.384827
v -86.167847 0.423732 -86.167786
v -13.384766 0.423732 -174.854187
v 40.697876 0.423732 -276.035706
v -276.035522 9.576268 40.697815
v -174.854126 9.576268 -13.384827
v -86.167847 9.576268 -86.167786
v -13.384766 9.576268 -174.854187
v 40.697876 9.576268 -276.035706
v -251.150635 9.576268 100.775360
v -138.726685 9.576268 40.683533
v -40.186279 9.576268 -40.186523
v 40.683716 9.576268 -138.726929
v 100.775391 9.576268 -251.150818
v -251.150635 0.423732 100.775360
v -138.726685 0.423732 40.683533
v -40.186279 0.423732 -40.186523
v 40.683716 0.423732 -138.726929
v 100.775391 0.423732 -251.150818
vt 0.012649 0.012360
vt 0.842728 0.012360
vt 0.012649 0.842438
vt 0.842728 0.842439
vt 0.355841 0.842436
vt 0.012649 0.499248
vt 0.116407 0.556257
vt 0.220167 0.634921
vt 0.305493 0.738679
vt 0.859425 0.215314
vt 0.859425 0.012406
vt 0.874678 0.012406
vt 0.874678 0.215314
vt 0.859425 0.420935
vt 0.874678 0.420935
vt 0.859425 0.624887
vt 0.874678 0.624887
vt 0.859425 0.822471
vt 0.874678 0.822471
vt 0.981090 0.012406
vt 0.981090 0.215314
vt 0.981090 0.420935
vt 0.981090 0.624887
vt 0.981090 0.822471
vt 0.996251 0.012406
vt 0.996251 0.215314
vt 0.996251 0.420935
vt 0.996251 0.624887
vt 0.996251 0.822471
vn -0.000000 1.000000 0.000000
vn 0.000000 1.000000 0.000000
vn -0.000000 1.000000 -0.000000
vn -0.000000 1.000000 -0.000000
vn 0.000000 1.000000 0.000000
vn 0.000000 1.000000 0.000000
vn 0.000000 1.000000 0.000000
vn 0.000000 1.000000 0.000000
vn 0.000000 1.000000 0.000000
vn -0.555570 0.000000 -0.831469
vn -0.471397 0.000000 -0.881921
vn -0.471397 0.000000 -0.881921
vn -0.555570 0.000000 -0.831469
vn -0.707107 0.000000 -0.707107
vn -0.707107 0.000000 -0.707107
vn -0.831470 0.000000 -0.555570
vn -0.831470 0.000000 -0.555570
vn -0.881921 0.000000 -0.471397
vn -0.881921 0.000000 -0.471397
vn 0.000000 1.000000 -0.000000
vn 0.000000 1.000000 0.000000
vn 0.000000 1.000000 0.000000
vn 0.000000 1.000000 -0.000000
vn 0.000000 1.000000 -0.000000
vn 0.000000 1.000000 -0.000000
vn 0.000000 1.000000 0.000000
vn 0.000000 1.000000 0.000000
vn 0.000000 1.000000 0.000000
vn 0.000000 1.000000 0.000000
vn 0.555570 0.000000 0.831470
vn 0.471397 0.000000 0.881921
vn 0.471397 0.000000 0.881921
vn 0.555570 0.000000 0.831470
vn 0.707107 0.000000 0.707107
vn 0.707107 0.000000 0.707107
vn 0.831470 0.000000 0.555570
vn 0.831470 0.000000 0.555570
vn 0.881922 0.000000 0.471396
vn 0.881922 0.000000 0.471396
s 1
g RoadTile_Roundabout_Curve_Ground
usemtl initialShadingGroup
f 9/9/1 4/4/2 5/5/3
f 3/3/4 6/6/5 7/7/6 8/8/7
f 3/3/4 8/8/7 9/9/1 5/5/3
f 7/7/6 1/1/8 2/2/9 8/8/7
f 8/8/7 2/2/9 4/4/2 9/9/1
f 7/7/6 6/6/5 1/1/8
s 3
f 11/10/10 10/11/11 15/12/12 16/13/13
f 12/14/14 11/10/10 16/13/13 17/15/15
f 13/16/16 12/14/14 17/15/15 18/17/17
f 14/18/18 13/16/16 18/17/17 19/19/19
s 4
f 16/13/20 15/12/21 20/20/22 21/21/23
f 17/15/24 16/13/20 21/21/23 22/22/25
f 18/17/26 17/15/24 22/22/25 23/23/27
f 19/19/28 18/17/26 23/23/27 24/24/29
s 5
f 21/21/30 20/20/31 25/25/32 26/26/33
f 22/22/34 21/21/30 26/26/33 27/27/35
f 23/23/36 22/22/34 27/27/35 28/28/37
f 24/24/38 23/23/36 28/28/37 29/29/39
