# This file uses meters as units for non-parametric coordinates.

mtllib 3D_Environment_Bin.mtl
g default
v -24.063507 49.204128 24.852032
v 25.369370 49.204128 24.852032
v -24.063507 137.045624 12.899227
v 25.369370 137.045624 12.899227
v -24.063507 137.045624 2.714245
v 25.369370 137.045624 2.714245
v -24.063507 49.204128 2.714245
v 25.369370 49.204128 2.714245
v -24.063507 114.168442 24.852032
v 25.369370 114.168442 24.852032
v 25.369370 114.168442 2.714245
v -24.063507 114.168442 2.714245
v 21.163132 132.015625 15.604920
v -19.857285 132.015625 15.604920
v 21.163132 119.198479 21.958546
v -19.857285 119.198456 21.958546
v -29.099228 2.113865 -1.995981
v -30.781357 2.113865 -2.822743
v -32.463486 2.113865 -1.995981
v -33.160248 2.113865 0.000000
v -32.463486 2.113865 1.995981
v -30.781357 2.113865 2.822744
v -29.099228 2.113865 1.995981
v -28.402466 2.113865 0.000000
v -29.099228 128.522247 -1.995981
v -30.781357 128.522247 -2.822743
v -32.463486 128.522247 -1.995981
v -33.160248 128.522247 0.000000
v -32.463486 128.522247 1.995981
v -30.781357 128.522247 2.822744
v -29.099228 128.522247 1.995981
v -28.402466 128.522247 0.000000
v 30.405075 2.113865 -1.995981
v 32.087204 2.113865 -2.822743
v 33.769333 2.113865 -1.995981
v 34.466080 2.113865 0.000000
v 33.769333 2.113865 1.995981
v 32.087204 2.113865 2.822744
v 30.405075 2.113865 1.995981
v 29.708313 2.113865 0.000000
v 30.405075 128.522247 -1.995981
v 32.087204 128.522247 -2.822743
v 33.769333 128.522247 -1.995981
v 34.466080 128.522247 -0.000000
v 33.769333 128.522247 1.995981
v 32.087204 128.522247 2.822744
v 30.405075 128.522247 1.995981
v 29.708313 128.522247 -0.000000
v -27.504959 135.753403 -2.822743
v -26.898346 134.054214 -1.995981
v -26.647079 133.350388 -0.000000
v -26.898346 134.054214 1.995981
v -27.504959 135.753403 2.822744
v -28.111572 137.452606 1.995981
v -28.362839 138.156433 -0.000000
v -28.111572 137.452606 -1.995981
v -30.205795 132.869186 -2.822743
v -28.608414 132.267212 -1.995981
v -27.946777 132.017868 -0.000000
v -28.608414 132.267212 1.995981
v -30.205795 132.869186 2.822744
v -31.803146 133.471146 1.995981
v -32.464798 133.720490 -0.000000
v -31.803146 133.471146 -1.995981
v 28.810806 135.753403 -2.822743
v 29.417419 137.452606 -1.995981
v 29.668686 138.156433 -0.000000
v 29.417419 137.452606 1.995981
v 28.810806 135.753403 2.822744
v 28.204193 134.054214 1.995981
v 27.952927 133.350388 0.000000
v 28.204193 134.054214 -1.995981
v 31.511627 132.869186 -2.822743
v 33.108994 133.471146 -1.995981
v 33.770645 133.720490 -0.000000
v 33.108994 133.471146 1.995981
v 31.511627 132.869186 2.822744
v 29.914276 132.267212 1.995981
v 29.252625 132.017868 -0.000000
v 29.914276 132.267212 -1.995981
v 31.420792 54.505772 -1.094562
v 31.420792 53.411209 -1.547944
v 31.420792 52.316647 -1.094562
v 31.420792 51.863266 0.000000
v 31.420792 52.316647 1.094562
v 31.420792 53.411209 1.547945
v 31.420792 54.505772 1.094562
v 31.420792 54.959152 0.000000
v -30.114944 54.505772 -1.094562
v -30.114944 53.411209 -1.547944
v -30.114944 52.316647 -1.094562
v -30.114944 51.863266 0.000000
v -30.114944 52.316647 1.094562
v -30.114944 53.411209 1.547945
v -30.114944 54.505772 1.094562
v -30.114944 54.959152 0.000000
v 31.420792 111.745758 -1.094562
v 31.420792 110.651199 -1.547944
v 31.420792 109.556641 -1.094562
v 31.420792 109.103256 0.000000
v 31.420792 109.556641 1.094562
v 31.420792 110.651199 1.547945
v 31.420792 111.745758 1.094562
v 31.420792 112.199142 0.000000
v -30.114944 111.745758 -1.094562
v -30.114944 110.651199 -1.547944
v -30.114944 109.556641 -1.094562
v -30.114944 109.103256 0.000000
v -30.114944 109.556641 1.094562
v -30.114944 110.651199 1.547945
v -30.114944 111.745758 1.094562
v -30.114944 112.199142 0.000000
vt 0.321069 0.130624
vt 0.602999 0.130624
vt 0.303623 0.623867
vt 0.620445 0.623867
vt 0.993767 0.973658
vt 0.682385 0.637113
vt 0.993767 0.480555
vt 0.603011 0.004358
vt 0.331312 0.485137
vt 0.592756 0.485137
vt 0.716275 0.845235
vt 0.993767 0.845235
vt 0.591861 0.591967
vt 0.332207 0.591967
vt 0.573398 0.517529
vt 0.350669 0.517529
vt 0.716275 0.973658
vt 0.712231 0.498015
vt 0.303619 0.689147
vt 0.211837 0.498015
vt 0.197595 0.135543
vt 0.716275 0.480555
vt 0.241683 0.637113
vt 0.620449 0.689147
vt 0.726473 0.135543
vt 0.321057 0.004358
vt 0.091563 0.712222
vt 0.081040 0.712156
vt 0.085534 0.002477
vt 0.096057 0.002544
vt 0.070516 0.712090
vt 0.075011 0.002411
vt 0.058650 0.712012
vt 0.063142 0.002336
vt 0.046779 0.711938
vt 0.051273 0.002261
vt 0.036255 0.711871
vt 0.040750 0.002194
vt 0.025730 0.711805
vt 0.030227 0.002127
vt 0.013861 0.711730
vt 0.018359 0.002051
vt 0.001992 0.711656
vt 0.006490 0.001976
vt 0.101750 0.713767
vt 0.101750 0.004064
vt 0.112273 0.004064
vt 0.112273 0.713767
vt 0.122796 0.004064
vt 0.122796 0.713767
vt 0.134665 0.004064
vt 0.134665 0.713768
vt 0.146535 0.004064
vt 0.146534 0.713767
vt 0.157058 0.004064
vt 0.157058 0.713767
vt 0.167581 0.004064
vt 0.167581 0.713767
vt 0.179451 0.004064
vt 0.179451 0.713767
vt 0.191320 0.004064
vt 0.191319 0.713768
vt 0.762163 0.255047
vt 0.761405 0.244079
vt 0.784955 0.239964
vt 0.788237 0.251278
vt 0.754746 0.330618
vt 0.756706 0.318543
vt 0.777384 0.322438
vt 0.775782 0.334465
vt 0.758516 0.305430
vt 0.780507 0.310531
vt 0.760146 0.294679
vt 0.784377 0.300052
vt 0.761595 0.285224
vt 0.787813 0.289410
vt 0.762527 0.275107
vt 0.789852 0.277188
vt 0.762725 0.264789
vt 0.791117 0.262672
vt 0.739909 0.252090
vt 0.746417 0.241922
vt 0.742287 0.328077
vt 0.746031 0.317548
vt 0.743958 0.306002
vt 0.738380 0.295866
vt 0.733379 0.285730
vt 0.731594 0.273928
vt 0.734116 0.262129
vt 0.858705 0.258772
vt 0.857716 0.268011
vt 0.831917 0.264496
vt 0.835014 0.254228
vt 0.857249 0.277943
vt 0.829993 0.276437
vt 0.857616 0.288085
vt 0.829397 0.291258
vt 0.858771 0.297758
vt 0.832980 0.302619
vt 0.860277 0.308789
vt 0.836959 0.313690
vt 0.862151 0.322499
vt 0.840164 0.326333
vt 0.864272 0.335547
vt 0.841619 0.339110
vt 0.859735 0.248514
vt 0.838414 0.244011
vt 0.968562 0.015612
vt 0.979169 0.019025
vt 0.979175 0.335200
vt 0.968567 0.338606
vt 0.956683 0.014191
vt 0.956686 0.340017
vt 0.944800 0.015602
vt 0.944803 0.338607
vt 0.934190 0.019008
vt 0.934194 0.335201
vt 0.923580 0.022414
vt 0.923584 0.331795
vt 0.911697 0.023825
vt 0.911701 0.330384
vt 0.899814 0.022414
vt 0.899818 0.331795
vt 0.989777 0.022434
vt 0.989782 0.331794
vt 0.879925 0.256226
vt 0.885312 0.265917
vt 0.887636 0.277416
vt 0.885731 0.289048
vt 0.880706 0.299060
vt 0.875246 0.309203
vt 0.873510 0.321163
vt 0.878040 0.332404
vt 0.873919 0.246493
vt 0.242584 0.642465
vt 0.249263 0.642465
vt 0.249348 0.987905
vt 0.242697 0.987907
vt 0.255914 0.642464
vt 0.255999 0.987903
vt 0.262564 0.642462
vt 0.262649 0.987901
vt 0.269215 0.642461
vt 0.269300 0.987899
vt 0.275865 0.642459
vt 0.275950 0.987897
vt 0.282516 0.642457
vt 0.282601 0.987895
vt 0.289167 0.642456
vt 0.289252 0.987894
vt 0.295818 0.642454
vt 0.295903 0.987892
vt 0.625968 0.644422
vt 0.632647 0.644422
vt 0.632732 0.989862
vt 0.626081 0.989864
vt 0.639298 0.644420
vt 0.639383 0.989860
vt 0.645948 0.644419
vt 0.646034 0.989857
vt 0.652599 0.644417
vt 0.652684 0.989856
vt 0.659250 0.644415
vt 0.659335 0.989854
vt 0.665900 0.644414
vt 0.665985 0.989852
vt 0.672551 0.644412
vt 0.672636 0.989850
vt 0.679202 0.644410
vt 0.679287 0.989848
vn -0.005337 0.487374 0.873177
vn -0.003503 0.491254 0.871010
vn -0.001102 0.962898 0.269862
vn -0.005376 0.469032 0.883165
vn 0.001102 0.962898 0.269862
vn 0.000000 1.000000 0.000000
vn 0.000000 1.000000 0.000000
vn 0.000000 -1.000000 0.000000
vn 0.000000 -1.000000 0.000000
vn 0.000000 -1.000000 0.000000
vn 0.000000 -1.000000 0.000000
vn 1.000000 0.000000 0.000000
vn 1.000000 0.000000 0.000000
vn 1.000000 0.000000 0.000000
vn 1.000000 0.000000 0.000000
vn -1.000000 -0.000000 0.000000
vn -1.000000 -0.000000 0.000000
vn -1.000000 0.000000 0.000000
vn -1.000000 0.000000 0.000000
vn 0.000000 0.000000 1.000000
vn 0.000000 0.000000 1.000000
vn 0.000000 0.000000 1.000000
vn 0.000000 0.000000 1.000000
vn 1.000000 0.000000 0.000000
vn 1.000000 0.000000 0.000000
vn 0.003503 0.491254 0.871010
vn 0.005337 0.487374 0.873177
vn 0.005376 0.469032 0.883165
vn -1.000000 -0.000000 0.000000
vn -1.000000 -0.000000 0.000000
vn 0.000000 0.000000 -1.000000
vn 0.000000 0.000000 -1.000000
vn 0.000000 0.000000 -1.000000
vn 0.000000 0.000000 -1.000000
vn 0.000000 0.000000 -1.000000
vn 0.000000 0.000000 -1.000000
vn 0.000000 0.000000 -1.000000
vn 0.000000 0.000000 -1.000000
vn 0.764665 -0.000000 -0.644428
vn 0.000000 0.000000 -1.000000
vn -0.002359 0.000322 -0.999997
vn 0.763845 -0.002895 -0.645394
vn -0.764665 0.000000 -0.644428
vn -0.765595 0.003846 -0.643312
vn -1.000000 -0.000000 0.000000
vn -0.999987 0.005018 -0.000000
vn -0.764665 -0.000000 0.644428
vn -0.765595 0.003846 0.643312
vn -0.000000 0.000000 1.000000
vn -0.002359 0.000322 0.999997
vn 0.764665 0.000000 0.644428
vn 0.763845 -0.002895 0.645394
vn 1.000000 -0.000000 0.000000
vn 0.999993 -0.003735 0.000000
vn -0.764665 0.000000 -0.644428
vn -0.763845 -0.002895 -0.645394
vn 0.002359 0.000322 -0.999997
vn 0.000000 0.000000 -1.000000
vn 0.765597 0.003846 -0.643310
vn 0.764667 0.000000 -0.644426
vn 0.999987 0.005018 -0.000000
vn 1.000000 0.000000 0.000000
vn 0.765597 0.003846 0.643309
vn 0.764667 0.000000 0.644426
vn 0.002359 0.000322 0.999997
vn 0.000000 0.000000 1.000000
vn -0.763845 -0.002895 0.645394
vn -0.764665 0.000000 0.644428
vn -0.999993 -0.003735 -0.000000
vn -1.000000 0.000000 0.000000
vn -0.121353 0.071574 -0.990026
vn 0.645481 -0.259700 -0.718269
vn 0.932293 -0.361704 -0.000000
vn 0.645481 -0.259700 0.718269
vn -0.121352 0.071574 0.990026
vn -0.727282 0.355103 0.587336
vn -0.899378 0.437172 0.000001
vn -0.727282 0.355103 -0.587336
vn -0.010720 0.104089 -0.994510
vn 0.023307 -0.717017 -0.696666
vn 0.028248 -0.999601 -0.000000
vn 0.023307 -0.717017 0.696666
vn -0.010720 0.104089 0.994510
vn -0.052278 0.795119 0.604196
vn -0.066110 0.997812 0.000000
vn -0.052278 0.795119 -0.604195
vn 0.121352 0.071574 -0.990026
vn 0.727282 0.355102 -0.587336
vn 0.899378 0.437171 -0.000001
vn 0.727282 0.355103 0.587336
vn 0.121351 0.071573 0.990026
vn -0.645481 -0.259699 0.718269
vn -0.932293 -0.361705 0.000000
vn -0.645481 -0.259699 -0.718269
vn 0.052278 0.795119 -0.604196
vn 0.010721 0.104089 -0.994510
vn 0.066110 0.997812 -0.000000
vn 0.052278 0.795119 0.604195
vn 0.010720 0.104089 0.994510
vn -0.023307 -0.717017 0.696666
vn -0.028248 -0.999601 0.000000
vn -0.023307 -0.717017 -0.696666
vn 0.000000 0.707107 -0.707107
vn 0.000000 0.000000 -1.000000
vn 0.000000 0.000000 -1.000000
vn 0.000000 0.707107 -0.707107
vn 0.000000 -0.707108 -0.707106
vn 0.000000 -0.707108 -0.707106
vn 0.000000 -1.000000 0.000000
vn 0.000000 -1.000000 0.000000
vn 0.000000 -0.707108 0.707106
vn 0.000000 -0.707108 0.707106
vn 0.000000 -0.000000 1.000000
vn 0.000000 -0.000000 1.000000
vn 0.000000 0.707107 0.707107
vn 0.000000 0.707107 0.707107
vn 0.000000 1.000000 0.000000
vn 0.000000 1.000000 0.000000
vn 0.000000 0.707107 -0.707107
vn 0.000000 0.000000 -1.000000
vn 0.000000 0.000000 -1.000000
vn 0.000000 0.707107 -0.707107
vn 0.000000 -0.707107 -0.707107
vn 0.000000 -0.707107 -0.707107
vn 0.000000 -1.000000 0.000000
vn 0.000000 -1.000000 0.000000
vn 0.000000 -0.707107 0.707107
vn 0.000000 -0.707107 0.707107
vn 0.000000 -0.000000 1.000000
vn 0.000000 -0.000000 1.000000
vn 0.000000 0.707107 0.707107
vn 0.000000 0.707107 0.707107
vn 0.000000 1.000000 0.000000
vn 0.000000 1.000000 0.000000
s 1
g Bin1
usemtl initialShadingGroup
f 15/15/1 10/10/2 4/4/3 13/13/4
f 3/3/5 4/4/3 6/24/6 5/19/7
s off
f 7/26/8 8/8/9 2/2/10 1/1/11
s 2
f 10/10/12 11/18/13 6/6/14 4/4/15
s 3
f 9/9/16 12/20/17 7/21/18 1/1/19
s off
f 1/1/20 2/2/21 10/10/22 9/9/23
s 2
f 2/2/24 8/25/25 11/18/13 10/10/12
s 1
f 9/9/26 16/16/27 14/14/28 3/3/5
f 13/13/4 4/4/3 3/3/5 14/14/28
f 9/9/26 10/10/2 15/15/1 16/16/27
s 3
f 5/23/29 12/20/17 9/9/16 3/3/30
s off
f 6/17/31 11/11/32 12/12/33 5/5/34
f 11/11/35 8/22/36 7/7/37 12/12/38
s 4
f 17/27/39 18/28/40 26/29/41 25/30/42
f 18/28/40 19/31/43 27/32/44 26/29/41
f 19/31/43 20/33/45 28/34/46 27/32/44
f 20/33/45 21/35/47 29/36/48 28/34/46
f 21/35/47 22/37/49 30/38/50 29/36/48
f 22/37/49 23/39/51 31/40/52 30/38/50
f 23/39/51 24/41/53 32/42/54 31/40/52
f 24/41/53 17/43/39 25/44/42 32/42/54
f 33/45/55 41/46/56 42/47/57 34/48/58
f 34/48/58 42/47/57 43/49/59 35/50/60
f 35/50/60 43/49/59 44/51/61 36/52/62
f 36/52/62 44/51/61 45/53/63 37/54/64
f 37/54/64 45/53/63 46/55/65 38/56/66
f 38/56/66 46/55/65 47/57/67 39/58/68
f 39/58/68 47/57/67 48/59/69 40/60/70
f 40/60/70 48/59/69 41/61/56 33/62/55
f 57/63/71 58/64/72 25/65/42 26/66/41
f 58/67/72 59/68/73 32/69/54 25/70/42
f 59/68/73 60/71/74 31/72/52 32/69/54
f 60/71/74 61/73/75 30/74/50 31/72/52
f 61/73/75 62/75/76 29/76/48 30/74/50
f 62/75/76 63/77/77 28/78/46 29/76/48
f 63/77/77 64/79/78 27/80/44 28/78/46
f 64/79/78 57/63/71 26/66/41 27/80/44
f 49/81/79 50/82/80 58/64/72 57/63/71
f 50/83/80 51/84/81 59/68/73 58/67/72
f 51/84/81 52/85/82 60/71/74 59/68/73
f 52/85/82 53/86/83 61/73/75 60/71/74
f 53/86/83 54/87/84 62/75/76 61/73/75
f 54/87/84 55/88/85 63/77/77 62/75/76
f 55/88/85 56/89/86 64/79/78 63/77/77
f 56/89/86 49/81/79 57/63/71 64/79/78
f 73/90/87 74/91/88 43/92/59 42/93/57
f 74/91/88 75/94/89 44/95/61 43/92/59
f 75/94/89 76/96/90 45/97/63 44/95/61
f 76/96/90 77/98/91 46/99/65 45/97/63
f 77/98/91 78/100/92 47/101/67 46/99/65
f 78/100/92 79/102/93 48/103/69 47/101/67
f 79/102/93 80/104/94 41/105/56 48/103/69
f 80/106/94 73/90/87 42/93/57 41/107/56
f 66/108/95 65/109/96 49/110/79 56/111/86
f 67/112/97 66/108/95 56/111/86 55/113/85
f 68/114/98 67/112/97 55/113/85 54/115/84
f 69/116/99 68/114/98 54/115/84 53/117/83
f 70/118/100 69/116/99 53/117/83 52/119/82
f 71/120/101 70/118/100 52/119/82 51/121/81
f 72/122/102 71/120/101 51/121/81 50/123/80
f 65/109/96 72/124/102 50/125/80 49/110/79
f 65/126/96 66/127/95 74/91/88 73/90/87
f 66/127/95 67/128/97 75/94/89 74/91/88
f 67/128/97 68/129/98 76/96/90 75/94/89
f 68/129/98 69/130/99 77/98/91 76/96/90
f 69/130/99 70/131/100 78/100/92 77/98/91
f 70/131/100 71/132/101 79/102/93 78/100/92
f 71/132/101 72/133/102 80/104/94 79/102/93
f 72/134/102 65/126/96 73/90/87 80/106/94
s 6
f 81/135/103 82/136/104 90/137/105 89/138/106
f 82/136/104 83/139/107 91/140/108 90/137/105
f 83/139/107 84/141/109 92/142/110 91/140/108
f 84/141/109 85/143/111 93/144/112 92/142/110
f 85/143/111 86/145/113 94/146/114 93/144/112
f 86/145/113 87/147/115 95/148/116 94/146/114
f 87/147/115 88/149/117 96/150/118 95/148/116
f 88/149/117 81/151/103 89/152/106 96/150/118
s 7
f 97/153/119 98/154/120 106/155/121 105/156/122
f 98/154/120 99/157/123 107/158/124 106/155/121
f 99/157/123 100/159/125 108/160/126 107/158/124
f 100/159/125 101/161/127 109/162/128 108/160/126
f 101/161/127 102/163/129 110/164/130 109/162/128
f 102/163/129 103/165/131 111/166/132 110/164/130
f 103/165/131 104/167/133 112/168/134 111/166/132
f 104/167/133 97/169/119 105/170/122 112/168/134
