# This file uses meters as units for non-parametric coordinates.

mtllib ForSale_Sign.mtl
g default
v -4.132680 0.000000 5.000000
v 5.867320 0.000000 5.000000
v -4.132680 230.932419 5.000000
v 5.867320 230.932419 5.000000
v -4.132680 230.932419 -5.000000
v 5.867320 230.932419 -5.000000
v -4.132680 0.000000 -5.000000
v 5.867320 0.000000 -5.000000
v -4.132680 209.344727 5.000000
v 5.867320 209.344727 5.000000
v 5.867320 209.344727 -5.000000
v -4.132680 209.344727 -5.000000
v -4.132680 218.436996 5.000000
v 5.867320 218.436996 5.000000
v 5.867320 218.436981 -5.000000
v -4.132680 218.436981 -5.000000
v -119.578675 209.344727 -5.000000
v -119.578675 209.344727 5.000000
v -119.578675 218.436996 5.000000
v -119.578675 218.436981 -5.000000
v 17.696761 209.344727 5.000000
v 17.696761 209.344727 -5.000000
v 17.696761 218.436981 -5.000000
v 17.696761 218.436996 5.000000
v -109.821000 54.227661 0.000000
v -14.261651 54.227661 0.000000
v -109.821000 207.903534 0.000000
v -14.261651 207.903534 0.000000
vt 0.289543 0.767733
vt 0.289543 0.738436
vt 0.326151 0.738436
vt 0.326151 0.767733
vt 0.392055 0.738436
vt 0.392056 0.767733
vt 0.355448 0.767733
vt 0.355448 0.738436
vt 0.714988 0.029030
vt 0.744285 0.028960
vt 0.745760 0.642272
vt 0.193593 0.767733
vt 0.823192 0.016985
vt 0.852489 0.017100
vt 0.850089 0.630410
vt 0.820792 0.630295
vt 0.228249 0.767733
vt 0.228249 0.738436
vt 0.254887 0.738436
vt 0.254887 0.767733
vt 0.819463 0.968513
vt 0.848760 0.968628
vt 0.730277 0.767725
vt 0.730276 0.738428
vt 0.573045 0.625052
vt 0.602642 0.623491
vt 0.604616 0.660451
vt 0.575021 0.662031
vt 0.573274 0.596303
vt 0.601257 0.596632
vt 0.580273 0.013793
vt 0.608101 0.014123
vt 0.636153 0.594814
vt 0.637555 0.621643
vt 0.204212 0.622107
vt 0.204466 0.593061
vt 0.819358 0.995150
vt 0.848655 0.995266
vt 0.716463 0.642343
vt 0.193593 0.738436
vt 0.238104 0.078687
vt 0.518063 0.078687
vt 0.518063 0.528910
vt 0.238104 0.528910
vn 0.000000 0.000000 1.000000
vn 0.000000 0.000000 1.000000
vn 0.000000 0.000000 1.000000
vn 0.000000 0.000000 1.000000
vn 0.000000 1.000000 0.000000
vn 0.000000 1.000000 0.000000
vn 0.000000 1.000000 0.000000
vn 0.000000 1.000000 0.000000
vn 1.000000 0.000000 0.000000
vn 1.000000 0.000000 0.000000
vn 1.000000 0.000000 0.000000
vn 1.000000 0.000000 0.000000
vn -1.000000 0.000000 0.000000
vn -1.000000 0.000000 0.000000
vn -1.000000 0.000000 0.000000
vn -1.000000 0.000000 0.000000
vn 0.000000 0.000000 1.000000
vn 0.000000 0.000000 1.000000
vn 0.000000 0.000000 1.000000
vn 0.000000 0.000000 1.000000
vn 1.000000 0.000000 0.000000
vn 1.000000 0.000000 0.000000
vn 1.000000 0.000000 0.000000
vn 1.000000 0.000000 0.000000
vn -1.000000 0.000000 0.000000
vn -1.000000 0.000000 0.000000
vn -1.000000 0.000000 0.000000
vn -1.000000 0.000000 0.000000
vn 1.000000 0.000000 0.000000
vn 1.000000 0.000000 0.000000
vn 1.000000 0.000000 0.000000
vn 1.000000 0.000000 0.000000
vn -1.000000 0.000000 0.000000
vn -1.000000 0.000000 0.000000
vn -1.000000 0.000000 0.000000
vn -1.000000 0.000000 0.000000
vn 0.000000 -1.000000 0.000000
vn 0.000000 -1.000000 0.000000
vn 0.000000 -1.000000 0.000000
vn 0.000000 -1.000000 0.000000
vn 0.000000 0.000000 1.000000
vn 0.000000 0.000000 1.000000
vn 0.000000 1.000000 -0.000002
vn 0.000000 1.000000 -0.000002
vn 0.000000 1.000000 -0.000002
vn 0.000000 1.000000 -0.000002
vn 0.000000 -1.000000 0.000000
vn 0.000000 -1.000000 0.000000
vn 0.000000 -1.000000 0.000000
vn 0.000000 -1.000000 0.000000
vn 0.000000 1.000000 -0.000002
vn 0.000000 1.000000 -0.000002
vn 0.000000 1.000000 -0.000002
vn 0.000000 1.000000 -0.000002
vn 0.000000 0.000000 1.000000
vn 0.000000 0.000000 1.000000
vn 0.000000 0.000000 1.000000
vn 0.000000 0.000000 1.000000
vn 0.000000 0.000000 1.000000
vn 0.000000 0.000000 1.000000
s 1
g ForSale_Sign
usemtl initialShadingGroup
f 13/25/1 14/26/2 4/27/3 3/28/4
s off
f 3/7/5 4/4/6 6/3/7 5/8/8
f 14/1/9 15/2/10 6/3/11 4/4/12
f 16/5/13 13/6/14 3/7/15 5/8/16
s 1
f 1/31/17 2/32/18 10/30/19 9/29/20
s off
f 2/9/21 8/10/22 11/11/23 10/39/24
f 7/13/25 1/14/26 9/15/27 12/16/28
s 1
f 9/29/20 10/30/19 14/26/2 13/25/1
s off
f 21/17/29 22/18/30 23/19/31 24/20/32
f 17/21/33 18/22/34 19/38/35 20/37/36
f 12/16/37 9/15/38 18/22/39 17/21/40
s 1
f 9/29/20 13/25/1 19/35/41 18/36/42
s off
f 13/6/43 16/5/44 20/24/45 19/23/46
f 10/12/47 11/40/48 22/18/49 21/17/50
f 15/2/51 14/1/52 24/20/53 23/19/54
s 1
f 14/26/2 10/30/19 21/33/55 24/34/56
s off
f 25/41/57 26/42/58 28/43/59 27/44/60
