# This file uses meters as units for non-parametric coordinates.

mtllib 3D_Environment_Bush_3.mtl
g default
v -75.933716 -1.074425 47.532467
v 75.708893 -1.074425 47.532463
v -78.732574 114.728271 49.332462
v 78.652534 114.728271 49.332462
v -78.732574 114.728271 -49.332458
v 78.652534 114.728271 -49.332458
v -75.933716 -1.074425 -47.532467
v 75.708893 -1.074425 -47.532467
v -99.824173 129.021179 0.000000
v 91.967987 39.074516 -66.987000
v 1.030766 -0.490540 -64.168823
v -96.016388 39.074516 -66.987000
v 92.207352 -0.490540 -0.000000
v -96.255737 -0.490540 -0.000000
v 1.030766 -0.490540 64.168823
v 91.967987 39.074516 66.987000
v 1.146450 129.021179 66.598816
v -96.016388 39.074516 66.987000
v 95.775772 129.021179 0.000000
v 1.146450 129.021179 -66.598816
v -12.044079 39.074516 97.672379
v -13.331833 152.146454 0.000000
v -12.044079 39.074516 -97.672379
v 123.899857 39.074516 0.000000
v -127.948250 39.074516 0.000000
vt 0.132995 0.098696
vt 0.525125 0.029930
vt 0.250619 0.257496
vt 0.474109 0.277535
vt 0.244722 0.421570
vt 0.126933 0.354466
vt 0.454962 0.434900
vt 0.582396 0.396103
vt 0.233103 0.595202
vt 0.011411 0.205958
vt 0.448337 0.603737
vt 0.714005 0.265841
vt 0.352443 0.123149
vt 0.338383 0.345376
vt 0.329243 0.537389
vt 0.608836 0.258748
vt 0.121284 0.214679
vt 0.374995 0.037753
vt 0.539578 0.168775
vt 0.364393 0.260940
vt 0.209168 0.138965
vt 0.502213 0.357167
vt 0.351645 0.428487
vt 0.207343 0.328987
vt 0.465337 0.540954
vt 0.679840 0.329852
vt 0.343550 0.601281
vt 0.217343 0.528313
vt 0.041121 0.274922
vt 0.658209 0.212978
vt 0.076749 0.160961
vt 0.609807 0.152240
vt 0.234902 0.043718
vn -0.462817 -0.624471 0.629156
vn 0.031880 -0.583716 0.811332
vn -0.031282 -0.000862 0.999510
vn -0.611094 -0.002337 0.791555
vn 0.472534 -0.585976 0.658288
vn 0.577393 -0.004851 0.816452
vn 0.491812 0.551738 0.673577
vn 0.031210 0.628988 0.776788
vn -0.502734 0.546207 0.670013
vn -0.031621 0.999500 -0.000000
vn -0.718449 0.695579 -0.000000
vn 0.676230 0.736690 -0.000000
vn 0.491812 0.551738 -0.673577
vn 0.031210 0.628988 -0.776788
vn -0.502734 0.546207 -0.670013
vn -0.031282 -0.000862 -0.999510
vn -0.611094 -0.002337 -0.791555
vn 0.577393 -0.004851 -0.816452
vn 0.472534 -0.585976 -0.658288
vn 0.031880 -0.583716 -0.811332
vn -0.462817 -0.624471 -0.629156
vn 0.817738 -0.575590 -0.000000
vn 0.999992 -0.003915 -0.000000
vn -0.796191 -0.605045 0.000000
vn -0.999999 -0.001330 0.000000
s 1
g pCube3
usemtl initialShadingGroup
f 1/33/1 15/18/2 21/13/3 18/21/4
f 15/18/2 2/2/5 16/19/6 21/13/3
f 21/13/3 16/19/6 4/4/7 17/20/8
f 18/21/4 21/13/3 17/20/8 3/3/9
f 3/3/9 17/20/8 22/14/10 9/24/11
f 17/20/8 4/4/7 19/22/12 22/14/10
f 22/14/10 19/22/12 6/7/13 20/23/14
f 9/24/11 22/14/10 20/23/14 5/5/15
f 5/5/15 20/23/14 23/15/16 12/28/17
f 20/23/14 6/7/13 10/25/18 23/15/16
f 23/15/16 10/25/18 8/11/19 11/27/20
f 12/28/17 23/15/16 11/27/20 7/9/21
f 2/32/5 13/30/22 24/16/23 16/19/6
f 13/30/22 8/12/19 10/26/18 24/16/23
f 24/16/23 10/26/18 6/8/13 19/22/12
f 16/19/6 24/16/23 19/22/12 4/4/7
f 7/10/21 14/31/24 25/17/25 12/29/17
f 14/31/24 1/1/1 18/21/4 25/17/25
f 25/17/25 18/21/4 3/3/9 9/24/11
f 12/29/17 25/17/25 9/24/11 5/6/15
