# This file uses meters as units for non-parametric coordinates.

mtllib 3D_Foundation_FloatingFloor.mtl
g default
v 115.695122 -14.793557 113.175407
v 115.695122 -14.793557 -113.175407
v 115.695122 -2.640971 113.175407
v 115.695122 -2.640971 -113.175407
v 107.714149 -2.640971 113.175407
v 107.714149 -2.640971 -113.175407
v 107.714149 -14.793557 113.175407
v 107.714149 -14.793557 -113.175407
v -115.933167 -14.793557 -107.891792
v 115.933167 -14.793557 -107.891792
v -115.933167 -2.640971 -107.891792
v 115.933167 -2.640971 -107.891792
v -115.933167 -2.640971 -116.108208
v 115.933167 -2.640971 -116.108208
v -115.933167 -14.793557 -116.108208
v 115.933167 -14.793557 -116.108208
v -115.933167 -14.793557 116.108208
v 115.933167 -14.793557 116.108208
v -115.933167 -2.640971 116.108208
v 115.933167 -2.640971 116.108208
v -115.933167 -2.640971 107.891792
v 115.933167 -2.640971 107.891792
v -115.933167 -14.793557 107.891792
v 115.933167 -14.793557 107.891792
v -107.714149 -14.793557 113.175407
v -107.714149 -14.793557 -113.175407
v -107.714149 -2.640971 113.175407
v -107.714149 -2.640971 -113.175407
v -115.695122 -2.640971 113.175407
v -115.695122 -2.640971 -113.175407
v -115.695122 -14.793557 113.175407
v -115.695122 -14.793557 -113.175407
v -113.340530 -21.565773 -86.091248
v 113.340530 -21.565773 -86.091248
v -113.340530 -15.112061 -86.091248
v 113.340530 -15.112061 -86.091248
v -113.340530 -15.112061 -93.908752
v 113.340530 -15.112061 -93.908752
v -113.340530 -21.565773 -93.908752
v 113.340530 -21.565773 -93.908752
v -113.340530 -21.565773 93.908752
v 113.340530 -21.565773 93.908752
v -113.340530 -15.112061 93.908752
v 113.340530 -15.112061 93.908752
v -113.340530 -15.112061 86.091248
v 113.340530 -15.112061 86.091248
v -113.340530 -21.565773 86.091248
v 113.340530 -21.565773 86.091248
v 28.908754 -14.699172 108.498611
v 28.908754 -14.699172 -108.498611
v 28.908754 -8.245460 108.498611
v 28.908754 -8.245460 -108.498611
v 21.091246 -8.245460 108.498611
v 21.091246 -8.245460 -108.498611
v 21.091246 -14.699172 108.498611
v 21.091246 -14.699172 -108.498611
v -76.091248 -14.699172 108.498611
v -76.091248 -14.699172 -108.498611
v -76.091248 -8.245460 108.498611
v -76.091248 -8.245460 -108.498611
v -83.908752 -8.245460 108.498611
v -83.908752 -8.245460 -108.498611
v -83.908752 -14.699172 108.498611
v -83.908752 -14.699172 -108.498611
v 83.908752 -14.699172 108.498611
v 83.908752 -14.699172 -108.498611
v 83.908752 -8.245460 108.498611
v 83.908752 -8.245460 -108.498611
v 76.091248 -8.245460 108.498611
v 76.091248 -8.245460 -108.498611
v 76.091248 -14.699172 108.498611
v 76.091248 -14.699172 -108.498611
v -21.091246 -14.699172 108.498611
v -21.091246 -14.699172 -108.498611
v -21.091246 -8.245460 108.498611
v -21.091246 -8.245460 -108.498611
v -28.908754 -8.245460 108.498611
v -28.908754 -8.245460 -108.498611
v -28.908754 -14.699172 108.498611
v -28.908754 -14.699172 -108.498611
v -9.668484 -2.402798 114.728249
v 115.003860 -2.402798 114.728249
v -9.668484 -0.046101 114.728249
v 115.003860 -0.046101 114.728249
v -9.668484 -0.046101 -114.728249
v 115.003860 -0.046101 -114.728249
v -9.668484 -2.402798 -114.728249
v 115.003860 -2.402798 -114.728249
vt 0.099030 0.041709
vt 0.892297 0.041708
vt 0.099030 0.084298
vt 0.892296 0.084298
vt 0.099030 0.112268
vt 0.892296 0.112268
vt 0.099030 0.154858
vt 0.892297 0.154858
vt 0.920267 0.041709
vt 0.920266 0.084298
vt 0.071061 0.041708
vt 0.071061 0.084299
vt 0.101756 0.185266
vt 0.914349 0.185268
vt 0.914349 0.227858
vt 0.101756 0.227857
vt 0.914349 0.256653
vt 0.101755 0.256652
vt 0.914349 0.299243
vt 0.101755 0.299242
vt 0.943146 0.185269
vt 0.943136 0.227854
vt 0.072958 0.185269
vt 0.072958 0.227855
vt 0.101756 0.185266
vt 0.914349 0.185268
vt 0.914349 0.227858
vt 0.101756 0.227857
vt 0.914349 0.256653
vt 0.101755 0.256652
vt 0.914349 0.299243
vt 0.101755 0.299242
vt 0.943146 0.185269
vt 0.943136 0.227854
vt 0.072958 0.185269
vt 0.072958 0.227855
vt 0.099030 0.041709
vt 0.892297 0.041708
vt 0.892296 0.084298
vt 0.099030 0.084298
vt 0.892296 0.112268
vt 0.099030 0.112268
vt 0.892297 0.154858
vt 0.099030 0.154858
vt 0.920267 0.041709
vt 0.920266 0.084298
vt 0.071061 0.041708
vt 0.071061 0.084299
vt 0.117449 0.417611
vt 0.911866 0.417613
vt 0.911866 0.440231
vt 0.117449 0.440229
vt 0.911865 0.467628
vt 0.117449 0.467626
vt 0.911865 0.490246
vt 0.117449 0.490243
vt 0.939268 0.417606
vt 0.939270 0.440229
vt 0.090048 0.417609
vt 0.090048 0.440231
vt 0.117449 0.417611
vt 0.911866 0.417613
vt 0.911866 0.440231
vt 0.117449 0.440229
vt 0.911865 0.467628
vt 0.117449 0.467626
vt 0.911865 0.490246
vt 0.117449 0.490244
vt 0.939268 0.417606
vt 0.939270 0.440229
vt 0.090048 0.417609
vt 0.090048 0.440231
vt 0.122066 0.320932
vt 0.882554 0.320933
vt 0.882553 0.343550
vt 0.122066 0.343551
vt 0.882553 0.370947
vt 0.122066 0.370949
vt 0.882553 0.393564
vt 0.122066 0.393567
vt 0.909944 0.320940
vt 0.909940 0.343552
vt 0.094667 0.320932
vt 0.094667 0.343552
vt 0.122066 0.320932
vt 0.882554 0.320933
vt 0.882553 0.343550
vt 0.122066 0.343551
vt 0.882553 0.370947
vt 0.122066 0.370949
vt 0.882553 0.393564
vt 0.122066 0.393567
vt 0.909944 0.320940
vt 0.909940 0.343552
vt 0.094667 0.320932
vt 0.094667 0.343552
vt 0.122066 0.320932
vt 0.882554 0.320933
vt 0.882553 0.343550
vt 0.122066 0.343551
vt 0.882553 0.370947
vt 0.122066 0.370949
vt 0.882553 0.393564
vt 0.122066 0.393567
vt 0.909944 0.320940
vt 0.909940 0.343552
vt 0.094667 0.320932
vt 0.094667 0.343552
vt 0.122066 0.320932
vt 0.882554 0.320933
vt 0.882553 0.343550
vt 0.122066 0.343551
vt 0.882553 0.370947
vt 0.122066 0.370949
vt 0.882553 0.393564
vt 0.122066 0.393567
vt 0.909944 0.320940
vt 0.909940 0.343552
vt 0.094667 0.320932
vt 0.094667 0.343552
vt 0.911383 0.550787
vt 0.909899 0.987720
vt 0.901597 0.987691
vt 0.902794 0.550758
vt 0.097511 0.984945
vt 0.099301 0.548007
vt 0.089208 0.984916
vt 0.090701 0.547978
vt 0.901526 0.995949
vt 0.097526 0.993203
vt 0.099671 0.539763
vt 0.902481 0.542509
vn 1.000000 0.000000 0.000000
vn 1.000000 0.000000 0.000000
vn 1.000000 0.000000 0.000000
vn 1.000000 0.000000 0.000000
vn 0.000000 1.000000 0.000000
vn 0.000000 1.000000 0.000000
vn 0.000000 1.000000 0.000000
vn 0.000000 1.000000 0.000000
vn -1.000000 0.000000 0.000000
vn -1.000000 0.000000 0.000000
vn -1.000000 0.000000 0.000000
vn -1.000000 0.000000 0.000000
vn 0.000000 0.000000 -1.000000
vn 0.000000 0.000000 -1.000000
vn 0.000000 0.000000 -1.000000
vn 0.000000 0.000000 -1.000000
vn 0.000000 0.000000 1.000000
vn 0.000000 0.000000 1.000000
vn 0.000000 0.000000 1.000000
vn 0.000000 0.000000 1.000000
vn 0.000000 0.000000 1.000000
vn 0.000000 0.000000 1.000000
vn 0.000000 0.000000 1.000000
vn 0.000000 0.000000 1.000000
vn 0.000000 1.000000 0.000000
vn 0.000000 1.000000 0.000000
vn 0.000000 1.000000 0.000000
vn 0.000000 1.000000 0.000000
vn 0.000000 0.000000 -1.000000
vn 0.000000 0.000000 -1.000000
vn 0.000000 0.000000 -1.000000
vn 0.000000 0.000000 -1.000000
vn 1.000000 0.000000 0.000000
vn 1.000000 0.000000 0.000000
vn 1.000000 0.000000 0.000000
vn 1.000000 0.000000 0.000000
vn -1.000000 0.000000 0.000000
vn -1.000000 0.000000 0.000000
vn -1.000000 0.000000 0.000000
vn -1.000000 0.000000 0.000000
vn 0.000000 0.000000 1.000000
vn 0.000000 0.000000 1.000000
vn 0.000000 0.000000 1.000000
vn 0.000000 0.000000 1.000000
vn 0.000000 1.000000 0.000000
vn 0.000000 1.000000 0.000000
vn 0.000000 1.000000 0.000000
vn 0.000000 1.000000 0.000000
vn 0.000000 0.000000 -1.000000
vn 0.000000 0.000000 -1.000000
vn 0.000000 0.000000 -1.000000
vn 0.000000 0.000000 -1.000000
vn 1.000000 0.000000 0.000000
vn 1.000000 0.000000 0.000000
vn 1.000000 0.000000 0.000000
vn 1.000000 0.000000 0.000000
vn -1.000000 0.000000 0.000000
vn -1.000000 0.000000 0.000000
vn -1.000000 0.000000 0.000000
vn -1.000000 0.000000 0.000000
vn 1.000000 0.000000 0.000000
vn 1.000000 0.000000 0.000000
vn 1.000000 0.000000 0.000000
vn 1.000000 0.000000 0.000000
vn 0.000000 1.000000 0.000000
vn 0.000000 1.000000 0.000000
vn 0.000000 1.000000 0.000000
vn 0.000000 1.000000 0.000000
vn -1.000000 0.000000 0.000000
vn -1.000000 0.000000 0.000000
vn -1.000000 0.000000 0.000000
vn -1.000000 0.000000 0.000000
vn 0.000000 0.000000 -1.000000
vn 0.000000 0.000000 -1.000000
vn 0.000000 0.000000 -1.000000
vn 0.000000 0.000000 -1.000000
vn 0.000000 0.000000 1.000000
vn 0.000000 0.000000 1.000000
vn 0.000000 0.000000 1.000000
vn 0.000000 0.000000 1.000000
vn 0.000000 0.000000 1.000000
vn 0.000000 0.000000 1.000000
vn 0.000000 0.000000 1.000000
vn 0.000000 0.000000 1.000000
vn 0.000000 1.000000 0.000000
vn 0.000000 1.000000 0.000000
vn 0.000000 1.000000 0.000000
vn 0.000000 1.000000 0.000000
vn 0.000000 0.000000 -1.000000
vn 0.000000 0.000000 -1.000000
vn 0.000000 0.000000 -1.000000
vn 0.000000 0.000000 -1.000000
vn 1.000000 0.000000 0.000000
vn 1.000000 0.000000 0.000000
vn 1.000000 0.000000 0.000000
vn 1.000000 0.000000 0.000000
vn -1.000000 0.000000 0.000000
vn -1.000000 0.000000 0.000000
vn -1.000000 0.000000 0.000000
vn -1.000000 0.000000 0.000000
vn 0.000000 0.000000 1.000000
vn 0.000000 0.000000 1.000000
vn 0.000000 0.000000 1.000000
vn 0.000000 0.000000 1.000000
vn 0.000000 1.000000 0.000000
vn 0.000000 1.000000 0.000000
vn 0.000000 1.000000 0.000000
vn 0.000000 1.000000 0.000000
vn 0.000000 0.000000 -1.000000
vn 0.000000 0.000000 -1.000000
vn 0.000000 0.000000 -1.000000
vn 0.000000 0.000000 -1.000000
vn 1.000000 0.000000 0.000000
vn 1.000000 0.000000 0.000000
vn 1.000000 0.000000 0.000000
vn 1.000000 0.000000 0.000000
vn -1.000000 0.000000 0.000000
vn -1.000000 0.000000 0.000000
vn -1.000000 0.000000 0.000000
vn -1.000000 0.000000 0.000000
vn 1.000000 0.000000 0.000000
vn 1.000000 0.000000 0.000000
vn 1.000000 0.000000 0.000000
vn 1.000000 0.000000 0.000000
vn 0.000000 1.000000 0.000000
vn 0.000000 1.000000 0.000000
vn 0.000000 1.000000 0.000000
vn 0.000000 1.000000 0.000000
vn -1.000000 0.000000 0.000000
vn -1.000000 0.000000 0.000000
vn -1.000000 0.000000 0.000000
vn -1.000000 0.000000 0.000000
vn 0.000000 0.000000 -1.000000
vn 0.000000 0.000000 -1.000000
vn 0.000000 0.000000 -1.000000
vn 0.000000 0.000000 -1.000000
vn 0.000000 0.000000 1.000000
vn 0.000000 0.000000 1.000000
vn 0.000000 0.000000 1.000000
vn 0.000000 0.000000 1.000000
vn 1.000000 0.000000 0.000000
vn 1.000000 0.000000 0.000000
vn 1.000000 0.000000 0.000000
vn 1.000000 0.000000 0.000000
vn 0.000000 1.000000 0.000000
vn 0.000000 1.000000 0.000000
vn 0.000000 1.000000 0.000000
vn 0.000000 1.000000 0.000000
vn -1.000000 0.000000 0.000000
vn -1.000000 0.000000 0.000000
vn -1.000000 0.000000 0.000000
vn -1.000000 0.000000 0.000000
vn 0.000000 0.000000 -1.000000
vn 0.000000 0.000000 -1.000000
vn 0.000000 0.000000 -1.000000
vn 0.000000 0.000000 -1.000000
vn 0.000000 0.000000 1.000000
vn 0.000000 0.000000 1.000000
vn 0.000000 0.000000 1.000000
vn 0.000000 0.000000 1.000000
vn 1.000000 0.000000 0.000000
vn 1.000000 0.000000 0.000000
vn 1.000000 0.000000 0.000000
vn 1.000000 0.000000 0.000000
vn 0.000000 1.000000 0.000000
vn 0.000000 1.000000 0.000000
vn 0.000000 1.000000 0.000000
vn 0.000000 1.000000 0.000000
vn -1.000000 0.000000 0.000000
vn -1.000000 0.000000 0.000000
vn -1.000000 0.000000 0.000000
vn -1.000000 0.000000 0.000000
vn 0.000000 0.000000 -1.000000
vn 0.000000 0.000000 -1.000000
vn 0.000000 0.000000 -1.000000
vn 0.000000 0.000000 -1.000000
vn 0.000000 0.000000 1.000000
vn 0.000000 0.000000 1.000000
vn 0.000000 0.000000 1.000000
vn 0.000000 0.000000 1.000000
vn 1.000000 0.000000 0.000000
vn 1.000000 0.000000 0.000000
vn 1.000000 0.000000 0.000000
vn 1.000000 0.000000 0.000000
vn 0.000000 1.000000 0.000000
vn 0.000000 1.000000 0.000000
vn 0.000000 1.000000 0.000000
vn 0.000000 1.000000 0.000000
vn -1.000000 0.000000 0.000000
vn -1.000000 0.000000 0.000000
vn -1.000000 0.000000 0.000000
vn -1.000000 0.000000 0.000000
vn 0.000000 0.000000 -1.000000
vn 0.000000 0.000000 -1.000000
vn 0.000000 0.000000 -1.000000
vn 0.000000 0.000000 -1.000000
vn 0.000000 0.000000 1.000000
vn 0.000000 0.000000 1.000000
vn 0.000000 0.000000 1.000000
vn 0.000000 0.000000 1.000000
vn 0.000000 0.000000 1.000000
vn 0.000000 0.000000 1.000000
vn 0.000000 0.000000 1.000000
vn 0.000000 0.000000 1.000000
vn 0.000000 1.000000 0.000000
vn 0.000000 1.000000 0.000000
vn 0.000000 1.000000 0.000000
vn 0.000000 1.000000 0.000000
vn 0.000000 0.000000 -1.000000
vn 0.000000 0.000000 -1.000000
vn 0.000000 0.000000 -1.000000
vn 0.000000 0.000000 -1.000000
vn 1.000000 0.000000 0.000000
vn 1.000000 0.000000 0.000000
vn 1.000000 0.000000 0.000000
vn 1.000000 0.000000 0.000000
vn -1.000000 0.000000 0.000000
vn -1.000000 0.000000 0.000000
vn -1.000000 0.000000 0.000000
vn -1.000000 0.000000 0.000000
s off
g FloatingFloor2
usemtl initialShadingGroup
f 1/1/1 2/2/2 4/4/3 3/3/4
f 3/3/5 4/4/6 6/6/7 5/5/8
f 5/5/9 6/6/10 8/8/11 7/7/12
f 2/2/13 8/9/14 6/10/15 4/4/16
f 7/11/17 1/1/18 3/3/19 5/12/20
f 9/13/21 10/14/22 12/15/23 11/16/24
f 11/16/25 12/15/26 14/17/27 13/18/28
f 13/18/29 14/17/30 16/19/31 15/20/32
f 10/14/33 16/21/34 14/22/35 12/15/36
f 15/23/37 9/13/38 11/16/39 13/24/40
f 17/25/41 18/26/42 20/27/43 19/28/44
f 19/28/45 20/27/46 22/29/47 21/30/48
f 21/30/49 22/29/50 24/31/51 23/32/52
f 18/26/53 24/33/54 22/34/55 20/27/56
f 23/35/57 17/25/58 19/28/59 21/36/60
f 25/37/61 26/38/62 28/39/63 27/40/64
f 27/40/65 28/39/66 30/41/67 29/42/68
f 29/42/69 30/41/70 32/43/71 31/44/72
f 26/38/73 32/45/74 30/46/75 28/39/76
f 31/47/77 25/37/78 27/40/79 29/48/80
f 33/49/81 34/50/82 36/51/83 35/52/84
f 35/52/85 36/51/86 38/53/87 37/54/88
f 37/54/89 38/53/90 40/55/91 39/56/92
f 34/50/93 40/57/94 38/58/95 36/51/96
f 39/59/97 33/49/98 35/52/99 37/60/100
f 41/61/101 42/62/102 44/63/103 43/64/104
f 43/64/105 44/63/106 46/65/107 45/66/108
f 45/66/109 46/65/110 48/67/111 47/68/112
f 42/62/113 48/69/114 46/70/115 44/63/116
f 47/71/117 41/61/118 43/64/119 45/72/120
f 49/73/121 50/74/122 52/75/123 51/76/124
f 51/76/125 52/75/126 54/77/127 53/78/128
f 53/78/129 54/77/130 56/79/131 55/80/132
f 50/74/133 56/81/134 54/82/135 52/75/136
f 55/83/137 49/73/138 51/76/139 53/84/140
f 57/85/141 58/86/142 60/87/143 59/88/144
f 59/88/145 60/87/146 62/89/147 61/90/148
f 61/90/149 62/89/150 64/91/151 63/92/152
f 58/86/153 64/93/154 62/94/155 60/87/156
f 63/95/157 57/85/158 59/88/159 61/96/160
f 65/97/161 66/98/162 68/99/163 67/100/164
f 67/100/165 68/99/166 70/101/167 69/102/168
f 69/102/169 70/101/170 72/103/171 71/104/172
f 66/98/173 72/105/174 70/106/175 68/99/176
f 71/107/177 65/97/178 67/100/179 69/108/180
f 73/109/181 74/110/182 76/111/183 75/112/184
f 75/112/185 76/111/186 78/113/187 77/114/188
f 77/114/189 78/113/190 80/115/191 79/116/192
f 74/110/193 80/117/194 78/118/195 76/111/196
f 79/119/197 73/109/198 75/112/199 77/120/200
f 81/121/201 82/122/202 84/123/203 83/124/204
f 83/124/205 84/123/206 86/125/207 85/126/208
f 85/126/209 86/125/210 88/127/211 87/128/212
f 82/129/213 88/130/214 86/125/215 84/123/216
f 87/131/217 81/132/218 83/124/219 85/126/220
