# This file uses meters as units for non-parametric coordinates.

mtllib 3D_Tile_SoilHole.mtl
g default
v -250.000000 0.000000 250.000000
v 250.000000 0.000000 250.000000
v -250.000000 0.000000 -250.000000
v 250.000000 0.000000 -250.000000
v -116.666489 0.000000 116.666489
v 116.666862 0.000000 116.666489
v -116.666489 0.000000 -116.666862
v 116.666862 0.000000 -116.666862
v -116.666489 -44.839661 -116.666862
v 116.666862 -44.839661 -116.666862
v -116.666489 -44.839661 116.666489
v 116.666862 -44.839661 116.666489
vt 0.008260 0.370207
vt 0.631771 0.370207
vt 0.008260 0.993718
vt 0.631771 0.993718
vt 0.647237 0.010508
vt 0.994123 0.066423
vt 0.591322 0.357395
vt 0.938209 0.413310
vt 0.938208 0.357395
vt 0.647236 0.357394
vt 0.647238 0.066424
vt 0.938211 0.066424
vt 0.174530 0.827449
vt 0.465501 0.827449
vt 0.174530 0.536477
vt 0.465501 0.536477
vt 0.938208 0.010508
vt 0.591321 0.066423
vt 0.994124 0.357394
vt 0.647238 0.413310
vn 0.000000 1.000000 0.000000
vn 0.000000 1.000000 0.000000
vn 0.000000 1.000000 0.000000
vn 0.000000 1.000000 0.000000
vn 0.000000 1.000000 0.000000
vn 0.000000 1.000000 0.000000
vn 0.000000 1.000000 0.000000
vn 0.000000 1.000000 0.000000
vn 0.000000 1.000000 0.000000
vn 0.000000 1.000000 0.000000
vn 0.000000 0.000000 1.000000
vn 0.000000 0.000000 1.000000
vn 0.000000 0.000000 1.000000
vn 0.000000 0.000000 1.000000
vn 1.000000 0.000000 0.000000
vn 1.000000 0.000000 0.000000
vn 1.000000 0.000000 0.000000
vn 1.000000 0.000000 0.000000
vn 0.000000 0.000000 -1.000000
vn 0.000000 0.000000 -1.000000
vn 0.000000 0.000000 -1.000000
vn 0.000000 0.000000 -1.000000
vn -1.000000 0.000000 0.000000
vn -1.000000 0.000000 0.000000
vn -1.000000 0.000000 0.000000
vn -1.000000 0.000000 0.000000
vn 0.000000 1.000000 0.000000
vn 0.000000 1.000000 0.000000
s 1
g SoilTile
usemtl initialShadingGroup
f 5/15/1 7/13/2 3/3/3 1/1/4
f 6/16/5 5/15/1 1/1/4 2/2/6
s off
f 10/9/7 9/10/8 11/11/9 12/12/10
f 8/8/11 7/20/12 9/10/13 10/9/14
f 7/7/15 5/18/16 11/11/17 9/10/18
f 5/5/19 6/17/20 12/12/21 11/11/22
f 6/6/23 8/19/24 10/9/25 12/12/26
s 1
f 2/2/6 4/4/27 8/14/28 6/16/5
f 4/4/27 3/3/3 7/13/2 8/14/28
