# This file uses meters as units for non-parametric coordinates.

mtllib 3D_Environment_FireHydrant.mtl
g default
v 9.252042 4.462579 -8.439912
v -0.000001 4.462579 -12.272232
v -9.252043 4.462579 -8.439912
v -13.084364 4.462579 0.812130
v -9.252043 4.462579 10.064173
v -0.000001 4.462579 13.896493
v 9.252042 4.462579 10.064175
v 13.084363 4.462579 0.812130
v 11.619183 -0.182034 -10.807055
v -0.000000 -0.182034 -15.619875
v -0.000000 4.161480 -15.358103
v 11.434079 4.161480 -10.621949
v -11.619187 -0.182034 -10.807055
v -11.434081 4.161480 -10.621949
v -16.432005 -0.182034 0.812130
v -16.170233 4.161480 0.812130
v -11.619187 -0.182034 12.431316
v -11.434081 4.161480 12.246210
v -0.000001 -0.182034 17.244137
v -0.000001 4.161480 16.982365
v 11.619183 -0.182034 12.431317
v 11.434079 4.161480 12.246214
v 16.432009 -0.182034 0.812130
v 16.170233 4.161480 0.812130
v 9.252042 48.389908 -8.439912
v -0.000001 48.389908 -12.272232
v -9.252043 48.389908 -8.439912
v -13.084364 48.389908 0.812130
v -9.252043 48.389908 10.064175
v -0.000001 48.389908 13.896493
v 9.252042 48.389908 10.064175
v 13.084363 48.389908 0.812130
v 11.261476 48.843418 -10.449345
v -0.000000 48.843418 -15.114004
v -11.261476 48.843418 -10.449345
v -15.926135 48.843418 0.812129
v -11.261476 48.843418 12.073606
v -0.000003 48.843418 16.738266
v 11.261476 48.843418 12.073606
v 15.926139 48.843418 0.812128
v 11.261476 52.236980 -10.449345
v -0.000001 52.236977 -15.114004
v -11.261476 52.236977 -10.449345
v -15.926135 52.236977 0.812130
v -11.261476 52.236977 12.073606
v -0.000005 52.236980 16.738266
v 11.261476 52.236980 12.073606
v 15.926139 52.236980 0.812128
v 9.339072 52.690475 -8.526943
v -0.000001 52.690468 -12.395320
v -9.339074 52.690475 -8.526944
v -13.207441 52.690475 0.812131
v -9.339075 52.690468 10.151208
v -0.000006 52.690475 14.019573
v 9.339074 52.690475 10.151204
v 13.207450 52.690475 0.812129
v 7.860544 59.710754 -7.048429
v -0.000006 59.710754 -10.304391
v -7.860565 59.710754 -7.048437
v -11.116516 59.710754 0.812129
v -7.860570 59.710754 8.672693
v -0.000017 59.710754 11.928624
v 7.860542 59.710754 8.672671
v 11.116488 59.710754 0.812124
v 4.965137 64.580658 -4.153037
v -0.000012 64.580658 -6.209628
v -4.965172 64.580658 -4.153037
v -7.021763 64.580658 0.812120
v -4.965172 64.580658 5.777271
v -0.000014 64.580658 7.833863
v 4.965137 64.580658 5.777271
v 7.021729 64.580658 0.812120
v 2.008118 66.141991 -1.196019
v -0.000015 66.141991 -2.027787
v -2.008153 66.141991 -1.196019
v -2.839921 66.141991 0.812119
v -2.008153 66.141991 2.820253
v -0.000016 66.141991 3.652021
v 2.008119 66.141991 2.820253
v 2.839886 66.141991 0.812118
v 1.918942 69.541405 -1.106842
v -0.000016 69.541397 -1.901681
v -1.918979 69.541397 -1.106844
v -2.713821 69.541397 0.812119
v -1.918980 69.541405 2.731079
v -0.000016 69.541405 3.525917
v 1.918943 69.541405 2.731079
v 2.713784 69.541405 0.812118
v -0.000016 69.541397 0.812118
v 4.919257 41.920399 6.564452
v -0.000001 43.958019 6.564452
v -4.919259 41.920399 6.564452
v -6.956882 37.001141 6.564452
v -4.919259 32.081882 6.564452
v -0.000001 30.044260 6.564452
v 4.919257 32.081882 6.564452
v 6.956881 37.001141 6.564452
v 4.919257 41.920399 20.478214
v -0.000001 43.958019 20.478214
v -4.919259 41.920399 20.478214
v -6.956882 37.001141 20.478214
v -4.919259 32.081882 20.478214
v -0.000001 30.044260 20.478214
v 4.919257 32.081882 20.478214
v 6.956881 37.001141 20.478214
v -0.000001 37.001141 20.478214
v 8.922047 31.914989 -2.877313
v 8.922047 33.443203 0.812130
v 8.922047 31.914989 4.501574
v 8.922047 28.225548 6.029791
v 8.922047 24.536100 4.501574
v 8.922047 23.007887 0.812130
v 8.922047 24.536100 -2.877313
v 8.922047 28.225548 -4.405531
v 17.581221 31.914989 -2.877313
v 17.581221 33.443203 0.812130
v 17.581221 31.914989 4.501574
v 17.581221 28.225548 6.029791
v 17.581221 24.536100 4.501574
v 17.581221 23.007887 0.812130
v 17.581221 24.536100 -2.877313
v 17.581221 28.225548 -4.405531
v 17.581221 28.225548 0.812130
v -8.922049 31.914989 -2.877313
v -8.922049 33.443203 0.812130
v -8.922049 31.914989 4.501574
v -8.922049 28.225548 6.029791
v -8.922049 24.536100 4.501574
v -8.922049 23.007887 0.812130
v -8.922049 24.536100 -2.877313
v -8.922049 28.225548 -4.405531
v -17.581223 31.914989 -2.877313
v -17.581223 33.443203 0.812130
v -17.581223 31.914989 4.501574
v -17.581223 28.225548 6.029791
v -17.581223 24.536100 4.501574
v -17.581223 23.007887 0.812130
v -17.581223 24.536100 -2.877313
v -17.581223 28.225548 -4.405531
v -17.581223 28.225548 0.812130
vt 0.938149 0.221166
vt 0.858789 0.259742
vt 0.777344 0.230694
vt 0.741991 0.153243
vt 0.770133 0.071941
vt 0.846596 0.032544
vt 0.928736 0.057803
vt 0.968186 0.134756
vt 0.770423 0.391317
vt 0.877419 0.391449
vt 0.010606 0.428742
vt 0.959001 0.239569
vt 0.117446 0.391205
vt 0.117478 0.428636
vt 0.224709 0.391138
vt 0.224715 0.428796
vt 0.333319 0.390920
vt 0.333325 0.429011
vt 0.443188 0.390745
vt 0.443192 0.429182
vt 0.553951 0.390788
vt 0.553945 0.429137
vt 0.663352 0.391083
vt 0.663343 0.428852
vt 0.008235 0.003618
vt 0.095224 0.003618
vt 0.095224 0.385190
vt 0.008235 0.385190
vt 0.182213 0.003618
vt 0.182213 0.385190
vt 0.269202 0.003618
vt 0.269202 0.385190
vt 0.356191 0.003618
vt 0.356191 0.385190
vt 0.443180 0.003618
vt 0.443180 0.385190
vt 0.530169 0.003618
vt 0.530169 0.385190
vt 0.617158 0.003618
vt 0.617158 0.385190
vt 0.704147 0.003618
vt 0.704147 0.385190
vt 0.752478 0.908891
vt 0.815132 0.967827
vt 0.806258 0.990898
vt 0.729994 0.919160
vt 0.901131 0.966065
vt 0.910939 0.988754
vt 0.961000 0.904560
vt 0.984548 0.913879
vt 0.958794 0.814620
vt 0.982376 0.803848
vt 0.892269 0.754080
vt 0.900640 0.730181
vt 0.806584 0.759078
vt 0.795852 0.736812
vt 0.748961 0.822943
vt 0.725712 0.814547
vt 0.649245 0.436190
vt 0.755123 0.435183
vt 0.755403 0.464660
vt 0.649525 0.465667
vt 0.860999 0.434175
vt 0.861280 0.463652
vt 0.013978 0.442312
vt 0.119857 0.441268
vt 0.120145 0.470745
vt 0.014269 0.471789
vt 0.225736 0.440246
vt 0.226020 0.469722
vt 0.331613 0.439223
vt 0.331896 0.468699
vt 0.437491 0.438208
vt 0.437772 0.467685
vt 0.543368 0.437199
vt 0.543649 0.466675
vt 0.721972 0.652890
vt 0.721972 0.548301
vt 0.743872 0.557228
vt 0.743872 0.643964
vt 0.795088 0.473515
vt 0.804507 0.495208
vt 0.899652 0.471153
vt 0.891219 0.493248
vt 0.976054 0.542581
vt 0.954576 0.552481
vt 0.980932 0.647365
vt 0.958153 0.638946
vt 0.905584 0.728103
vt 0.895661 0.705250
vt 0.795168 0.728029
vt 0.804573 0.705642
vt 0.347379 0.550225
vt 0.365181 0.641880
vt 0.303256 0.643364
vt 0.285636 0.577795
vt 0.348815 0.729737
vt 0.291339 0.708444
vt 0.067638 0.812659
vt 0.123156 0.766572
vt 0.016129 0.723344
vt 0.078400 0.702305
vt 0.005547 0.632255
vt 0.066609 0.635493
vt 0.027922 0.546824
vt 0.083116 0.571896
vt 0.291585 0.471603
vt 0.239371 0.518016
vt 0.252493 0.645353
vt 0.239454 0.603059
vt 0.244174 0.687933
vt 0.160568 0.716953
vt 0.127243 0.680076
vt 0.117178 0.637053
vt 0.128362 0.595433
vt 0.204787 0.568529
vt 0.212774 0.647512
vt 0.205722 0.626005
vt 0.208792 0.669369
vt 0.178570 0.674749
vt 0.162538 0.659199
vt 0.156785 0.637447
vt 0.162131 0.616108
vt 0.189007 0.611344
vt 0.156469 0.987308
vt 0.138028 0.987308
vt 0.138028 0.957798
vt 0.205198 0.953924
vt 0.119578 0.987308
vt 0.119578 0.957798
vt 0.212001 0.970700
vt 0.101080 0.987308
vt 0.101080 0.957798
vt 0.082528 0.987308
vt 0.082528 0.957798
vt 0.188287 0.994088
vt 0.064001 0.987308
vt 0.064001 0.957798
vt 0.045509 0.987308
vt 0.045509 0.957798
vt 0.164869 0.970414
vt 0.027042 0.987308
vt 0.027042 0.957798
vt 0.008597 0.987308
vt 0.008597 0.957798
vt 0.188449 0.946923
vt 0.188404 0.970532
vt 0.008293 0.817656
vt 0.050716 0.817656
vt 0.051428 0.936089
vt 0.006493 0.935377
vt 0.096817 0.816839
vt 0.097078 0.936818
vt 0.143302 0.816356
vt 0.143337 0.937440
vt 0.190070 0.816105
vt 0.189986 0.937855
vt 0.236842 0.816093
vt 0.236799 0.938081
vt 0.283661 0.816117
vt 0.283661 0.938239
vt 0.330430 0.816137
vt 0.330430 0.938219
vt 0.377153 0.816159
vt 0.377153 0.938197
vt 0.545358 0.726259
vt 0.542943 0.786642
vt 0.500953 0.767248
vt 0.484976 0.723844
vt 0.504369 0.681854
vt 0.547773 0.665877
vt 0.589763 0.685270
vt 0.605740 0.728675
vt 0.586347 0.770664
vt 0.682870 0.984718
vt 0.648539 0.984718
vt 0.648539 0.909609
vt 0.682870 0.909609
vt 0.613634 0.984718
vt 0.613634 0.909609
vt 0.578767 0.984718
vt 0.578767 0.909609
vt 0.543797 0.984718
vt 0.543797 0.909609
vt 0.508830 0.984718
vt 0.508830 0.909609
vt 0.474047 0.984718
vt 0.474047 0.909609
vt 0.439495 0.984718
vt 0.439495 0.909609
vt 0.404960 0.984718
vt 0.404960 0.909609
vt 0.592149 0.571373
vt 0.637436 0.573185
vt 0.622891 0.604677
vt 0.590338 0.616660
vt 0.558846 0.602115
vt 0.546862 0.569562
vt 0.561408 0.538070
vt 0.593961 0.526087
vt 0.625452 0.540632
vt 0.680306 0.826293
vt 0.680306 0.901510
vt 0.645617 0.901510
vt 0.645617 0.826293
vt 0.610929 0.901510
vt 0.610929 0.826293
vt 0.576240 0.901510
vt 0.576240 0.826293
vt 0.541550 0.901510
vt 0.541550 0.826293
vt 0.506862 0.901510
vt 0.506862 0.826293
vt 0.472173 0.901510
vt 0.472173 0.826293
vt 0.437485 0.901510
vt 0.437485 0.826293
vt 0.402796 0.901510
vt 0.402796 0.826293
vt 0.496957 0.571943
vt 0.496957 0.526620
vt 0.529005 0.539895
vt 0.542279 0.571943
vt 0.451634 0.571943
vt 0.464908 0.539895
vt 0.496957 0.617266
vt 0.464908 0.603991
vt 0.529005 0.603991
vt 0.160048 0.561649
vt 0.177201 0.601383
vt 0.214587 0.724149
vt 0.194591 0.685247
vt 0.125958 0.515739
vt 0.252172 0.768055
vt 0.077587 0.474216
vt 0.303897 0.806484
vt 0.995678 0.132883
vt 0.770423 0.428615
vt 0.945907 0.037256
vt 0.844236 0.006050
vt 0.750050 0.054537
vt 0.715562 0.154525
vt 0.759336 0.250281
vt 0.860213 0.286826
vt 0.009616 0.391283
vt 0.876438 0.428575
vt 0.156469 0.957798
vt 0.171776 0.953823
vt 0.171695 0.987080
vt 0.204976 0.987307
vn 0.705826 0.060159 -0.705826
vn -0.000000 0.060159 -0.998189
vn -0.000000 0.060159 -0.998189
vn 0.705826 0.060159 -0.705826
vn -0.705826 0.060159 -0.705826
vn -0.705826 0.060159 -0.705826
vn -0.998189 0.060159 0.000000
vn -0.998189 0.060159 -0.000000
vn -0.705826 0.060159 0.705826
vn -0.705826 0.060159 0.705826
vn -0.000000 0.060159 0.998189
vn -0.000000 0.060159 0.998189
vn 0.705826 0.060159 0.705826
vn 0.705826 0.060159 0.705826
vn 0.998189 0.060159 0.000000
vn 0.998189 0.060159 -0.000000
vn 0.000000 0.995273 -0.097112
vn 0.068669 0.995273 -0.068669
vn 0.068669 0.995274 -0.068669
vn 0.000000 0.995273 -0.097112
vn -0.068669 0.995273 -0.068669
vn -0.068669 0.995273 -0.068669
vn -0.097112 0.995273 -0.000000
vn -0.097112 0.995273 -0.000000
vn -0.068669 0.995273 0.068669
vn -0.068669 0.995273 0.068669
vn -0.000000 0.995273 0.097112
vn -0.000000 0.995273 0.097112
vn 0.068669 0.995273 0.068669
vn 0.068669 0.995273 0.068669
vn 0.097112 0.995273 0.000000
vn 0.097112 0.995273 -0.000000
vn 0.707107 0.000000 -0.707107
vn 0.000000 0.000000 -1.000000
vn 0.000000 0.000000 -1.000000
vn 0.707107 0.000000 -0.707107
vn -0.707107 0.000000 -0.707107
vn -0.707107 0.000000 -0.707107
vn -1.000000 -0.000000 0.000000
vn -1.000000 -0.000000 0.000000
vn -0.707107 -0.000000 0.707107
vn -0.707107 -0.000000 0.707107
vn -0.000000 -0.000000 1.000000
vn -0.000000 -0.000000 1.000000
vn 0.707107 0.000000 0.707107
vn 0.707107 0.000000 0.707107
vn 1.000000 0.000000 0.000000
vn 1.000000 0.000000 0.000000
vn 0.111435 -0.987504 -0.111435
vn -0.000000 -0.987504 -0.157593
vn 0.000000 -0.987504 -0.157593
vn 0.111435 -0.987504 -0.111435
vn -0.111435 -0.987504 -0.111436
vn -0.111435 -0.987504 -0.111436
vn -0.157593 -0.987504 0.000000
vn -0.157593 -0.987504 -0.000000
vn -0.111435 -0.987504 0.111436
vn -0.111435 -0.987504 0.111436
vn 0.000000 -0.987504 0.157593
vn -0.000000 -0.987504 0.157593
vn 0.111435 -0.987504 0.111435
vn 0.111435 -0.987504 0.111435
vn 0.157593 -0.987504 -0.000000
vn 0.157593 -0.987504 -0.000000
vn 0.707106 0.000000 -0.707107
vn 0.000000 0.000000 -1.000000
vn 0.000000 0.000000 -1.000000
vn 0.707106 0.000000 -0.707107
vn -0.707107 -0.000000 -0.707107
vn -0.707107 -0.000000 -0.707107
vn -1.000000 0.000000 -0.000000
vn -1.000000 0.000000 0.000000
vn -0.707107 -0.000000 0.707106
vn -0.707107 -0.000000 0.707106
vn 0.000000 0.000000 1.000000
vn 0.000000 0.000000 1.000000
vn 0.707106 0.000000 0.707107
vn 0.707106 0.000000 0.707107
vn 1.000000 -0.000000 0.000000
vn 1.000000 -0.000000 -0.000000
vn 0.116342 0.986372 -0.116343
vn -0.000000 0.986372 -0.164533
vn -0.000000 0.986372 -0.164533
vn 0.116342 0.986372 -0.116343
vn -0.116343 0.986371 -0.116343
vn -0.116343 0.986372 -0.116343
vn -0.164534 0.986372 -0.000000
vn -0.164534 0.986371 -0.000000
vn -0.116343 0.986372 0.116342
vn -0.116343 0.986372 0.116342
vn -0.000000 0.986372 0.164533
vn -0.000000 0.986372 0.164533
vn 0.116343 0.986372 0.116343
vn 0.116342 0.986372 0.116343
vn 0.164533 0.986372 0.000000
vn 0.164533 0.986372 0.000000
vn 0.677687 0.285451 -0.677686
vn 0.000000 0.285449 -0.958394
vn 0.000000 0.414073 -0.910244
vn 0.643639 0.414074 -0.643639
vn -0.677687 0.285449 -0.677687
vn -0.643640 0.414072 -0.643640
vn -0.958394 0.285449 0.000000
vn -0.910244 0.414072 0.000000
vn -0.677686 0.285449 0.677687
vn -0.643639 0.414073 0.643640
vn 0.000001 0.285452 0.958393
vn 0.000000 0.414074 0.910243
vn 0.677686 0.285453 0.677686
vn 0.643639 0.414075 0.643639
vn 0.958393 0.285453 0.000000
vn 0.910243 0.414075 -0.000000
vn 0.000000 0.717771 -0.696280
vn 0.492344 0.717771 -0.492344
vn -0.492344 0.717771 -0.492344
vn -0.696280 0.717771 -0.000001
vn -0.492344 0.717771 0.492343
vn 0.000001 0.717771 0.696279
vn 0.492344 0.717771 0.492344
vn 0.696279 0.717771 -0.000000
vn -0.000000 0.936833 -0.349777
vn 0.247328 0.936834 -0.247328
vn -0.247328 0.936834 -0.247328
vn -0.349777 0.936833 -0.000001
vn -0.247328 0.936834 0.247328
vn -0.000000 0.936833 0.349777
vn 0.247328 0.936834 0.247328
vn 0.349777 0.936833 -0.000000
vn 0.706622 0.037072 -0.706620
vn 0.000001 0.037072 -0.999313
vn 0.000001 0.037072 -0.999313
vn 0.706622 0.037072 -0.706619
vn -0.706620 0.037071 -0.706622
vn -0.706620 0.037071 -0.706622
vn -0.999313 0.037071 -0.000000
vn -0.999313 0.037071 0.000000
vn -0.706620 0.037071 0.706621
vn -0.706620 0.037071 0.706622
vn 0.000000 0.037071 0.999313
vn 0.000000 0.037071 0.999313
vn 0.706621 0.037072 0.706620
vn 0.706621 0.037072 0.706621
vn 0.999313 0.037071 -0.000000
vn 0.999313 0.037071 -0.000000
vn -0.000001 1.000000 -0.000001
vn 0.000000 1.000000 -0.000002
vn 0.000001 1.000000 -0.000002
vn -0.000001 1.000000 -0.000003
vn -0.000003 1.000000 -0.000001
vn -0.000002 1.000000 -0.000004
vn -0.000002 1.000000 0.000001
vn -0.000003 1.000000 0.000003
vn 0.000000 1.000000 -0.000002
vn 0.707107 0.707107 0.000000
vn 0.000000 1.000000 0.000000
vn 0.000000 1.000000 0.000000
vn 0.707107 0.707107 0.000000
vn -0.707107 0.707107 0.000000
vn -0.707107 0.707107 0.000000
vn -1.000000 0.000000 0.000000
vn -1.000000 0.000000 0.000000
vn -0.707107 -0.707107 0.000000
vn -0.707107 -0.707107 0.000000
vn -0.000000 -1.000000 0.000000
vn -0.000000 -1.000000 0.000000
vn 0.707107 -0.707107 0.000000
vn 0.707107 -0.707107 0.000000
vn 1.000000 0.000000 0.000000
vn 1.000000 0.000000 0.000000
vn 0.000000 0.000000 1.000000
vn 0.000000 0.000000 1.000000
vn 0.000000 0.000000 1.000000
vn 0.000000 0.000000 1.000000
vn 0.000000 0.000000 1.000000
vn 0.000000 0.000000 1.000000
vn 0.000000 0.000000 1.000000
vn 0.000000 0.000000 1.000000
vn 0.000000 0.000000 1.000000
vn 0.000000 0.707107 -0.707106
vn 0.000000 1.000000 0.000000
vn 0.000000 1.000000 0.000000
vn 0.000000 0.707107 -0.707106
vn 0.000000 0.707107 0.707106
vn 0.000000 0.707107 0.707106
vn 0.000000 0.000000 1.000000
vn 0.000000 0.000000 1.000000
vn 0.000000 -0.707107 0.707107
vn 0.000000 -0.707107 0.707107
vn 0.000000 -1.000000 0.000000
vn 0.000000 -1.000000 0.000000
vn 0.000000 -0.707107 -0.707107
vn 0.000000 -0.707107 -0.707107
vn 0.000000 0.000000 -1.000000
vn 0.000000 0.000000 -1.000000
vn 1.000000 0.000000 0.000000
vn 1.000000 0.000000 0.000000
vn 1.000000 0.000000 0.000000
vn 1.000000 0.000000 0.000000
vn 1.000000 0.000000 0.000000
vn 1.000000 0.000000 0.000000
vn 1.000000 0.000000 0.000000
vn 1.000000 0.000000 0.000000
vn 1.000000 0.000000 0.000000
vn 0.000000 0.707107 -0.707106
vn 0.000000 0.707107 -0.707106
vn 0.000000 1.000000 0.000000
vn 0.000000 1.000000 0.000000
vn 0.000000 0.707107 0.707106
vn 0.000000 0.707107 0.707106
vn 0.000000 0.000000 1.000000
vn 0.000000 0.000000 1.000000
vn 0.000000 -0.707107 0.707107
vn 0.000000 -0.707107 0.707107
vn 0.000000 -1.000000 0.000000
vn 0.000000 -1.000000 0.000000
vn 0.000000 -0.707107 -0.707107
vn 0.000000 -0.707107 -0.707107
vn 0.000000 0.000000 -1.000000
vn 0.000000 0.000000 -1.000000
vn -1.000000 0.000000 0.000000
vn -1.000000 0.000000 0.000000
vn -1.000000 0.000000 0.000000
vn -1.000000 0.000000 0.000000
vn -1.000000 0.000000 0.000000
vn -1.000000 0.000000 0.000000
vn -1.000000 0.000000 0.000000
vn -1.000000 0.000000 0.000000
vn -1.000000 0.000000 0.000000
s 1
g Fire_Hydrant
usemtl initialShadingGroup
f 9/9/1 10/10/2 11/246/3 12/238/4
f 10/245/2 13/13/5 14/14/6 11/11/3
f 13/13/5 15/15/7 16/16/8 14/14/6
f 15/15/7 17/17/9 18/18/10 16/16/8
f 17/17/9 19/19/11 20/20/12 18/18/10
f 19/19/11 21/21/13 22/22/14 20/20/12
f 21/21/13 23/23/15 24/24/16 22/22/14
s 2
f 2/2/17 1/1/18 12/12/19 11/244/20
f 3/3/21 2/2/17 11/244/20 14/243/22
f 4/4/23 3/3/21 14/243/22 16/242/24
f 5/5/25 4/4/23 16/242/24 18/241/26
f 6/6/27 5/5/25 18/241/26 20/240/28
f 7/7/29 6/6/27 20/240/28 22/239/30
f 8/8/31 7/7/29 22/239/30 24/237/32
f 1/1/18 8/8/31 24/237/32 12/12/19
s 3
f 1/25/33 2/26/34 26/27/35 25/28/36
f 2/26/34 3/29/37 27/30/38 26/27/35
f 3/29/37 4/31/39 28/32/40 27/30/38
f 4/31/39 5/33/41 29/34/42 28/32/40
f 5/33/41 6/35/43 30/36/44 29/34/42
f 6/35/43 7/37/45 31/38/46 30/36/44
f 7/37/45 8/39/47 32/40/48 31/38/46
f 8/39/47 1/41/33 25/42/36 32/40/48
s 4
f 25/43/49 26/44/50 34/45/51 33/46/52
f 26/44/50 27/47/53 35/48/54 34/45/51
f 27/47/53 28/49/55 36/50/56 35/48/54
f 28/49/55 29/51/57 37/52/58 36/50/56
f 29/51/57 30/53/59 38/54/60 37/52/58
f 30/53/59 31/55/61 39/56/62 38/54/60
f 31/55/61 32/57/63 40/58/64 39/56/62
f 32/57/63 25/43/49 33/46/52 40/58/64
s 5
f 33/59/65 34/60/66 42/61/67 41/62/68
f 34/60/66 35/63/69 43/64/70 42/61/67
f 35/65/69 36/66/71 44/67/72 43/68/70
f 36/66/71 37/69/73 45/70/74 44/67/72
f 37/69/73 38/71/75 46/72/76 45/70/74
f 38/71/75 39/73/77 47/74/78 46/72/76
f 39/73/77 40/75/79 48/76/80 47/74/78
f 40/75/79 33/59/65 41/62/68 48/76/80
s 6
f 41/77/81 42/78/82 50/79/83 49/80/84
f 42/78/82 43/81/85 51/82/86 50/79/83
f 43/81/85 44/83/87 52/84/88 51/82/86
f 44/83/87 45/85/89 53/86/90 52/84/88
f 45/85/89 46/87/91 54/88/92 53/86/90
f 46/87/91 47/89/93 55/90/94 54/88/92
f 47/89/93 48/91/95 56/92/96 55/90/94
f 48/91/95 41/77/81 49/80/84 56/92/96
s 1
f 9/9/1 12/238/4 24/24/16 23/23/15
s 7
f 49/93/97 50/94/98 58/95/99 57/96/100
f 50/94/98 51/97/101 59/98/102 58/95/99
f 51/97/101 52/236/103 60/234/104 59/98/102
f 52/99/103 53/101/105 61/102/106 60/100/104
f 53/101/105 54/103/107 62/104/108 61/102/106
f 54/103/107 55/105/109 63/106/110 62/104/108
f 55/105/109 56/235/111 64/233/112 63/106/110
f 56/107/111 49/93/97 57/96/100 64/108/112
f 57/96/100 58/95/99 66/109/113 65/110/114
f 58/95/99 59/98/102 67/111/115 66/109/113
f 59/98/102 60/234/104 68/231/116 67/111/115
f 60/100/104 61/102/106 69/113/117 68/112/116
f 61/102/106 62/104/108 70/114/118 69/113/117
f 62/104/108 63/106/110 71/115/119 70/114/118
f 63/106/110 64/233/112 72/229/120 71/115/119
f 64/108/112 57/96/100 65/110/114 72/116/120
f 65/110/114 66/109/113 74/117/121 73/118/122
f 66/109/113 67/111/115 75/119/123 74/117/121
f 67/111/115 68/231/116 76/232/124 75/119/123
f 68/112/116 69/113/117 77/121/125 76/120/124
f 69/113/117 70/114/118 78/122/126 77/121/125
f 70/114/118 71/115/119 79/123/127 78/122/126
f 71/115/119 72/229/120 80/230/128 79/123/127
f 72/116/120 65/110/114 73/118/122 80/124/128
s 8
f 73/125/129 74/126/130 82/127/131 81/247/132
f 74/126/130 75/129/133 83/130/134 82/127/131
f 75/129/133 76/132/135 84/133/136 83/130/134
f 76/132/135 77/134/137 85/135/138 84/133/136
f 77/134/137 78/137/139 86/138/140 85/135/138
f 78/137/139 79/139/141 87/140/142 86/138/140
f 79/139/141 80/142/143 88/143/144 87/140/142
f 80/142/143 73/144/129 81/145/132 88/143/144
s 9
f 89/147/145 84/136/146 85/249/147 86/141/148
f 88/146/149 89/147/145 86/141/148 87/248/150
f 82/131/151 89/147/145 88/146/149 81/128/152
f 82/131/151 83/250/153 84/136/146 89/147/145
s 10
f 90/148/154 91/149/155 99/150/156 98/151/157
f 91/149/155 92/152/158 100/153/159 99/150/156
f 92/152/158 93/154/160 101/155/161 100/153/159
f 93/154/160 94/156/162 102/157/163 101/155/161
f 94/156/162 95/158/164 103/159/165 102/157/163
f 95/158/164 96/160/166 104/161/167 103/159/165
f 96/160/166 97/162/168 105/163/169 104/161/167
f 97/162/168 90/164/154 98/165/157 105/163/169
s 11
f 106/166/170 99/167/171 100/168/172 101/169/173
f 106/166/170 101/169/173 102/170/174 103/171/175
f 106/166/170 103/171/175 104/172/176 105/173/177
f 106/166/170 105/173/177 98/174/178 99/167/171
s 12
f 107/175/179 108/176/180 116/177/181 115/178/182
f 108/176/180 109/179/183 117/180/184 116/177/181
f 109/179/183 110/181/185 118/182/186 117/180/184
f 110/181/185 111/183/187 119/184/188 118/182/186
f 111/183/187 112/185/189 120/186/190 119/184/188
f 112/185/189 113/187/191 121/188/192 120/186/190
f 113/187/191 114/189/193 122/190/194 121/188/192
f 114/189/193 107/191/179 115/192/182 122/190/194
s 13
f 123/193/195 116/194/196 117/195/197 118/196/198
f 123/193/195 118/196/198 119/197/199 120/198/200
f 123/193/195 120/198/200 121/199/201 122/200/202
f 123/193/195 122/200/202 115/201/203 116/194/196
s 14
f 124/202/204 132/203/205 133/204/206 125/205/207
f 125/205/207 133/204/206 134/206/208 126/207/209
f 126/207/209 134/206/208 135/208/210 127/209/211
f 127/209/211 135/208/210 136/210/212 128/211/213
f 128/211/213 136/210/212 137/212/214 129/213/215
f 129/213/215 137/212/214 138/214/216 130/215/217
f 130/215/217 138/214/216 139/216/218 131/217/219
f 131/217/219 139/216/218 132/218/205 124/219/204
s 15
f 140/220/220 135/221/221 134/222/222 133/223/223
f 140/220/220 137/224/224 136/225/225 135/221/221
f 140/220/220 139/226/226 138/227/227 137/224/224
f 140/220/220 133/223/223 132/228/228 139/226/226
