# This file uses meters as units for non-parametric coordinates.

mtllib 3D_Road_Default.mtl
g default
v -250.000000 0.000000 250.000000
v 250.000000 0.000000 250.000000
v -250.000000 0.000000 -250.000000
v 250.000000 0.000000 -250.000000
v -125.000000 0.000000 250.000000
v -125.000000 0.000000 -250.000000
v 125.000122 0.000000 250.000000
v 125.000122 0.000000 -250.000000
v -187.500000 0.000000 250.000000
v -187.500000 0.000000 -250.000000
v 187.500061 0.000000 250.000000
v 187.500061 0.000000 -250.000000
v -250.000000 10.000000 250.000000
v -187.500000 10.000000 250.000000
v -187.500000 10.000000 -250.000000
v -250.000000 10.000000 -250.000000
v 187.500061 10.000000 250.000000
v 187.500061 10.000000 -250.000000
v 250.000000 10.000000 250.000000
v 250.000000 10.000000 -250.000000
v 125.000122 0.000000 250.000000
v 125.000122 0.000000 -250.000000
v 187.500061 0.000000 250.000000
v 187.500061 0.000000 -250.000000
v -187.500000 0.000000 250.000000
v -187.500000 0.000000 -250.000000
v -125.000000 0.000000 250.000000
v -125.000000 0.000000 -250.000000
vt 0.699738 0.881326
vt 0.699738 0.026834
vt 0.716828 0.026834
vt 0.716828 0.881326
vt 0.840729 0.026834
vt 0.840729 0.881326
vt 0.823639 0.881326
vt 0.823639 0.026834
vt 0.994026 0.025939
vt 0.994026 0.880431
vt 0.976936 0.880431
vt 0.976937 0.025939
vt 0.853035 0.880431
vt 0.853035 0.025939
vt 0.870125 0.025939
vt 0.870125 0.880431
vt 0.014169 0.880661
vt 0.014169 0.026169
vt 0.441416 0.026169
vt 0.441416 0.880661
vt 0.462958 0.880661
vt 0.462958 0.026169
vt 0.569770 0.026169
vt 0.569770 0.880661
vt 0.580879 0.880661
vt 0.580879 0.026169
vt 0.687691 0.026169
vt 0.687691 0.880661
vn 0.000000 1.000000 0.000000
vn 0.000000 1.000000 0.000000
vn 0.000000 1.000000 0.000000
vn 0.000000 1.000000 0.000000
vn 0.000000 1.000000 0.000000
vn 0.000000 1.000000 0.000000
vn 0.000000 1.000000 0.000000
vn 0.000000 1.000000 0.000000
vn 0.000000 1.000000 0.000000
vn 0.000000 1.000000 0.000000
vn 0.000000 1.000000 0.000000
vn 0.000000 1.000000 0.000000
vn 0.000000 1.000000 0.000000
vn 0.000000 1.000000 0.000000
vn 0.000000 1.000000 0.000000
vn 0.000000 1.000000 0.000000
vn 0.000000 1.000000 0.000000
vn 0.000000 1.000000 0.000000
vn 0.000000 1.000000 0.000000
vn 0.000000 1.000000 0.000000
vn 1.000000 0.000000 0.000000
vn 1.000000 0.000000 0.000000
vn 1.000000 0.000000 0.000000
vn 1.000000 0.000000 0.000000
vn -1.000000 0.000000 0.000000
vn -1.000000 0.000000 0.000000
vn -1.000000 0.000000 0.000000
vn -1.000000 0.000000 0.000000
vn -1.000000 0.000000 0.000000
vn -1.000000 0.000000 0.000000
vn -1.000000 0.000000 0.000000
vn -1.000000 0.000000 0.000000
vn 1.000000 0.000000 0.000000
vn 1.000000 0.000000 0.000000
vn 1.000000 0.000000 0.000000
vn 1.000000 0.000000 0.000000
vn 0.000000 0.000000 0.000000
vn 0.000000 0.000000 0.000000
vn 0.000000 0.000000 0.000000
vn 0.000000 0.000000 0.000000
vn 0.000000 0.000000 0.000000
vn 0.000000 0.000000 0.000000
vn 0.000000 0.000000 0.000000
vn 0.000000 0.000000 0.000000
vn 0.000000 0.000000 0.000000
vn 0.000000 0.000000 0.000000
vn 0.000000 0.000000 0.000000
vn 0.000000 0.000000 0.000000
vn 0.000000 0.000000 0.000000
vn 0.000000 0.000000 0.000000
vn 0.000000 0.000000 0.000000
vn 0.000000 0.000000 0.000000
vn 0.000000 0.000000 0.000000
vn 0.000000 0.000000 0.000000
vn 0.000000 0.000000 0.000000
vn 0.000000 0.000000 0.000000
vn 0.000000 0.000000 0.000000
vn 0.000000 0.000000 0.000000
vn 0.000000 0.000000 0.000000
vn 0.000000 0.000000 0.000000
vn 0.000000 0.000000 0.000000
vn 0.000000 0.000000 0.000000
vn 0.000000 0.000000 0.000000
vn 0.000000 0.000000 0.000000
vn 0.000000 0.000000 0.000000
vn 0.000000 0.000000 0.000000
vn 0.000000 0.000000 0.000000
vn 0.000000 0.000000 0.000000
s off
g RoadTile_Default
usemtl initialShadingGroup
f 13/7/1 14/4/2 15/3/3 16/8/4
f 6/17/5 5/18/6 7/19/7 8/20/8
f 22/21/9 21/22/10 23/23/11 24/24/12
f 26/25/13 25/26/14 27/27/15 28/28/16
f 18/12/17 17/11/18 19/16/19 20/15/20
f 9/1/21 10/2/22 15/3/23 14/4/24
f 3/5/25 1/6/26 13/7/27 16/8/28
f 12/9/29 11/10/30 17/11/31 18/12/32
f 2/13/33 4/14/34 20/15/35 19/16/36
f 8//37 7//38 21//39 22//40
f 7//41 11//42 23//43 21//44
f 11//45 12//46 24//47 23//48
f 12//49 8//50 22//51 24//52
f 10//53 9//54 25//55 26//56
f 9//57 5//58 27//59 25//60
f 5//61 6//62 28//63 27//64
f 6//65 10//66 26//67 28//68
