# This file uses meters as units for non-parametric coordinates.

mtllib 3D_Road_Roundabout_Middle.mtl
g default
v -250.000000 0.000000 250.000000
v 250.000000 0.000000 250.000000
v -250.000000 0.000000 -250.000000
v 250.000000 0.000000 -250.000000
vt 0.000968 0.002429
vt 0.855460 0.002429
vt 0.000968 0.856921
vt 0.855460 0.856921
vn 0.000000 1.000000 0.000000
vn 0.000000 1.000000 0.000000
vn 0.000000 1.000000 0.000000
vn 0.000000 1.000000 0.000000
s off
g RoadTile_Roundabout_Mid_Ground RoadTile_Roundabout_Mid
usemtl initialShadingGroup
f 1/1/1 2/2/2 4/4/3 3/3/4
g default
v 0.000000 -3.031027 -196.681396
v -75.266724 -3.031027 -181.709839
v -139.074768 -3.031027 -139.074707
v -181.709900 -3.031027 -75.266602
v -196.681335 -3.031027 0.000061
v -181.709839 -3.031027 75.266724
v -139.074585 -3.031027 139.074768
v -75.266602 -3.031027 181.709900
v 0.000000 -3.031027 196.681335
v 0.000000 9.031027 -196.681396
v -75.266724 9.031027 -181.709839
v -139.074768 9.031027 -139.074707
v -181.709900 9.031027 -75.266602
v -196.681335 9.031027 0.000061
v -181.709839 9.031027 75.266724
v -139.074585 9.031027 139.074768
v -75.266602 9.031027 181.709900
v 0.000000 9.031027 196.681335
v 0.000000 9.031027 -240.000000
v -91.843994 9.031027 -221.731079
v -169.705688 9.031027 -169.705566
v -221.731140 9.031027 -91.843994
v -240.000000 9.031027 0.000061
v -221.731079 9.031027 91.844116
v -169.705505 9.031027 169.705688
v -91.843933 9.031027 221.731140
v 0.000000 9.031027 240.000000
v 0.000000 -3.031027 -240.000000
v -91.843994 -3.031027 -221.731079
v -169.705688 -3.031027 -169.705566
v -221.731140 -3.031027 -91.843994
v -240.000000 -3.031027 0.000061
v -221.731079 -3.031027 91.844116
v -169.705505 -3.031027 169.705688
v -91.843933 -3.031027 221.731140
v 0.000000 -3.031027 240.000000
v 75.266724 -3.031027 -181.709839
v 139.074707 -3.031027 -139.074707
v 181.709961 -3.031027 -75.266602
v 196.681396 -3.031027 0.000061
v 181.709839 -3.031027 75.266724
v 139.074585 -3.031027 139.074768
v 75.266602 -3.031027 181.709900
v 75.266724 9.031027 -181.709839
v 139.074707 9.031027 -139.074707
v 181.709961 9.031027 -75.266602
v 196.681396 9.031027 0.000061
v 181.709839 9.031027 75.266724
v 139.074585 9.031027 139.074768
v 75.266602 9.031027 181.709900
v 91.843994 9.031027 -221.731079
v 169.705688 9.031027 -169.705566
v 221.731201 9.031027 -91.843994
v 240.000000 9.031027 0.000061
v 221.731079 9.031027 91.844116
v 169.705566 9.031027 169.705688
v 91.843994 9.031027 221.731140
v 91.843994 -3.031027 -221.731079
v 169.705688 -3.031027 -169.705566
v 221.731201 -3.031027 -91.843994
v 240.000000 -3.031027 0.000061
v 221.731079 -3.031027 91.844116
v 169.705566 -3.031027 169.705688
v 91.843994 -3.031027 221.731140
vt 0.999070 0.487759
vt 0.999070 0.644439
vt 0.985347 0.643548
vt 0.985347 0.487759
vt 0.999070 0.767122
vt 0.985347 0.767122
vt 0.999070 0.328195
vt 0.985347 0.328195
vt 0.999070 0.877080
vt 0.985347 0.877080
vt 0.999070 0.197502
vt 0.985347 0.197502
vt 0.999070 0.072652
vt 0.985347 0.072652
vt 0.873169 0.487759
vt 0.873169 0.643548
vt 0.856161 0.643548
vt 0.856161 0.487759
vt 0.873169 0.767122
vt 0.856161 0.767122
vt 0.873169 0.328195
vt 0.856161 0.328195
vt 0.873169 0.877080
vt 0.856161 0.877080
vt 0.873169 0.197502
vt 0.856161 0.197502
vt 0.873169 0.072652
vt 0.856161 0.072652
vt 0.985347 0.003375
vt 0.873169 0.003375
vt 0.999070 0.980337
vt 0.856161 0.003375
vt 0.999070 0.003375
vt 0.873169 0.980337
vt 0.856161 0.980337
vt 0.985347 0.980337
vt 0.999070 0.877080
vt 0.999070 0.980337
vt 0.985347 0.980337
vt 0.985347 0.877080
vt 0.999070 0.767122
vt 0.985347 0.767122
vt 0.999070 0.644439
vt 0.985347 0.643548
vt 0.999070 0.487759
vt 0.985347 0.487759
vt 0.999070 0.328195
vt 0.985347 0.328195
vt 0.999070 0.197502
vt 0.985347 0.197502
vt 0.999070 0.072652
vt 0.985347 0.072652
vt 0.999070 0.003375
vt 0.985347 0.003375
vt 0.873169 0.980337
vt 0.873169 0.877080
vt 0.873169 0.767122
vt 0.873169 0.643548
vt 0.873169 0.487759
vt 0.873169 0.328195
vt 0.873169 0.197502
vt 0.873169 0.072652
vt 0.873169 0.003375
vt 0.856161 0.980337
vt 0.856161 0.877080
vt 0.856161 0.767122
vt 0.856161 0.643548
vt 0.856161 0.487759
vt 0.856161 0.328195
vt 0.856161 0.197502
vt 0.856161 0.072652
vt 0.856161 0.003375
vn 0.382684 0.000000 0.923879
vn 0.000000 0.000000 1.000000
vn 0.000000 0.000000 1.000000
vn 0.382684 0.000000 0.923879
vn 0.707107 0.000000 0.707107
vn 0.707107 0.000000 0.707107
vn 0.923880 0.000000 0.382683
vn 0.923880 0.000000 0.382683
vn 1.000000 0.000000 -0.000000
vn 1.000000 0.000000 -0.000000
vn 0.923879 0.000000 -0.382684
vn 0.923879 0.000000 -0.382684
vn 0.707107 0.000000 -0.707107
vn 0.707107 0.000000 -0.707107
vn 0.382683 0.000000 -0.923880
vn 0.382683 0.000000 -0.923880
vn 0.000000 0.000000 -1.000000
vn 0.000000 0.000000 -1.000000
vn 0.000000 1.000000 0.000000
vn 0.000000 1.000000 0.000000
vn 0.000000 1.000000 0.000000
vn 0.000000 1.000000 0.000000
vn 0.000000 1.000000 0.000000
vn 0.000000 1.000000 0.000000
vn 0.000000 1.000000 -0.000000
vn 0.000000 1.000000 -0.000000
vn 0.000000 1.000000 0.000000
vn 0.000000 1.000000 -0.000000
vn 0.000000 1.000000 0.000000
vn 0.000000 1.000000 0.000000
vn 0.000000 1.000000 0.000000
vn 0.000000 1.000000 0.000000
vn 0.000000 1.000000 0.000000
vn 0.000000 1.000000 0.000000
vn 0.000000 1.000000 0.000000
vn 0.000000 1.000000 0.000000
vn -0.195090 0.000000 -0.980785
vn 0.000000 0.000000 -1.000000
vn 0.000000 0.000000 -1.000000
vn -0.195090 0.000000 -0.980785
vn -0.555570 0.000000 -0.831470
vn -0.555570 0.000000 -0.831470
vn -0.555570 0.000000 -0.831470
vn -0.555570 0.000000 -0.831470
vn -0.831470 0.000000 -0.555570
vn -0.831470 0.000000 -0.555570
vn -0.831470 0.000000 -0.555570
vn -0.831470 0.000000 -0.555570
vn -0.980785 0.000000 -0.195090
vn -0.980785 0.000000 -0.195090
vn -0.980785 0.000000 -0.195090
vn -0.980785 0.000000 -0.195090
vn -0.980785 0.000000 0.195090
vn -0.980785 0.000000 0.195090
vn -0.980785 0.000000 0.195090
vn -0.980785 0.000000 0.195090
vn -0.831469 0.000000 0.555571
vn -0.831469 0.000000 0.555571
vn -0.831469 0.000000 0.555571
vn -0.831469 0.000000 0.555571
vn -0.555571 0.000000 0.831469
vn -0.555571 0.000000 0.831469
vn -0.555571 0.000000 0.831469
vn -0.555571 0.000000 0.831469
vn -0.000000 0.000000 1.000000
vn -0.195090 0.000000 0.980786
vn -0.195090 0.000000 0.980786
vn -0.000000 0.000000 1.000000
vn -0.382684 0.000000 0.923879
vn -0.382684 0.000000 0.923879
vn -0.707107 0.000000 0.707107
vn -0.707107 0.000000 0.707107
vn -0.923880 0.000000 0.382684
vn -0.923880 0.000000 0.382684
vn -1.000000 0.000000 -0.000001
vn -1.000000 0.000000 -0.000001
vn -0.923879 0.000000 -0.382685
vn -0.923879 0.000000 -0.382685
vn -0.707107 0.000000 -0.707107
vn -0.707107 0.000000 -0.707107
vn -0.382683 0.000000 -0.923880
vn -0.382683 0.000000 -0.923880
vn 0.000000 1.000000 0.000000
vn 0.000000 1.000000 0.000000
vn 0.000000 1.000000 0.000000
vn 0.000000 1.000000 0.000000
vn 0.000000 1.000000 0.000000
vn 0.000000 1.000000 0.000000
vn 0.000000 1.000000 -0.000000
vn 0.000000 1.000000 -0.000000
vn 0.000000 1.000000 -0.000000
vn 0.000000 1.000000 -0.000000
vn 0.000000 1.000000 0.000000
vn 0.000000 1.000000 0.000000
vn 0.000000 1.000000 0.000000
vn 0.000000 1.000000 0.000000
vn 0.195090 0.000000 -0.980785
vn 0.195090 0.000000 -0.980785
vn 0.555570 0.000000 -0.831470
vn 0.555570 0.000000 -0.831470
vn 0.555570 0.000000 -0.831470
vn 0.555570 0.000000 -0.831470
vn 0.831469 0.000000 -0.555571
vn 0.831469 0.000000 -0.555571
vn 0.831469 0.000000 -0.555571
vn 0.831469 0.000000 -0.555571
vn 0.980786 0.000000 -0.195089
vn 0.980786 0.000000 -0.195089
vn 0.980786 0.000000 -0.195089
vn 0.980786 0.000000 -0.195089
vn 0.980785 0.000000 0.195090
vn 0.980785 0.000000 0.195090
vn 0.980785 0.000000 0.195090
vn 0.980785 0.000000 0.195090
vn 0.831469 0.000000 0.555571
vn 0.831469 0.000000 0.555571
vn 0.831469 0.000000 0.555571
vn 0.831469 0.000000 0.555571
vn 0.555571 0.000000 0.831469
vn 0.555571 0.000000 0.831469
vn 0.555571 0.000000 0.831469
vn 0.555571 0.000000 0.831469
vn 0.195089 0.000000 0.980786
vn 0.195089 0.000000 0.980786
s 1
g RoadTile_Roundabout_Mid RoadTile_Roundabout_Mid_Pavement
usemtl initialShadingGroup
f 6/13/5 5/35/6 14/40/7 15/14/8
f 7/9/9 6/13/5 15/14/8 16/10/10
f 8/6/11 7/9/9 16/10/10 17/7/12
f 9/5/13 8/6/11 17/7/12 18/8/14
f 10/11/15 9/5/13 18/8/14 19/12/16
f 11/15/17 10/11/15 19/12/16 20/16/18
f 12/17/19 11/15/17 20/16/18 21/18/20
f 13/37/21 12/17/19 21/18/20 22/33/22
s 2
f 15/14/23 14/40/24 23/38/25 24/27/26
f 16/10/27 15/14/23 24/27/26 25/23/28
f 17/7/29 16/10/27 25/23/28 26/20/30
f 18/8/31 17/7/29 26/20/30 27/19/32
f 19/12/33 18/8/31 27/19/32 28/25/34
f 20/16/35 19/12/33 28/25/34 29/29/36
f 21/18/37 20/16/35 29/29/36 30/31/38
f 22/33/39 21/18/37 30/31/38 31/34/40
s 3
f 24/27/41 23/38/42 32/39/43 33/28/44
s off
f 25/23/45 24/27/46 33/28/47 34/24/48
f 26/20/49 25/23/50 34/24/51 35/21/52
f 27/19/53 26/20/54 35/21/55 36/22/56
f 28/25/57 27/19/58 36/22/59 37/26/60
f 29/29/61 28/25/62 37/26/63 38/30/64
f 30/31/65 29/29/66 38/30/67 39/32/68
s 4
f 31/34/69 30/31/70 39/32/71 40/36/72
s 1
f 41/41/73 48/44/74 14/43/7 5/42/6
f 42/45/75 49/46/76 48/44/74 41/41/73
f 43/47/77 50/48/78 49/46/76 42/45/75
f 44/49/79 51/50/80 50/48/78 43/47/77
f 45/51/81 52/52/82 51/50/80 44/49/79
f 46/53/83 53/54/84 52/52/82 45/51/81
f 47/55/85 54/56/86 53/54/84 46/53/83
f 13/57/21 22/58/22 54/56/86 47/55/85
s 2
f 48/44/87 55/60/88 23/59/25 14/43/24
f 49/46/89 56/61/90 55/60/88 48/44/87
f 50/48/91 57/62/92 56/61/90 49/46/89
f 51/50/93 58/63/94 57/62/92 50/48/91
f 52/52/95 59/64/96 58/63/94 51/50/93
f 53/54/97 60/65/98 59/64/96 52/52/95
f 54/56/99 61/66/100 60/65/98 53/54/97
f 22/58/39 31/67/40 61/66/100 54/56/99
s 3
f 55/60/101 62/69/102 32/68/43 23/59/42
s off
f 56/61/103 63/70/104 62/69/105 55/60/106
f 57/62/107 64/71/108 63/70/109 56/61/110
f 58/63/111 65/72/112 64/71/113 57/62/114
f 59/64/115 66/73/116 65/72/117 58/63/118
f 60/65/119 67/74/120 66/73/121 59/64/122
f 61/66/123 68/75/124 67/74/125 60/65/126
s 4
f 31/67/69 40/76/72 68/75/127 61/66/128
