# This file uses meters as units for non-parametric coordinates.

mtllib 3D_Traffic_Street_Light.mtl
g default
v -114.025486 335.245240 7.648775
v -113.780551 340.080205 12.489930
v -118.397977 340.314120 7.648775
v -64.217544 337.569362 7.648775
v -68.834969 337.803277 12.489930
v -69.079903 332.968335 7.648775
v -118.397977 340.314120 -7.648775
v -113.780551 340.080205 -12.489930
v -114.025486 335.245240 -7.648775
v -69.079903 332.968335 -7.648775
v -68.834969 337.803277 -12.489930
v -64.217544 337.569362 -7.648775
v -66.051484 337.641626 -10.973944
v -65.678410 338.579632 11.540076
v -116.977636 340.265507 11.348219
v -117.134215 340.267616 -10.970612
vt 0.321406 0.951759
vt 0.324078 0.973108
vt 0.271954 0.973308
vt 0.273982 0.952301
vt 0.344818 0.952418
vt 0.319108 0.810914
vt 0.340401 0.809118
vt 0.321438 0.790287
vt 0.271952 0.811771
vt 0.269488 0.790957
vt 0.252652 0.953566
vt 0.250638 0.811078
vt 0.339126 0.965865
vt 0.337566 0.795898
vt 0.259003 0.966966
vt 0.256354 0.799370
vn -0.127596 -0.967056 0.220278
vn -0.734901 -0.672277 0.089240
vn -0.736710 -0.670279 -0.089353
vn -0.127607 -0.967045 -0.220320
vn -0.063866 -0.710466 0.700828
vn 0.030202 -0.974771 0.221153
vn 0.010811 -0.713098 0.700981
vn 0.667359 -0.735129 0.119236
vn 0.029232 -0.974967 -0.220417
vn 0.670978 -0.736294 -0.087522
vn -0.062400 -0.709734 -0.701701
vn -0.011125 -0.710732 -0.703375
vn -0.546176 -0.680815 0.488040
vn 0.516067 -0.676854 0.524922
vn -0.553145 -0.669921 -0.495213
vn 0.504539 -0.693188 -0.514715
s 1
g StreetLamp_Light StreetLamp
usemtl initialShadingGroup
f 1/1/1 3/2/2 7/3/3 9/4/4
f 2/5/5 1/1/1 6/6/6 5/7/7
f 4/8/8 6/6/6 10/9/9 12/10/10
f 9/4/4 8/11/11 11/12/12 10/9/9
f 9/4/4 10/9/9 6/6/6 1/1/1
f 1/1/1 2/5/5 15/13/13 3/2/2
f 4/8/8 14/14/14 5/7/7 6/6/6
f 7/3/3 16/15/15 8/11/11 9/4/4
f 10/9/9 11/12/12 13/16/16 12/10/10
g default
v -122.279579 338.414799 8.024573
v -77.435076 336.143014 15.470352
v -67.050465 335.616939 15.470352
v -62.734472 335.398287 15.470352
v -78.420261 347.599643 13.971498
v -69.671762 343.522937 13.971498
v -62.554990 338.941255 15.470352
v -118.919978 349.651345 7.247108
v -78.420261 347.599643 -13.971495
v -69.671762 343.522937 -13.971495
v -62.554990 338.941255 -15.470352
v -118.919978 349.651345 -7.247105
v -122.279579 338.414799 -8.024573
v -77.435076 336.143014 -15.470352
v -67.050465 335.616939 -15.470352
v -62.734472 335.398287 -15.470352
v -117.963588 338.196154 -10.319796
v -77.435076 336.143014 -10.319796
v -67.050465 335.616939 -10.319796
v -117.963588 338.196154 10.319794
v -77.435076 336.143014 10.319794
v -67.050465 335.616939 10.319794
v -109.857885 337.785526 -10.319796
v -113.310679 337.960442 -15.470352
v -110.820035 349.241006 -13.971495
v -110.820035 349.241006 13.971498
v -113.310679 337.960442 15.470352
v -109.857885 337.785526 10.319794
v -67.040283 340.708883 -15.470352
v -77.076105 343.228947 -15.470352
v -112.951711 345.046384 -15.470352
v -121.920611 345.500743 -8.024573
v -121.920611 345.500743 8.024573
v -112.951711 345.046384 15.470352
v -77.076105 343.228947 15.470352
v -67.040283 340.708883 15.470352
vt 0.274618 0.431703
vt 0.274618 0.457699
vt 0.176422 0.457712
vt 0.176420 0.431714
vt 0.274620 0.468959
vt 0.176424 0.468972
vt 0.274619 0.397787
vt 0.176419 0.397789
vt 0.286787 0.426019
vt 0.332522 0.426019
vt 0.331945 0.524369
vt 0.287209 0.524308
vt 0.192781 0.644474
vt 0.176435 0.658190
vt 0.176398 0.515659
vt 0.192744 0.515659
vt 0.258261 0.644491
vt 0.274605 0.658209
vt 0.176429 0.482680
vt 0.192769 0.482687
vt 0.258262 0.515664
vt 0.274610 0.515666
vt 0.258275 0.482677
vt 0.274619 0.482681
vt 0.176424 0.255275
vt 0.274625 0.255277
vt 0.286838 0.281967
vt 0.332367 0.281946
vt 0.286915 0.248748
vt 0.319398 0.250273
vt 0.298193 0.234972
vt 0.286936 0.235031
vt 0.331534 0.664865
vt 0.287147 0.664783
vt 0.318896 0.695841
vt 0.287068 0.697296
vt 0.298098 0.710824
vt 0.287053 0.710755
vt 0.192774 0.618711
vt 0.176427 0.629684
vt 0.287197 0.552403
vt 0.331863 0.552468
vt 0.176423 0.283778
vt 0.274624 0.283779
vt 0.332491 0.397205
vt 0.286797 0.397209
vt 0.274606 0.629700
vt 0.258261 0.618726
vt 0.302982 0.696568
vt 0.309341 0.664824
vt 0.309530 0.552436
vt 0.309577 0.524339
vt 0.309655 0.426019
vt 0.309644 0.397207
vt 0.309602 0.281957
vt 0.303156 0.249510
vn 0.019854 0.982975 0.182663
vn -0.155109 0.153079 0.975965
vn 0.020687 0.146207 0.989038
vn 0.133338 0.982171 0.132520
vn 0.034457 0.092484 0.995118
vn 0.474690 0.875841 0.087013
vn 0.003482 0.008834 0.999955
vn 0.996293 -0.050471 0.069666
vn 0.774379 0.627081 0.084298
vn 0.474690 0.875841 -0.087013
vn 0.133338 0.982171 -0.132520
vn 0.774379 0.627081 -0.084298
vn 0.020687 0.146208 -0.989038
vn -0.155109 0.153079 -0.975965
vn 0.019854 0.982975 -0.182663
vn 0.034457 0.092484 -0.995118
vn 0.003482 0.008834 -0.999955
vn -0.050594 -0.998719 0.000000
vn -0.050594 -0.998719 0.000000
vn -0.050594 -0.998719 0.000000
vn -0.050594 -0.998719 0.000000
vn -0.050595 -0.998719 0.000000
vn -0.050596 -0.998719 0.000000
vn -0.050596 -0.998719 0.000000
vn -0.050596 -0.998719 0.000000
vn -0.050596 -0.998719 0.000000
vn -0.050594 -0.998719 -0.000000
vn -0.050594 -0.998719 -0.000000
vn -0.050594 -0.998719 -0.000000
vn -0.050594 -0.998719 -0.000000
vn -0.050595 -0.998719 0.000000
vn 0.996293 -0.050471 -0.069666
vn -0.894133 0.278517 -0.350648
vn -0.894133 0.278516 0.350648
vn -0.220763 0.970188 0.099995
vn -0.220763 0.970188 -0.099995
vn -0.050594 -0.998719 0.000000
vn -0.050594 -0.998719 0.000000
vn -0.050594 -0.998719 0.000000
vn -0.050594 -0.998719 0.000000
vn 0.000000 -0.000000 -1.000000
vn -0.163380 0.008277 -0.986529
vn -0.932895 0.047260 -0.357035
vn -0.932895 0.047260 0.357035
vn -0.163380 0.008277 0.986529
vn 0.000000 -0.000000 1.000000
s 1
g StreetLamp StreetLamp_Head
usemtl initialShadingGroup
f 42/61/17 50/70/18 51/71/19 21/44/20
f 51/71/19 52/72/21 22/46/22 21/44/20
f 19/45/23 20/48/24 23/47/25
f 21/23/20 22/17/22 26/20/26 25/24/27
f 22/17/22 23/18/25 27/19/28 26/20/26
f 46/66/29 47/67/30 41/58/31 25/49/27
f 25/49/27 26/51/26 45/65/32 46/66/29
f 26/51/26 27/53/28 31/52/33 45/65/32
s 4
f 39/55/34 40/56/35 30/31/36 34/32/37
f 30/31/36 31/35/38 35/36/39 34/32/37
f 31/35/38 32/22/40 35/36/39
f 35/36/39 32/22/40 20/21/41 38/39/42
f 43/63/43 44/64/44 37/37/45 18/38/46
f 37/37/45 38/39/42 19/40/47 18/38/46
f 38/39/42 20/21/41 19/40/47
s 1
f 20/21/24 32/22/48 27/19/28 23/18/25
f 48/68/49 49/69/50 24/26/51 28/27/52
f 25/24/27 41/59/31 42/60/17 21/23/20
s 4
f 33/29/53 36/33/54 17/34/55 29/30/56
s 1
f 19/45/23 23/47/25 22/46/22 52/72/21
f 31/52/33 27/53/28 32/54/48
s 4
f 33/29/53 29/30/56 40/56/35 39/55/34
s 1
f 47/67/30 48/68/49 28/27/52 41/58/31
f 42/60/17 41/59/31 28/41/52 24/42/51
f 49/69/50 50/70/18 42/61/17 24/26/51
s 4
f 17/34/55 36/33/54 44/64/44 43/63/43
s 1
f 46/66/29 45/65/32 31/52/33 30/50/57
f 40/57/58 47/67/30 46/66/29 30/50/57
f 29/28/59 48/68/49 47/67/30 40/57/58
f 17/25/60 49/69/50 48/68/49 29/28/59
f 17/25/60 43/62/61 50/70/18 49/69/50
f 51/71/19 50/70/18 43/62/61 18/43/62
f 18/43/62 19/45/23 52/72/21 51/71/19
g default
v -252.716375 0.296632 -4.903528
v -257.619905 0.296632 -6.934636
v -262.523418 0.296632 -4.903528
v -264.554525 0.296632 0.000000
v -262.523418 0.296632 4.903528
v -257.619905 0.296632 6.934637
v -252.716375 0.296632 4.903529
v -250.685268 0.296632 0.000000
v -252.716375 98.210984 -4.903528
v -257.619905 98.210984 -6.934636
v -262.523418 98.210984 -4.903528
v -264.554525 98.210984 0.000000
v -262.523418 98.210984 4.903528
v -257.619905 98.210984 6.934637
v -252.716375 98.210984 4.903529
v -250.685268 98.210984 0.000000
v -257.619896 98.210984 0.000000
vt 0.228214 0.990194
vt 0.210835 0.990194
vt 0.210835 0.688962
vt 0.228214 0.688962
vt 0.193457 0.990194
vt 0.193457 0.688962
vt 0.158701 0.990194
vt 0.141323 0.990194
vt 0.141323 0.688962
vt 0.158701 0.688962
vt 0.123945 0.990194
vt 0.123945 0.688962
vt 0.129307 0.176272
vt 0.113744 0.160709
vt 0.129307 0.145146
vt 0.135753 0.160709
vt 0.113744 0.182719
vt 0.098181 0.176272
vt 0.098181 0.145146
vt 0.113744 0.138700
vt 0.091734 0.160709
vt 0.106566 0.990194
vt 0.106566 0.688962
vt 0.089188 0.990194
vt 0.089188 0.688962
vt 0.176079 0.990194
vt 0.176079 0.688962
vn 0.707107 0.000000 -0.707107
vn -0.000000 0.000000 -1.000000
vn -0.000000 0.000000 -1.000000
vn 0.707107 0.000000 -0.707107
vn -0.707108 0.000000 -0.707106
vn -0.707108 0.000000 -0.707106
vn -1.000000 0.000000 0.000000
vn -1.000000 0.000000 0.000000
vn -0.707108 0.000000 0.707106
vn -0.707108 0.000000 0.707106
vn -0.000000 0.000000 1.000000
vn -0.000000 0.000000 1.000000
vn 0.707107 0.000000 0.707107
vn 0.707107 0.000000 0.707107
vn 1.000000 0.000000 -0.000000
vn 1.000000 0.000000 -0.000000
vn 0.000000 1.000000 0.000000
vn 0.000000 1.000000 0.000000
vn 0.000000 1.000000 0.000000
vn 0.000000 1.000000 0.000000
vn 0.000000 1.000000 0.000000
vn 0.000000 1.000000 0.000000
vn 0.000000 1.000000 0.000000
vn 0.000000 1.000000 0.000000
vn 0.000000 1.000000 0.000000
s 1
g StreetLamp StreetLamp_Base
usemtl initialShadingGroup
f 53/83/63 54/94/64 62/95/65 61/84/66
f 54/94/64 55/96/67 63/97/68 62/95/65
f 55/73/67 56/74/69 64/75/70 63/76/68
f 56/74/69 57/77/71 65/78/72 64/75/70
f 57/77/71 58/98/73 66/99/74 65/78/72
f 58/98/73 59/79/75 67/82/76 66/99/74
f 59/79/75 60/80/77 68/81/78 67/82/76
f 60/80/77 53/83/63 61/84/66 68/81/78
s 2
f 61/85/79 69/86/80 67/87/81 68/88/82
f 62/89/83 63/90/84 69/86/80 61/85/79
f 69/86/80 63/90/84 64/93/85 65/91/86
f 67/87/81 69/86/80 65/91/86 66/92/87
g default
v -115.993460 346.435035 -1.358774
v -116.111887 345.081432 -1.921596
v -116.230308 343.727828 -1.358774
v -116.279363 343.167148 0.000000
v -116.230308 343.727828 1.358774
v -116.111887 345.081432 1.921597
v -115.993460 346.435035 1.358774
v -115.944406 346.995716 0.000000
v -259.801024 346.435035 -1.358774
v -259.682597 345.081432 -1.921596
v -259.564175 343.727828 -1.358774
v -259.515121 343.167148 0.000000
v -259.564175 343.727828 1.358774
v -259.682597 345.081432 1.921597
v -259.801024 346.435035 1.358774
v -259.850078 346.995716 0.000000
v -151.911100 348.789201 -1.358774
v -151.970368 347.431721 -1.921596
v -152.029639 346.074240 -1.358774
v -152.054188 345.511953 0.000000
v -152.029639 346.074240 1.358774
v -151.970368 347.431721 1.921597
v -151.911100 348.789202 1.358774
v -151.886551 349.351489 0.000000
v -187.897204 349.574422 -1.358774
v -187.897204 348.215648 -1.921596
v -187.897204 346.856874 -1.358774
v -187.897204 346.294052 0.000000
v -187.897204 346.856874 1.358774
v -187.897204 348.215648 1.921597
v -187.897204 349.574422 1.358774
v -187.897204 350.137245 0.000000
v -223.883365 348.789202 -1.358774
v -223.824097 347.431722 -1.921596
v -223.764826 346.074241 -1.358774
v -223.740277 345.511954 0.000000
v -223.764826 346.074241 1.358774
v -223.824097 347.431722 1.921597
v -223.883365 348.789202 1.358774
v -223.907914 349.351489 0.000000
vt 0.123674 0.323240
vt 0.119009 0.323240
vt 0.119009 0.208919
vt 0.123674 0.208920
vt 0.123674 0.437438
vt 0.119009 0.437437
vt 0.114345 0.323240
vt 0.114345 0.208920
vt 0.128337 0.323240
vt 0.128337 0.208919
vt 0.114345 0.437438
vt 0.109681 0.323240
vt 0.109681 0.208920
vt 0.105018 0.323239
vt 0.100354 0.323240
vt 0.100354 0.208920
vt 0.105018 0.208920
vt 0.105018 0.437437
vt 0.100354 0.437438
vt 0.095690 0.323240
vt 0.133000 0.208919
vt 0.095690 0.437437
vt 0.123674 0.665471
vt 0.119009 0.665470
vt 0.119009 0.551477
vt 0.123674 0.551477
vt 0.114345 0.665471
vt 0.114345 0.551477
vt 0.128337 0.665470
vt 0.128337 0.551477
vt 0.109681 0.665470
vt 0.109681 0.551477
vt 0.105018 0.665470
vt 0.100354 0.665470
vt 0.100354 0.551477
vt 0.105018 0.551477
vt 0.095690 0.665471
vt 0.095690 0.551477
vt 0.133000 0.551477
vt 0.128337 0.437438
vt 0.133000 0.437438
vt 0.133000 0.323240
vt 0.109681 0.437437
vt 0.095690 0.208919
vt 0.133000 0.665470
vn -0.031664 0.731567 -0.681034
vn -0.007055 0.053162 -0.998561
vn 0.017031 -0.259845 -0.965500
vn -0.038858 0.592855 -0.804371
vn 0.030063 -0.682653 -0.730124
vn 0.055475 -0.846389 -0.529668
vn 0.047665 -0.998863 0.000000
vn 0.065403 -0.997859 0.000000
vn 0.030063 -0.682653 0.730124
vn 0.055475 -0.846389 0.529668
vn -0.007055 0.053162 0.998561
vn 0.017031 -0.259845 0.965500
vn -0.031664 0.731567 0.681034
vn -0.038858 0.592855 0.804371
vn -0.039257 0.999229 -0.000000
vn -0.065403 0.997859 -0.000000
vn 0.038858 0.592856 -0.804371
vn -0.017031 -0.259845 -0.965500
vn 0.007055 0.053162 -0.998561
vn 0.031664 0.731567 -0.681034
vn -0.055475 -0.846389 -0.529668
vn -0.030063 -0.682653 -0.730124
vn -0.065403 -0.997859 0.000000
vn -0.047665 -0.998863 0.000000
vn -0.055475 -0.846389 0.529668
vn -0.030063 -0.682653 0.730124
vn -0.017031 -0.259845 0.965500
vn 0.007055 0.053162 0.998561
vn 0.038858 0.592856 0.804371
vn 0.031664 0.731567 0.681034
vn 0.065403 0.997859 -0.000000
vn 0.039257 0.999229 -0.000000
vn 0.000000 0.162316 -0.986739
vn 0.000000 0.792458 -0.609927
vn -0.000000 -0.631544 -0.775340
vn -0.000000 -1.000000 0.000000
vn -0.000000 -0.631544 0.775340
vn 0.000000 0.162316 0.986739
vn 0.000000 0.792458 0.609927
vn 0.000000 1.000000 -0.000000
s 1
g StreetLamp StreetLamp_Support_Top
usemtl initialShadingGroup
f 102/141/88 103/108/89 79/109/90 78/120/91
f 103/108/89 104/100/92 80/103/93 79/109/90
f 104/100/92 105/101/94 81/102/95 80/103/93
f 105/101/94 106/106/96 82/107/97 81/102/95
f 106/106/96 107/111/98 83/112/99 82/107/97
f 107/111/98 108/113/100 84/116/101 83/112/99
f 108/113/100 109/114/102 85/115/103 84/116/101
f 109/114/102 102/119/88 78/143/91 85/115/103
f 70/144/104 71/128/105 87/129/106 86/138/107
f 71/128/105 72/122/108 88/125/109 87/129/106
f 72/122/108 73/123/110 89/124/111 88/125/109
f 73/123/110 74/126/112 90/127/113 89/124/111
f 74/126/112 75/130/114 91/131/115 90/127/113
f 75/130/114 76/132/116 92/135/117 91/131/115
f 76/132/116 77/133/118 93/134/119 92/135/117
f 77/133/118 70/136/104 86/137/107 93/134/119
f 86/138/107 87/129/106 95/139/120 94/140/121
f 87/129/106 88/125/109 96/104/122 95/139/120
f 88/125/109 89/124/111 97/105/123 96/104/122
f 89/124/111 90/127/113 98/110/124 97/105/123
f 90/127/113 91/131/115 99/142/125 98/110/124
f 91/131/115 92/135/117 100/117/126 99/142/125
f 92/135/117 93/134/119 101/118/127 100/117/126
f 93/134/119 86/137/107 94/121/121 101/118/127
f 94/140/121 95/139/120 103/108/89 102/141/88
f 95/139/120 96/104/122 104/100/92 103/108/89
f 96/104/122 97/105/123 105/101/94 104/100/92
f 97/105/123 98/110/124 106/106/96 105/101/94
f 98/110/124 99/142/125 107/111/98 106/106/96
f 99/142/125 100/117/126 108/113/100 107/111/98
f 100/117/126 101/118/127 109/114/102 108/113/100
f 101/118/127 94/121/121 102/119/88 109/114/102
g default
v -255.495609 43.477714 -2.124295
v -257.619905 43.477714 -3.004206
v -259.744193 43.477714 -2.124295
v -260.624104 43.477714 0.000000
v -259.744193 43.477714 2.124295
v -257.619905 43.477714 3.004207
v -255.495609 43.477714 2.124295
v -254.615698 43.477714 0.000000
v -255.495609 355.891248 -2.124295
v -257.619905 355.891248 -3.004206
v -259.744193 355.891248 -2.124295
v -260.624104 355.891248 0.000000
v -259.744193 355.891248 2.124295
v -257.619905 355.891248 3.004207
v -255.495609 355.891248 2.124295
v -254.615698 355.891248 0.000000
v -257.619901 355.891248 0.000000
vt 0.072027 0.993127
vt 0.064678 0.993127
vt 0.064678 0.008525
vt 0.072027 0.008525
vt 0.057329 0.993127
vt 0.057329 0.008526
vt 0.042630 0.993127
vt 0.035281 0.993127
vt 0.035281 0.008526
vt 0.042630 0.008526
vt 0.027932 0.993127
vt 0.027932 0.008525
vt 0.108513 0.101314
vt 0.101771 0.094572
vt 0.108513 0.087830
vt 0.111306 0.094572
vt 0.101771 0.104107
vt 0.095029 0.101314
vt 0.095029 0.087830
vt 0.101771 0.085037
vt 0.092236 0.094572
vt 0.020583 0.993127
vt 0.020583 0.008525
vt 0.013234 0.993127
vt 0.013234 0.008525
vt 0.049980 0.993127
vt 0.049980 0.008526
vn 0.707107 0.000000 -0.707107
vn -0.000000 0.000000 -1.000000
vn -0.000000 0.000000 -1.000000
vn 0.707107 0.000000 -0.707107
vn -0.707108 0.000000 -0.707106
vn -0.707108 0.000000 -0.707106
vn -1.000000 0.000000 0.000000
vn -1.000000 0.000000 0.000000
vn -0.707108 0.000000 0.707106
vn -0.707108 0.000000 0.707106
vn -0.000000 0.000000 1.000000
vn -0.000000 0.000000 1.000000
vn 0.707107 0.000000 0.707107
vn 0.707107 0.000000 0.707107
vn 1.000000 0.000000 -0.000000
vn 1.000000 0.000000 -0.000000
vn 0.000000 1.000000 0.000000
vn 0.000000 1.000000 0.000000
vn 0.000000 1.000000 0.000000
vn 0.000000 1.000000 0.000000
vn 0.000000 1.000000 0.000000
vn 0.000000 1.000000 0.000000
vn 0.000000 1.000000 0.000000
vn 0.000000 1.000000 0.000000
vn 0.000000 1.000000 0.000000
s 1
g StreetLamp StreetLamp_Support_Bot
usemtl initialShadingGroup
f 110/155/128 111/166/129 119/167/130 118/156/131
f 111/166/129 112/168/132 120/169/133 119/167/130
f 112/145/132 113/146/134 121/147/135 120/148/133
f 113/146/134 114/149/136 122/150/137 121/147/135
f 114/149/136 115/170/138 123/171/139 122/150/137
f 115/170/138 116/151/140 124/154/141 123/171/139
f 116/151/140 117/152/142 125/153/143 124/154/141
f 117/152/142 110/155/128 118/156/131 125/153/143
s 2
f 118/157/144 126/158/145 124/159/146 125/160/147
f 119/161/148 120/162/149 126/158/145 118/157/144
f 126/158/145 120/162/149 121/165/150 122/163/151
f 124/159/146 126/158/145 122/163/151 123/164/152
