# This file uses meters as units for non-parametric coordinates.

mtllib 3D_Road_Roundabout_MiddleV2.mtl
g default
v -250.000000 0.000000 250.000000
v 250.000000 0.000000 250.000000
v -250.000000 0.000000 -250.000000
v 250.000000 0.000000 -250.000000
v 0.000000 -3.031027 -196.681396
v -75.266724 -3.031027 -181.709839
v -139.074768 -3.031027 -139.074707
v -181.709900 -3.031027 -75.266602
v -196.681335 -3.031027 0.000061
v -181.709839 -3.031027 75.266724
v -139.074585 -3.031027 139.074768
v -75.266602 -3.031027 181.709900
v 0.000000 -3.031027 196.681335
v 0.000000 9.031027 -196.681396
v -75.266724 9.031027 -181.709839
v -139.074768 9.031027 -139.074707
v -181.709900 9.031027 -75.266602
v -196.681335 9.031027 0.000061
v -181.709839 9.031027 75.266724
v -139.074585 9.031027 139.074768
v -75.266602 9.031027 181.709900
v 0.000000 9.031027 196.681335
v 0.000000 9.031027 -240.000000
v -91.843994 9.031027 -221.731079
v -169.705688 9.031027 -169.705566
v -221.731140 9.031027 -91.843994
v -240.000000 9.031027 0.000061
v -221.731079 9.031027 91.844116
v -169.705505 9.031027 169.705688
v -91.843933 9.031027 221.731140
v 0.000000 9.031027 240.000000
v 0.000000 -3.031027 -240.000000
v -91.843994 -3.031027 -221.731079
v -169.705688 -3.031027 -169.705566
v -221.731140 -3.031027 -91.843994
v -240.000000 -3.031027 0.000061
v -221.731079 -3.031027 91.844116
v -169.705505 -3.031027 169.705688
v -91.843933 -3.031027 221.731140
v 0.000000 -3.031027 240.000000
v 75.266724 -3.031027 -181.709839
v 139.074707 -3.031027 -139.074707
v 181.709961 -3.031027 -75.266602
v 196.681396 -3.031027 0.000061
v 181.709839 -3.031027 75.266724
v 139.074585 -3.031027 139.074768
v 75.266602 -3.031027 181.709900
v 75.266724 9.031027 -181.709839
v 139.074707 9.031027 -139.074707
v 181.709961 9.031027 -75.266602
v 196.681396 9.031027 0.000061
v 181.709839 9.031027 75.266724
v 139.074585 9.031027 139.074768
v 75.266602 9.031027 181.709900
v 91.843994 9.031027 -221.731079
v 169.705688 9.031027 -169.705566
v 221.731201 9.031027 -91.843994
v 240.000000 9.031027 0.000061
v 221.731079 9.031027 91.844116
v 169.705566 9.031027 169.705688
v 91.843994 9.031027 221.731140
v 91.843994 -3.031027 -221.731079
v 169.705688 -3.031027 -169.705566
v 221.731201 -3.031027 -91.843994
v 240.000000 -3.031027 0.000061
v 221.731079 -3.031027 91.844116
v 169.705566 -3.031027 169.705688
v 91.843994 -3.031027 221.731140
vt 0.016144 0.014636
vt 0.846222 0.014636
vt 0.016144 0.844714
vt 0.846222 0.844714
vt 0.996896 0.840836
vt 0.996896 0.938586
vt 0.983905 0.938586
vt 0.983905 0.840836
vt 0.996896 0.736742
vt 0.983905 0.736742
vt 0.996896 0.620603
vt 0.983905 0.619760
vt 0.996896 0.472280
vt 0.983905 0.472280
vt 0.996896 0.321226
vt 0.983905 0.321226
vt 0.996896 0.197503
vt 0.983905 0.197503
vt 0.996896 0.079312
vt 0.983905 0.079312
vt 0.996896 0.013730
vt 0.983905 0.013730
vt 0.877709 0.938586
vt 0.877709 0.840836
vt 0.877709 0.736742
vt 0.877709 0.619760
vt 0.877709 0.472280
vt 0.877709 0.321226
vt 0.877709 0.197503
vt 0.877709 0.079312
vt 0.877709 0.013730
vt 0.861609 0.938586
vt 0.861609 0.840836
vt 0.861609 0.736742
vt 0.861609 0.619760
vt 0.861609 0.472280
vt 0.861609 0.321226
vt 0.861609 0.197503
vt 0.861609 0.079312
vt 0.861609 0.013730
vt 0.995259 0.840836
vt 0.982268 0.840836
vt 0.982268 0.938586
vt 0.995259 0.938586
vt 0.995259 0.736743
vt 0.982268 0.736743
vt 0.995259 0.620603
vt 0.982268 0.619760
vt 0.995259 0.472280
vt 0.982268 0.472280
vt 0.995259 0.321226
vt 0.982268 0.321226
vt 0.995259 0.197503
vt 0.982268 0.197503
vt 0.995259 0.079312
vt 0.982268 0.079312
vt 0.995259 0.013730
vt 0.982268 0.013730
vt 0.876073 0.840836
vt 0.876073 0.938586
vt 0.876073 0.736743
vt 0.876073 0.619760
vt 0.876073 0.472280
vt 0.876073 0.321226
vt 0.876073 0.197503
vt 0.876073 0.079312
vt 0.876073 0.013730
vt 0.859972 0.840836
vt 0.859972 0.938586
vt 0.859972 0.736743
vt 0.859972 0.619760
vt 0.859972 0.472280
vt 0.859972 0.321226
vt 0.859972 0.197503
vt 0.859972 0.079312
vt 0.859972 0.013730
vn 0.000000 1.000000 0.000000
vn 0.000000 1.000000 0.000000
vn 0.000000 1.000000 0.000000
vn 0.000000 1.000000 0.000000
vn 0.382684 0.000000 0.923879
vn 0.000000 0.000000 1.000000
vn 0.000000 0.000000 1.000000
vn 0.382684 0.000000 0.923879
vn 0.707107 0.000000 0.707107
vn 0.707107 0.000000 0.707107
vn 0.923880 0.000000 0.382683
vn 0.923880 0.000000 0.382683
vn 1.000000 0.000000 -0.000000
vn 1.000000 0.000000 -0.000000
vn 0.923879 0.000000 -0.382684
vn 0.923879 0.000000 -0.382684
vn 0.707107 0.000000 -0.707107
vn 0.707107 0.000000 -0.707107
vn 0.382683 0.000000 -0.923880
vn 0.382683 0.000000 -0.923880
vn 0.000000 0.000000 -1.000000
vn 0.000000 0.000000 -1.000000
vn 0.000000 1.000000 0.000000
vn 0.000000 1.000000 0.000000
vn 0.000000 1.000000 0.000000
vn 0.000000 1.000000 0.000000
vn 0.000000 1.000000 0.000000
vn 0.000000 1.000000 0.000000
vn 0.000000 1.000000 -0.000000
vn 0.000000 1.000000 -0.000000
vn 0.000000 1.000000 0.000000
vn 0.000000 1.000000 -0.000000
vn 0.000000 1.000000 0.000000
vn 0.000000 1.000000 0.000000
vn 0.000000 1.000000 0.000000
vn 0.000000 1.000000 0.000000
vn 0.000000 1.000000 0.000000
vn 0.000000 1.000000 0.000000
vn 0.000000 1.000000 0.000000
vn 0.000000 1.000000 0.000000
vn -0.195090 0.000000 -0.980785
vn 0.000000 0.000000 -1.000000
vn 0.000000 0.000000 -1.000000
vn -0.195090 0.000000 -0.980785
vn -0.555570 0.000000 -0.831470
vn -0.555570 0.000000 -0.831470
vn -0.555570 0.000000 -0.831470
vn -0.555570 0.000000 -0.831470
vn -0.831470 0.000000 -0.555570
vn -0.831470 0.000000 -0.555570
vn -0.831470 0.000000 -0.555570
vn -0.831470 0.000000 -0.555570
vn -0.980785 0.000000 -0.195090
vn -0.980785 0.000000 -0.195090
vn -0.980785 0.000000 -0.195090
vn -0.980785 0.000000 -0.195090
vn -0.980785 0.000000 0.195090
vn -0.980785 0.000000 0.195090
vn -0.980785 0.000000 0.195090
vn -0.980785 0.000000 0.195090
vn -0.831469 0.000000 0.555571
vn -0.831469 0.000000 0.555571
vn -0.831469 0.000000 0.555571
vn -0.831469 0.000000 0.555571
vn -0.555570 0.000000 0.831470
vn -0.555570 0.000000 0.831470
vn -0.555570 0.000000 0.831470
vn -0.555570 0.000000 0.831470
vn 0.000000 0.000000 1.000000
vn -0.195090 0.000000 0.980785
vn -0.195090 0.000000 0.980785
vn 0.000000 0.000000 1.000000
vn -0.382684 0.000000 0.923879
vn -0.382684 0.000000 0.923879
vn -0.707107 0.000000 0.707107
vn -0.707107 0.000000 0.707107
vn -0.923880 0.000000 0.382684
vn -0.923880 0.000000 0.382684
vn -1.000000 0.000000 -0.000001
vn -1.000000 0.000000 -0.000001
vn -0.923879 0.000000 -0.382684
vn -0.923879 0.000000 -0.382684
vn -0.707107 0.000000 -0.707107
vn -0.707107 0.000000 -0.707107
vn -0.382683 0.000000 -0.923880
vn -0.382683 0.000000 -0.923880
vn 0.000000 1.000000 0.000000
vn 0.000000 1.000000 0.000000
vn 0.000000 1.000000 0.000000
vn 0.000000 1.000000 0.000000
vn 0.000000 1.000000 0.000000
vn 0.000000 1.000000 0.000000
vn 0.000000 1.000000 -0.000000
vn 0.000000 1.000000 -0.000000
vn 0.000000 1.000000 -0.000000
vn 0.000000 1.000000 -0.000000
vn 0.000000 1.000000 0.000000
vn 0.000000 1.000000 0.000000
vn 0.000000 1.000000 0.000000
vn 0.000000 1.000000 0.000000
vn 0.195090 0.000000 -0.980785
vn 0.195090 0.000000 -0.980785
vn 0.555570 0.000000 -0.831470
vn 0.555570 0.000000 -0.831470
vn 0.555570 0.000000 -0.831470
vn 0.555570 0.000000 -0.831470
vn 0.831469 0.000000 -0.555571
vn 0.831469 0.000000 -0.555571
vn 0.831469 0.000000 -0.555571
vn 0.831469 0.000000 -0.555571
vn 0.980786 0.000000 -0.195089
vn 0.980786 0.000000 -0.195089
vn 0.980786 0.000000 -0.195089
vn 0.980786 0.000000 -0.195089
vn 0.980785 0.000000 0.195090
vn 0.980785 0.000000 0.195090
vn 0.980785 0.000000 0.195090
vn 0.980785 0.000000 0.195090
vn 0.831469 0.000000 0.555571
vn 0.831469 0.000000 0.555571
vn 0.831469 0.000000 0.555571
vn 0.831469 0.000000 0.555571
vn 0.555570 0.000000 0.831470
vn 0.555570 0.000000 0.831470
vn 0.555570 0.000000 0.831470
vn 0.555570 0.000000 0.831470
vn 0.195090 0.000000 0.980785
vn 0.195090 0.000000 0.980785
s off
g RoadTile_Roundabout_Midv2
usemtl initialShadingGroup
f 1/1/1 2/2/2 4/4/3 3/3/4
s 1
f 6/5/5 5/6/6 14/7/7 15/8/8
f 7/9/9 6/5/5 15/8/8 16/10/10
f 8/11/11 7/9/9 16/10/10 17/12/12
f 9/13/13 8/11/11 17/12/12 18/14/14
f 10/15/15 9/13/13 18/14/14 19/16/16
f 11/17/17 10/15/15 19/16/16 20/18/18
f 12/19/19 11/17/17 20/18/18 21/20/20
f 13/21/21 12/19/19 21/20/20 22/22/22
s 2
f 15/8/23 14/7/24 23/23/25 24/24/26
f 16/10/27 15/8/23 24/24/26 25/25/28
f 17/12/29 16/10/27 25/25/28 26/26/30
f 18/14/31 17/12/29 26/26/30 27/27/32
f 19/16/33 18/14/31 27/27/32 28/28/34
f 20/18/35 19/16/33 28/28/34 29/29/36
f 21/20/37 20/18/35 29/29/36 30/30/38
f 22/22/39 21/20/37 30/30/38 31/31/40
s 3
f 24/24/41 23/23/42 32/32/43 33/33/44
s off
f 25/25/45 24/24/46 33/33/47 34/34/48
f 26/26/49 25/25/50 34/34/51 35/35/52
f 27/27/53 26/26/54 35/35/55 36/36/56
f 28/28/57 27/27/58 36/36/59 37/37/60
f 29/29/61 28/28/62 37/37/63 38/38/64
f 30/30/65 29/29/66 38/38/67 39/39/68
s 4
f 31/31/69 30/30/70 39/39/71 40/40/72
s 1
f 41/41/73 48/42/74 14/43/7 5/44/6
f 42/45/75 49/46/76 48/42/74 41/41/73
f 43/47/77 50/48/78 49/46/76 42/45/75
f 44/49/79 51/50/80 50/48/78 43/47/77
f 45/51/81 52/52/82 51/50/80 44/49/79
f 46/53/83 53/54/84 52/52/82 45/51/81
f 47/55/85 54/56/86 53/54/84 46/53/83
f 13/57/21 22/58/22 54/56/86 47/55/85
s 2
f 48/42/87 55/59/88 23/60/25 14/43/24
f 49/46/89 56/61/90 55/59/88 48/42/87
f 50/48/91 57/62/92 56/61/90 49/46/89
f 51/50/93 58/63/94 57/62/92 50/48/91
f 52/52/95 59/64/96 58/63/94 51/50/93
f 53/54/97 60/65/98 59/64/96 52/52/95
f 54/56/99 61/66/100 60/65/98 53/54/97
f 22/58/39 31/67/40 61/66/100 54/56/99
s 3
f 55/59/101 62/68/102 32/69/43 23/60/42
s off
f 56/61/103 63/70/104 62/68/105 55/59/106
f 57/62/107 64/71/108 63/70/109 56/61/110
f 58/63/111 65/72/112 64/71/113 57/62/114
f 59/64/115 66/73/116 65/72/117 58/63/118
f 60/65/119 67/74/120 66/73/121 59/64/122
f 61/66/123 68/75/124 67/74/125 60/65/126
s 4
f 31/67/69 40/76/72 68/75/127 61/66/128
