# This file uses meters as units for non-parametric coordinates.

mtllib 3D_Environment_Bush_2.mtl
g default
v 0.004097 3.008266 38.430267
v -50.000000 41.076855 0.003984
v 38.068501 2.646564 0.015334
v 38.069473 41.059940 38.429749
v 50.000000 41.066113 0.014592
v -0.002639 41.064945 50.000000
v -38.073483 79.504028 0.011035
v -0.000651 91.076965 0.005224
v 0.003877 -8.923038 0.008987
v 0.000613 3.006989 -38.429413
v -38.429050 41.073223 38.070518
v -38.070942 2.648193 0.000863
v 0.000799 79.141495 38.433048
v 38.074867 79.503105 -0.000996
v 38.432270 41.072151 -38.065697
v -0.001300 79.145897 -38.430107
v -38.431786 41.076065 -38.066425
v 33.240879 8.072086 -32.922928
v -33.239994 8.152760 -33.005077
v 33.241608 73.999542 -33.004116
v -33.242752 74.000885 -33.001312
v 33.239994 73.997101 33.008530
v -33.239189 73.997986 33.008942
v 32.923946 7.839798 33.009403
v -33.006504 8.151306 33.238167
vt 0.313073 0.878475
vt 0.216954 0.878478
vt 0.226438 0.786799
vt 0.313068 0.789673
vt 0.313067 0.973698
vt 0.230719 0.961035
vt 0.399826 0.787377
vt 0.409189 0.878461
vt 0.395420 0.961033
vt 0.216464 0.522206
vt 0.312559 0.521675
vt 0.313054 0.611251
vt 0.225634 0.613299
vt 0.229581 0.439746
vt 0.312050 0.426429
vt 0.408697 0.521107
vt 0.399811 0.612464
vt 0.394477 0.438635
vt 0.224295 0.699949
vt 0.134753 0.795322
vt 0.134632 0.700088
vt 0.052180 0.783361
vt 0.038488 0.700239
vt 0.134506 0.604879
vt 0.052138 0.617077
vt 0.491173 0.795193
vt 0.401678 0.699962
vt 0.491186 0.699964
vt 0.491200 0.604728
vt 0.587322 0.699964
vt 0.573745 0.783109
vt 0.573749 0.616816
vt 0.313048 0.699971
vn -0.001654 -0.704614 0.709589
vn -0.576993 -0.576511 0.578545
vn -0.702312 -0.711869 0.000810
vn -0.001483 -0.999999 -0.000890
vn -0.001356 0.000848 0.999999
vn -0.710781 -0.000073 0.703413
vn 0.578248 -0.578629 0.575168
vn 0.706863 -0.001159 0.707349
vn 0.704493 -0.709709 0.001602
vn -0.999999 -0.000902 0.000910
vn -0.969990 -0.000018 -0.243146
vn -0.679015 -0.679896 -0.276914
vn -0.701710 0.712463 0.000084
vn -0.679056 0.679863 -0.276892
vn -0.578530 0.576397 0.577123
vn -0.000817 -0.967643 -0.252322
vn 0.678755 -0.680328 -0.276487
vn 0.999993 -0.001233 0.003451
vn 0.970003 0.000108 -0.243095
vn 0.580503 0.576341 0.575194
vn -0.001251 0.704715 0.709489
vn 0.702767 0.711419 0.001317
vn 0.679122 0.679782 -0.276931
vn 0.000013 1.000000 0.000046
vn -0.000018 0.967531 -0.252751
s 1
g Bush_02
usemtl initialShadingGroup
f 1/19/1 25/3/2 12/20/3 9/21/4
f 1/19/1 6/33/5 11/4/6 25/3/2
f 1/19/1 24/13/7 4/12/8 6/33/5
f 1/19/1 9/21/4 3/24/9 24/13/7
f 2/1/10 12/2/3 25/3/2 11/4/6
f 2/1/10 17/5/11 19/6/12 12/2/3
f 2/1/10 7/8/13 21/9/14 17/5/11
f 2/1/10 11/4/6 23/7/15 7/8/13
f 3/24/9 9/21/4 10/23/16 18/25/17
f 3/10/9 5/11/18 4/12/8 24/13/7
f 3/10/9 18/14/17 15/15/19 5/11/18
f 4/12/8 22/17/20 13/27/21 6/33/5
f 4/12/8 5/11/18 14/16/22 22/17/20
f 5/11/18 15/15/19 20/18/23 14/16/22
f 6/33/5 13/27/21 23/7/15 11/4/6
f 7/26/13 23/7/15 13/27/21 8/28/24
f 7/26/13 8/28/24 16/30/25 21/31/14
f 8/28/24 14/29/22 20/32/23 16/30/25
f 8/28/24 13/27/21 22/17/20 14/29/22
f 9/21/4 12/20/3 19/22/12 10/23/16
