# This file uses meters as units for non-parametric coordinates.

mtllib 3D_Environment_Plank.mtl
g default
v -50.000000 0.095272 10.703293
v 50.000000 0.095272 10.703293
v -50.000000 2.629082 10.703293
v 50.000000 2.629082 10.703293
v -50.000000 2.629082 -10.703278
v 50.000000 2.629082 -10.703278
v -50.000000 0.095272 -10.703278
v 50.000000 0.095272 -10.703278
vt 0.825093 0.433887
vt 0.824971 0.092089
vt 0.833755 0.433884
vt 0.833631 0.092086
vt 0.906922 0.433857
vt 0.906798 0.092060
vt 0.915582 0.433854
vt 0.915458 0.092057
vt 0.988750 0.433828
vt 0.988625 0.092030
vt 0.824954 0.018942
vt 0.833613 0.018940
vt 0.825120 0.507060
vt 0.833781 0.507057
vn 0.000000 0.000000 1.000000
vn 0.000000 0.000000 1.000000
vn 0.000000 0.000000 1.000000
vn 0.000000 0.000000 1.000000
vn 0.000000 1.000000 0.000000
vn 0.000000 1.000000 0.000000
vn 0.000000 1.000000 0.000000
vn 0.000000 1.000000 0.000000
vn 0.000000 0.000000 -1.000000
vn 0.000000 0.000000 -1.000000
vn 0.000000 0.000000 -1.000000
vn 0.000000 0.000000 -1.000000
vn 0.000000 -1.000000 0.000000
vn 0.000000 -1.000000 0.000000
vn 0.000000 -1.000000 0.000000
vn 0.000000 -1.000000 0.000000
vn 1.000000 0.000000 0.000000
vn 1.000000 0.000000 0.000000
vn 1.000000 0.000000 0.000000
vn 1.000000 0.000000 0.000000
vn -1.000000 0.000000 0.000000
vn -1.000000 0.000000 0.000000
vn -1.000000 0.000000 0.000000
vn -1.000000 0.000000 0.000000
s off
g Plank6
usemtl initialShadingGroup
f 1/1/1 2/2/2 4/4/3 3/3/4
f 3/3/5 4/4/6 6/6/7 5/5/8
f 5/5/9 6/6/10 8/8/11 7/7/12
f 7/7/13 8/8/14 2/10/15 1/9/16
f 2/2/17 8/11/18 6/12/19 4/4/20
f 7/13/21 1/1/22 3/3/23 5/14/24
