# This file uses meters as units for non-parametric coordinates.

mtllib 3D_Environment_Crate.mtl
g default
v 28.891420 -1.654160 -29.560532
v -28.977064 -1.654158 -28.940784
v 28.891418 56.655228 -28.940784
v -28.977074 56.655212 -28.940784
v 21.411760 6.223570 -28.940783
v -21.583044 6.223560 -28.940783
v -21.583044 6.223560 -27.586039
v 21.411760 6.223570 -27.586039
v 21.411760 49.218346 -28.940783
v -21.583040 49.218346 -28.940783
v -21.583040 49.218346 -27.586039
v 21.411760 49.218346 -27.586039
v -28.977064 -1.654158 29.091171
v -28.977074 56.655212 29.091171
v -28.977074 6.223566 -21.354742
v -28.977066 6.223562 21.640062
v -27.622322 6.223562 21.640062
v -27.622330 6.223570 -21.354742
v -28.977066 49.218346 -21.354742
v -28.977066 49.218346 21.640059
v -27.622330 49.218346 21.640059
v -27.622330 49.218346 -21.354742
v 28.891418 -1.654158 29.091173
v 28.891417 56.655228 29.091173
v -21.497419 6.223570 29.091171
v 21.497385 6.223560 29.091171
v 21.497385 6.223560 27.736427
v -21.497419 6.223570 27.736427
v -21.497419 49.218346 29.091171
v 21.497381 49.218346 29.091171
v 21.497381 49.218346 27.736427
v -21.497419 49.218346 27.736427
v 28.891417 6.223570 21.505131
v 28.891417 6.223560 -21.489674
v 27.536673 6.223560 -21.489674
v 27.536673 6.223570 21.505131
v 28.891417 49.218346 21.505131
v 28.891417 49.218346 -21.489670
v 27.536673 49.218346 -21.489670
v 27.536673 49.218346 21.505131
v -21.540236 56.655220 -21.354742
v -21.540245 56.655220 21.640062
v -21.540245 55.300476 21.640062
v -21.540236 55.300476 -21.354742
v 21.454540 56.655220 -21.354742
v 21.454540 56.655220 21.640059
v 21.454540 55.300476 21.640059
v 21.454540 55.300476 -21.354742
v -21.540234 -1.654143 21.505131
v -21.540243 -1.654143 -21.489674
v -21.540245 0.141472 -21.489674
v -21.540236 0.141472 21.505131
v 21.454542 -1.654143 21.505131
v 21.454542 -1.654143 -21.489670
v 21.454540 0.141472 -21.489670
v 21.454540 0.141472 21.505131
v -27.678436 0.042534 27.678436
v 27.678436 0.042534 27.678436
v -27.678436 55.399406 27.678436
v 27.678436 55.399406 27.678436
v -27.678436 55.399406 -27.678436
v 27.678436 55.399406 -27.678436
v -27.678436 0.042534 -27.678436
v 27.678436 0.042534 -27.678436
vt 0.026326 0.513900
vt 0.026326 0.366945
vt 0.030956 0.366945
vt 0.030956 0.513900
vt 0.026326 0.807809
vt 0.026326 0.660854
vt 0.030956 0.660854
vt 0.030956 0.807809
vt 0.774961 0.342010
vt 0.774961 0.195057
vt 0.797241 0.169626
vt 0.797277 0.367279
vt 0.608211 0.169610
vt 0.628008 0.195057
vt 0.608198 0.367331
vt 0.628008 0.342010
vt 0.030956 0.660855
vt 0.030956 0.807810
vt 0.026326 0.807810
vt 0.026326 0.660855
vt 0.030956 0.366945
vt 0.030956 0.513900
vt 0.026326 0.513900
vt 0.026326 0.366945
vt 0.776071 0.739206
vt 0.776071 0.592262
vt 0.797487 0.565888
vt 0.798159 0.764522
vt 0.608421 0.564129
vt 0.629127 0.592262
vt 0.629127 0.739206
vt 0.609114 0.765530
vt 0.030956 0.219990
vt 0.026326 0.219990
vt 0.026326 0.660856
vt 0.026326 0.513900
vt 0.030956 0.513900
vt 0.030956 0.660856
vt 0.026326 0.366943
vt 0.026326 0.219987
vt 0.030956 0.219987
vt 0.030956 0.366943
vt 0.026326 0.219990
vt 0.030956 0.219990
vt 0.030956 0.219990
vt 0.030956 0.366945
vt 0.026326 0.366945
vt 0.026326 0.219990
vt 0.030956 0.513900
vt 0.030956 0.660855
vt 0.026326 0.660855
vt 0.026326 0.513900
vt 0.774960 0.540150
vt 0.774960 0.393209
vt 0.628021 0.393209
vt 0.628021 0.540150
vt 0.030956 0.807813
vt 0.026326 0.807813
vt 0.778306 0.937347
vt 0.778306 0.790403
vt 0.798622 0.962909
vt 0.631362 0.790403
vt 0.631362 0.937347
vt 0.609576 0.962910
vt 0.026326 0.807810
vt 0.030956 0.807810
vt 0.826156 0.591692
vt 0.825070 0.738641
vt 0.026326 0.660856
vt 0.026326 0.513900
vt 0.030956 0.513900
vt 0.030956 0.660856
vt 0.030956 0.807813
vt 0.026326 0.807813
vt 0.026326 0.366943
vt 0.026326 0.219987
vt 0.030956 0.219987
vt 0.030956 0.366943
vt 0.993896 0.765469
vt 0.972019 0.739727
vt 0.993583 0.568374
vt 0.973105 0.592778
vt 0.582826 0.740136
vt 0.581534 0.593198
vt 0.030956 0.219990
vt 0.030956 0.366945
vt 0.026326 0.366945
vt 0.026326 0.219990
vt 0.026326 0.807810
vt 0.026326 0.660855
vt 0.030956 0.660855
vt 0.030956 0.807810
vt 0.030956 0.513900
vt 0.026326 0.513900
vt 0.411683 0.567567
vt 0.434596 0.594491
vt 0.435888 0.741429
vt 0.413256 0.766765
vt 0.200457 0.001174
vt 0.389665 0.001174
vt 0.389665 0.190382
vt 0.200457 0.190382
vt 0.389665 0.379590
vt 0.200457 0.379590
vt 0.389665 0.568798
vt 0.200457 0.568798
vt 0.389665 0.758006
vt 0.200457 0.758006
vt 0.578873 0.001174
vt 0.578873 0.190382
vt 0.011249 0.001174
vt 0.011249 0.190382
vn -0.020699 0.003070 -0.999781
vn 0.000000 -0.000000 -1.000000
vn 0.000000 -0.000000 -1.000000
vn -0.020800 0.003085 -0.999779
vn 0.000000 -1.000000 0.000000
vn 0.000000 -1.000000 0.000000
vn 0.000000 -1.000000 0.000000
vn 0.000000 -1.000000 0.000000
vn 1.000000 -0.000000 0.000000
vn 1.000000 -0.000000 0.000000
vn 1.000000 -0.000000 0.000000
vn 1.000000 -0.000000 0.000000
vn -0.000000 1.000000 0.000000
vn -0.000000 1.000000 0.000000
vn -0.000000 1.000000 0.000000
vn -0.000000 1.000000 0.000000
vn -1.000000 0.000000 0.000000
vn -1.000000 0.000000 0.000000
vn -1.000000 0.000000 0.000000
vn -1.000000 0.000000 0.000000
vn -0.003286 0.021017 -0.999774
vn -0.003121 0.019963 -0.999796
vn -0.023460 0.022910 -0.999462
vn -0.022691 0.023636 -0.999463
vn -1.000000 -0.000001 -0.000000
vn -1.000000 -0.000001 -0.000000
vn -1.000000 -0.000001 -0.000000
vn -1.000000 -0.000001 -0.000000
vn 0.000000 -1.000000 0.000000
vn 0.000000 -1.000000 0.000000
vn 0.000000 -1.000000 0.000000
vn 0.000000 -1.000000 0.000000
vn 0.000000 -0.000000 -1.000000
vn 0.000000 -0.000000 -1.000000
vn 0.000000 -0.000000 -1.000000
vn 0.000000 -0.000000 -1.000000
vn -0.000001 1.000000 0.000000
vn -0.000001 1.000000 0.000000
vn -0.000001 1.000000 0.000000
vn -0.000001 1.000000 0.000000
vn -0.000001 0.000000 1.000000
vn -0.000001 0.000000 1.000000
vn -0.000001 0.000000 1.000000
vn -0.000001 0.000000 1.000000
vn -1.000000 -0.000000 -0.000000
vn -1.000000 -0.000000 -0.000000
vn -1.000000 -0.000000 -0.000000
vn -1.000000 -0.000000 -0.000000
vn 0.000000 -0.000000 1.000000
vn -0.000000 -0.000000 1.000000
vn -0.000000 -0.000000 1.000000
vn 0.000000 -0.000000 1.000000
vn 0.000000 -1.000000 0.000000
vn 0.000000 -1.000000 0.000000
vn 0.000000 -1.000000 0.000000
vn 0.000000 -1.000000 0.000000
vn -1.000000 -0.000000 0.000000
vn -1.000000 -0.000000 0.000000
vn -1.000000 -0.000000 0.000000
vn -1.000000 -0.000000 0.000000
vn 0.000000 1.000000 0.000000
vn 0.000000 1.000000 0.000000
vn 0.000000 1.000000 0.000000
vn 0.000000 1.000000 0.000000
vn 1.000000 0.000000 0.000000
vn 1.000000 0.000000 0.000000
vn 1.000000 0.000000 0.000000
vn 1.000000 0.000000 0.000000
vn -0.000000 0.000000 1.000000
vn -0.000000 0.000000 1.000000
vn 0.000000 0.000000 1.000000
vn 0.000000 0.000000 1.000000
vn 1.000000 -0.000000 -0.000000
vn 1.000000 -0.000000 0.000000
vn 1.000000 -0.000000 0.000000
vn 1.000000 -0.000000 -0.000000
vn 0.000000 -1.000000 0.000000
vn 0.000000 -1.000000 0.000000
vn 0.000000 -1.000000 0.000000
vn 0.000000 -1.000000 0.000000
vn 0.000000 -0.000000 1.000000
vn 0.000000 -0.000000 1.000000
vn 0.000000 -0.000000 1.000000
vn 0.000000 -0.000000 1.000000
vn 0.000000 1.000000 -0.000000
vn 0.000000 1.000000 -0.000000
vn 0.000000 1.000000 -0.000000
vn 0.000000 1.000000 -0.000000
vn 0.000000 0.000000 -1.000000
vn 0.000000 0.000000 -1.000000
vn 0.000000 0.000000 -1.000000
vn 0.000000 0.000000 -1.000000
vn 1.000000 -0.000000 0.000000
vn 1.000000 -0.000000 0.000000
vn 1.000000 0.000000 -0.000000
vn 1.000000 -0.000000 -0.000000
vn -0.000001 1.000000 0.000000
vn -0.000001 1.000000 -0.000000
vn -0.000001 1.000000 -0.000000
vn -0.000001 1.000000 0.000000
vn -1.000000 0.000000 0.000000
vn -1.000000 0.000000 0.000000
vn -1.000000 0.000000 0.000000
vn -1.000000 0.000000 0.000000
vn -0.000000 0.000000 -1.000000
vn -0.000000 0.000000 -1.000000
vn -0.000000 0.000000 -1.000000
vn -0.000000 0.000000 -1.000000
vn 1.000000 0.000000 0.000000
vn 1.000000 0.000000 0.000000
vn 1.000000 0.000000 0.000000
vn 1.000000 0.000000 0.000000
vn 0.000000 0.000000 1.000000
vn 0.000000 0.000000 1.000000
vn 0.000000 0.000000 1.000000
vn 0.000000 0.000000 1.000000
vn -0.000001 1.000000 -0.000000
vn -0.000001 1.000000 -0.000000
vn -0.000001 1.000000 -0.000000
vn -0.000001 1.000000 -0.000000
vn -0.000001 -1.000000 -0.000001
vn -0.000001 -1.000000 0.000001
vn -0.000001 -1.000000 0.000001
vn -0.000001 -1.000000 -0.000001
vn -1.000000 -0.000002 0.000000
vn -1.000000 -0.000002 0.000000
vn -1.000000 -0.000002 0.000000
vn -1.000000 -0.000002 0.000000
vn -0.000000 -0.000000 1.000000
vn -0.000000 -0.000000 1.000000
vn -0.000000 -0.000000 1.000000
vn -0.000000 -0.000000 1.000000
vn 1.000000 0.000002 -0.000000
vn 1.000000 0.000002 -0.000000
vn 1.000000 0.000002 -0.000000
vn 1.000000 0.000002 -0.000000
vn 0.000000 0.000000 -1.000000
vn 0.000000 0.000000 -1.000000
vn 0.000000 0.000000 -1.000000
vn 0.000000 0.000000 -1.000000
vn 0.000001 -1.000000 0.000001
vn 0.000001 -1.000000 0.000001
vn 0.000001 -1.000000 -0.000001
vn 0.000001 -1.000000 -0.000001
vn 0.000000 0.000000 1.000000
vn 0.000000 0.000000 1.000000
vn 0.000000 0.000000 1.000000
vn 0.000000 0.000000 1.000000
vn 0.000000 1.000000 0.000000
vn 0.000000 1.000000 0.000000
vn 0.000000 1.000000 0.000000
vn 0.000000 1.000000 0.000000
vn 0.000000 0.000000 -1.000000
vn 0.000000 0.000000 -1.000000
vn 0.000000 0.000000 -1.000000
vn 0.000000 0.000000 -1.000000
vn 0.000000 -1.000000 0.000000
vn 0.000000 -1.000000 0.000000
vn 0.000000 -1.000000 0.000000
vn 0.000000 -1.000000 0.000000
vn 1.000000 0.000000 0.000000
vn 1.000000 0.000000 0.000000
vn 1.000000 0.000000 0.000000
vn 1.000000 0.000000 0.000000
vn -1.000000 0.000000 0.000000
vn -1.000000 0.000000 0.000000
vn -1.000000 0.000000 0.000000
vn -1.000000 0.000000 0.000000
s 1
g Crate1
usemtl initialShadingGroup
f 9/53/1 10/54/2 4/12/3 3/27/4
s off
f 10/4/5 9/7/6 12/6/7 11/1/8
f 11/1/9 7/2/10 6/3/11 10/4/12
f 5/33/13 6/3/14 7/2/15 8/34/16
f 8/5/17 12/6/18 9/7/19 5/8/20
s 1
f 2/15/21 4/12/3 10/54/2 6/55/22
f 5/56/23 9/53/1 3/27/4 1/29/24
f 1/29/24 2/15/21 6/55/22 5/56/23
s 2
f 19/9/25 20/10/26 14/11/27 4/12/28
s off
f 20/35/29 19/36/30 22/37/31 21/38/32
f 21/38/33 17/57/34 16/58/35 20/35/36
f 15/39/37 16/40/38 17/41/39 18/42/40
f 18/42/41 22/37/42 19/36/43 15/39/44
s 2
f 13/13/45 14/11/27 20/10/26 16/14/46
f 2/15/47 15/16/48 19/9/25 4/12/28
f 2/15/47 13/13/45 16/14/46 15/16/48
s 3
f 29/59/49 30/60/50 24/28/51 14/61/52
s off
f 30/20/53 29/23/54 32/22/55 31/17/56
f 31/17/57 27/18/58 26/19/59 30/20/60
f 25/24/61 26/43/62 27/44/63 28/21/64
f 28/21/65 32/22/66 29/23/67 25/24/68
s 3
f 23/32/69 24/28/51 30/60/50 26/62/70
f 25/63/71 29/59/49 14/61/52 13/64/72
f 13/64/72 23/32/69 26/62/70 25/63/71
s 4
f 37/25/73 38/26/74 3/27/75 24/28/76
s off
f 38/45/77 37/46/78 40/47/79 39/48/80
f 39/65/81 35/51/82 34/50/83 38/66/84
f 33/49/85 34/50/86 35/51/87 36/52/88
f 36/52/89 40/47/90 37/46/91 33/49/92
s 4
f 1/29/93 3/27/75 38/26/74 34/30/94
f 33/31/95 37/25/73 24/28/76 23/32/96
f 23/32/96 1/29/93 34/30/94 33/31/95
s 5
f 45/67/97 46/68/98 24/28/99 3/27/100
s off
f 46/69/101 45/70/102 48/71/103 47/72/104
f 47/72/105 43/73/106 42/74/107 46/69/108
f 41/75/109 42/76/110 43/77/111 44/78/112
f 44/78/113 48/71/114 45/70/115 41/75/116
s 5
f 14/79/117 24/28/99 46/68/98 42/80/118
f 4/81/119 41/82/120 45/67/97 3/27/100
f 4/81/119 14/79/117 42/80/118 41/82/120
s 6
f 53/83/121 54/84/122 1/29/123 23/32/124
s off
f 54/85/125 53/86/126 56/87/127 55/88/128
f 55/89/129 51/90/130 50/91/131 54/92/132
f 49/93/133 50/91/134 51/90/135 52/94/136
f 52/94/137 56/87/138 53/86/139 49/93/140
s 6
f 2/95/141 1/29/123 54/84/122 50/96/142
f 49/97/143 53/83/121 23/32/124 13/98/144
f 13/98/144 2/95/141 50/96/142 49/97/143
s off
f 57/99/145 58/100/146 60/101/147 59/102/148
f 59/102/149 60/101/150 62/103/151 61/104/152
f 61/104/153 62/103/154 64/105/155 63/106/156
f 63/106/157 64/105/158 58/107/159 57/108/160
f 58/100/161 64/109/162 62/110/163 60/101/164
f 63/111/165 57/99/166 59/102/167 61/112/168
