# This file uses meters as units for non-parametric coordinates.

mtllib 3D_Environment_Branch.mtl
g default
v 49.738809 12.459028 0.785766
v 49.738809 5.015623 0.785764
v 48.118600 2.288230 7.025027
v 46.498407 5.015621 13.264290
v 46.498407 12.459028 13.264290
v 48.118600 15.186430 7.025028
v -87.170401 8.921364 -7.211494
v 48.118616 8.737325 7.025028
v 26.321908 12.525595 -2.895812
v 26.321908 6.702690 -2.895812
v 26.321908 3.791236 2.146971
v 26.321908 6.702689 7.189756
v 26.321908 12.525595 7.189756
v 26.321908 15.437044 2.146971
v 1.195093 9.455231 -15.768317
v 1.195093 3.305397 -15.768317
v 1.195093 0.230481 -10.442410
v 1.195093 3.305395 -5.116496
v 1.195093 9.455228 -5.116496
v 1.195093 12.530144 -10.442407
v -43.909445 21.342211 -3.270915
v -44.138907 17.367247 -3.382506
v -44.138907 15.414356 -0.000001
v -44.138907 17.367239 3.382505
v -44.138907 21.273029 3.382505
v -43.909445 23.104401 -0.218700
v -73.628653 7.654830 -8.601635
v -73.628653 5.105796 -8.601635
v -73.628653 3.831276 -6.394107
v -73.628653 5.105794 -4.186580
v -73.628653 7.654830 -4.186580
v -73.628653 8.929347 -6.394106
v -19.744101 13.769766 -12.605091
v -19.744101 8.860943 -12.605091
v -19.744101 6.406531 -8.353929
v -19.744101 8.860942 -4.102762
v -19.744101 13.769763 -4.102762
v -19.744101 16.224176 -8.353927
v -39.493186 20.821989 -4.743153
v -40.334723 16.904102 -4.683413
v -40.250662 14.756598 -1.055877
v -39.184836 16.374798 2.325454
v -38.191702 20.186670 2.072717
v -38.521186 22.323950 -1.698149
v -46.025839 39.441414 -7.657138
v -43.299460 27.265715 -3.931882
v -44.021414 26.874153 -6.818964
v -40.808417 26.722593 -7.817154
v -40.627677 27.068670 -5.190633
v -45.861182 33.014870 -4.148788
v -46.648810 32.065815 -5.847243
v -44.798407 32.040009 -6.391010
v -44.265967 32.783123 -5.038689
v -58.063681 16.421244 -6.100826
v -56.846701 13.517574 -5.931032
v -56.692923 11.758766 -2.710360
v -57.773123 13.003626 0.201401
v -58.966300 15.913660 -0.110464
v -59.045249 17.511312 -3.360536
vt 0.105171 0.396498
vt 0.079735 0.397016
vt 0.070863 0.419234
vt 0.080632 0.441072
vt 0.106068 0.440554
vt 0.114940 0.418336
vt 0.222835 0.963662
vt 0.167848 0.973880
vt 0.133848 0.971115
vt 0.101736 0.967043
vt 0.069382 0.960342
vt 0.040070 0.953131
vt 0.011216 0.946355
vt 0.108171 0.557093
vt 0.092904 0.418785
vt 0.042812 0.851263
vt 0.181746 0.847956
vt 0.156259 0.852390
vt 0.131375 0.861576
vt 0.107645 0.870149
vt 0.084084 0.870148
vt 0.063048 0.861463
vt 0.044293 0.749329
vt 0.165335 0.746065
vt 0.146791 0.749950
vt 0.129196 0.756361
vt 0.109804 0.761678
vt 0.086798 0.761046
vt 0.064339 0.755344
vt 0.080439 0.615992
vt 0.122911 0.620347
vt 0.115559 0.620669
vt 0.106724 0.621096
vt 0.098750 0.621294
vt 0.091825 0.620980
vt 0.084926 0.619530
vt 0.097546 0.569985
vt 0.114394 0.572499
vt 0.111615 0.572347
vt 0.108868 0.572553
vt 0.106157 0.573063
vt 0.103279 0.573145
vt 0.100193 0.572030
vt 0.061340 0.688729
vt 0.143922 0.683871
vt 0.132110 0.691059
vt 0.118308 0.693374
vt 0.104127 0.690649
vt 0.089609 0.687018
vt 0.074881 0.686508
vt 0.070875 0.631670
vt 0.128039 0.627076
vt 0.118852 0.630499
vt 0.108348 0.631649
vt 0.099000 0.631661
vt 0.090015 0.631647
vt 0.079856 0.631176
vt 0.103842 0.334808
vt 0.128372 0.327052
vt 0.134397 0.391101
vt 0.158497 0.341938
vt 0.150115 0.332920
vt 0.129356 0.355104
vt 0.151529 0.364421
vt 0.146474 0.357510
vt 0.140562 0.354195
vt 0.132011 0.374835
vt 0.144152 0.376546
vt 0.140602 0.373468
vt 0.136107 0.373319
vt 0.088729 0.592827
vt 0.118051 0.596160
vt 0.113458 0.596742
vt 0.107931 0.597009
vt 0.102848 0.596702
vt 0.098174 0.595842
vt 0.093033 0.594357
vt 0.127142 0.375197
vt 0.119212 0.362116
vt 0.167455 0.352797
vn -0.042833 0.371975 -0.927254
vn 0.248956 -0.576775 -0.778043
vn -0.995669 0.088508 -0.028467
vn 0.256872 -0.964764 -0.056980
vn 0.009754 -0.629111 0.777254
vn -0.379056 0.398764 0.835047
vn -0.400167 0.915757 -0.035426
vn 0.967898 -0.000003 0.251342
vn 0.967898 -0.000000 0.251342
vn 0.967898 -0.000001 0.251342
vn 0.967898 -0.000003 0.251342
vn 0.967898 -0.000001 0.251343
vn 0.967898 0.000000 0.251343
vn 0.967898 0.000001 0.251342
vn 0.146089 0.491467 -0.858556
vn 0.106398 -0.509610 -0.853801
vn 0.311322 -0.477332 -0.821725
vn 0.248457 0.522264 -0.815787
vn -0.081619 -0.995948 -0.037769
vn 0.001905 -0.999560 0.029587
vn -0.271837 -0.531801 0.802055
vn -0.320876 -0.456364 0.829922
vn -0.234355 0.515083 0.824480
vn -0.334808 0.491391 0.804014
vn -0.004090 0.999639 -0.026555
vn -0.091317 0.995132 0.037065
vn 0.158259 -0.491668 -0.856281
vn 0.201262 0.402529 -0.893008
vn -0.000240 -0.994829 -0.101568
vn -0.229745 -0.559953 0.796034
vn -0.219034 0.489334 0.844142
vn 0.050687 0.994519 -0.091453
vn -0.105280 0.480474 -0.870667
vn -0.343053 -0.460651 -0.818606
vn -0.452462 -0.423119 -0.785015
vn -0.080517 0.407972 -0.909437
vn -0.334287 -0.941951 -0.031306
vn -0.341250 -0.939680 0.023438
vn -0.037103 -0.525889 0.849743
vn 0.103977 -0.474666 0.874003
vn 0.282381 0.490829 0.824226
vn 0.389575 0.478599 0.786876
vn 0.228385 0.973303 -0.022829
vn 0.391539 0.909876 0.137199
vn -0.330733 0.378637 -0.864436
vn 0.147317 -0.447335 -0.882150
vn 0.332845 -0.452116 -0.827530
vn -0.081833 0.520206 -0.850112
vn 0.170523 -0.983535 0.059832
vn 0.360243 -0.932791 -0.011217
vn -0.031367 -0.383262 0.923107
vn -0.022634 -0.492168 0.870206
vn -0.201597 0.586324 0.784590
vn -0.415248 0.502927 0.758046
vn -0.256264 0.928320 0.269352
vn -0.424136 0.905590 0.003899
vn -0.374109 0.380985 0.845513
vn -0.705164 -0.328303 -0.628460
vn 0.306040 -0.133934 -0.942550
vn 0.805443 0.528628 0.267981
vn -0.444898 0.044173 0.894491
vn -0.936389 -0.283306 -0.207157
vn 0.285364 0.268323 -0.920092
vn 0.783176 0.435910 0.443416
vn -0.515504 0.817649 -0.256331
s 1
g Branch Branch
usemtl initialShadingGroup
f 27/38/1 28/39/2 7/14/3
f 28/39/2 29/40/4 7/14/3
f 29/40/4 30/41/5 7/14/3
f 30/41/5 31/42/6 7/14/3
f 31/42/6 32/43/7 7/14/3
f 32/43/7 27/37/1 7/14/3
s 2
f 2/2/8 1/1/9 8/15/10
f 3/3/11 2/2/8 8/15/10
f 4/4/12 3/3/11 8/15/10
f 5/5/13 4/4/12 8/15/10
f 6/6/14 5/5/13 8/15/10
f 1/1/9 6/6/14 8/15/10
s 1
f 1/7/15 2/8/16 10/18/17 9/17/18
f 2/8/16 3/9/19 11/19/20 10/18/17
f 3/9/19 4/10/21 12/20/22 11/19/20
f 4/10/21 5/11/23 13/21/24 12/20/22
f 5/11/23 6/12/25 14/22/26 13/21/24
f 6/12/25 1/13/15 9/16/18 14/22/26
f 9/17/18 10/18/17 16/25/27 15/24/28
f 10/18/17 11/19/20 17/26/29 16/25/27
f 11/19/20 12/20/22 18/27/30 17/26/29
f 12/20/22 13/21/24 19/28/31 18/27/30
f 13/21/24 14/22/26 20/29/32 19/28/31
f 14/22/26 9/16/18 15/23/28 20/29/32
f 33/45/33 34/46/34 40/53/35 39/52/36
f 34/46/34 35/47/37 41/54/38 40/53/35
f 35/47/37 36/48/39 42/55/40 41/54/38
f 36/48/39 37/49/41 43/56/42 42/55/40
f 37/49/41 38/50/43 44/57/44 43/56/42
f 38/50/43 33/44/33 39/51/36 44/57/44
f 21/31/45 22/32/46 55/73/47 54/72/48
f 22/32/46 23/33/49 56/74/50 55/73/47
f 23/33/49 24/34/51 57/75/52 56/74/50
f 24/34/51 25/35/53 58/76/54 57/75/52
f 25/35/53 26/36/55 59/77/56 58/76/54
f 26/36/55 21/30/45 54/71/48 59/77/56
f 15/24/28 16/25/27 34/46/34 33/45/33
f 16/25/27 17/26/29 35/47/37 34/46/34
f 17/26/29 18/27/30 36/48/39 35/47/37
f 18/27/30 19/28/31 37/49/41 36/48/39
f 19/28/31 20/29/32 38/50/43 37/49/41
f 20/29/32 15/23/28 33/44/33 38/50/43
f 39/52/36 40/53/35 22/32/46 21/31/45
f 40/53/35 41/54/38 23/33/49 22/32/46
f 41/54/38 42/55/40 24/34/51 23/33/49
f 42/55/40 43/56/42 25/35/53 24/34/51
f 43/56/42 44/57/44 26/36/55 25/35/53
f 21/58/45 26/59/55 46/63/57 47/79/58
f 39/61/36 21/80/45 47/64/58 48/65/59
f 26/59/55 44/62/44 49/66/60 46/63/57
f 44/62/44 39/61/36 48/65/59 49/66/60
f 47/79/58 46/63/57 50/67/61 51/78/62
f 48/65/59 47/64/58 51/68/62 52/69/63
f 46/63/57 49/66/60 53/70/64 50/67/61
f 49/66/60 48/65/59 52/69/63 53/70/64
f 51/78/62 50/67/61 45/60/65
f 52/69/63 51/68/62 45/60/65
f 50/67/61 53/70/64 45/60/65
f 53/70/64 52/69/63 45/60/65
f 54/72/48 55/73/47 28/39/2 27/38/1
f 55/73/47 56/74/50 29/40/4 28/39/2
f 56/74/50 57/75/52 30/41/5 29/40/4
f 57/75/52 58/76/54 31/42/6 30/41/5
f 58/76/54 59/77/56 32/43/7 31/42/6
f 59/77/56 54/71/48 27/37/1 32/43/7
