# This file uses meters as units for non-parametric coordinates.

mtllib 3D_Road_3WayIntersection.mtl
g default
v -250.000000 0.000000 250.000000
v -250.000000 0.000000 -250.000000
v -125.000000 0.000000 250.000000
v -125.000000 0.000000 -250.000000
v 125.000145 0.000000 250.000000
v 125.000145 0.000000 -250.000000
v 187.500076 0.000000 250.000000
v 187.500076 0.000000 -250.000000
v -187.500000 0.000000 250.000000
v -187.500000 0.000000 -250.000000
v 125.000145 0.000000 125.000000
v 187.500076 0.000000 125.000000
v 250.000000 0.000000 125.000000
v 125.000145 0.000000 -125.000122
v 187.500076 0.000000 -125.000122
v 250.000000 0.000000 -125.000122
v 125.000145 0.000000 187.500000
v 250.000000 0.000000 187.500000
v 125.000145 0.000000 -187.500061
v 250.000000 0.000000 -187.500061
v -187.500000 10.000000 -250.000000
v -250.000000 10.000000 -250.000000
v -250.000000 10.000000 250.000000
v -187.500000 10.000000 250.000000
v 187.500076 10.000000 -250.000000
v 250.000000 10.000000 -187.500061
v 250.000000 10.000000 -250.000000
v 250.000000 10.000000 187.500000
v 187.500076 10.000000 250.000000
v 250.000000 10.000000 250.000000
v 196.652069 0.000000 -196.652161
v 187.500076 0.000000 -218.746887
v 187.500076 0.000000 -187.500000
v 218.746933 0.000000 -187.500061
v 218.746933 10.000000 -187.500061
v 187.500076 10.000000 -218.746887
v 196.652069 10.000000 -196.652161
v 196.652069 0.000000 196.651978
v 218.746933 0.000000 187.500000
v 187.500076 0.000000 187.500000
v 187.500076 0.000000 218.746826
v 187.500076 10.000000 218.746826
v 218.746933 10.000000 187.500000
v 196.652069 10.000000 196.651978
vt 0.778511 0.882900
vt 0.111946 0.002251
vt 0.111930 0.882646
vt 0.552020 0.882774
vt 0.001894 0.002253
vt 0.001908 0.882653
vt 0.923798 0.002377
vt 0.772266 0.222398
vt 0.778511 0.002376
vt 0.906187 0.882900
vt 0.796122 0.882900
vt 0.906187 0.002377
vt 0.796122 0.002377
vt 0.552107 0.772663
vt 0.662361 0.772738
vt 0.662307 0.827885
vt 0.662181 0.883042
vt 0.552137 0.662540
vt 0.772650 0.772537
vt 0.717502 0.772674
vt 0.662265 0.662494
vt 0.772355 0.662402
vt 0.662224 0.222350
vt 0.662240 0.112199
vt 0.717349 0.112233
vt 0.772455 0.112311
vt 0.552118 0.222337
vt 0.552101 0.112251
vt 0.662212 0.057104
vt 0.552012 0.002182
vt 0.662123 0.001992
vt 0.948782 0.002590
vt 0.931196 0.065125
vt 0.931196 0.002590
vt 0.948782 0.197165
vt 0.931196 0.197165
vt 0.929311 0.397257
vt 0.947290 0.340553
vt 0.947323 0.397170
vt 0.929528 0.202842
vt 0.946695 0.202842
vt 0.948782 0.065125
vt 0.931196 0.147634
vt 0.929311 0.340522
vt 0.946761 0.256698
vt 0.290627 0.998091
vt 0.235588 0.998099
vt 0.235573 0.888033
vt 0.345638 0.888018
vt 0.345646 0.943056
vt 0.118763 0.940316
vt 0.119803 0.885879
vt 0.229872 0.887576
vt 0.227834 0.998008
vt 0.172753 0.996724
vt 0.678527 0.788900
vt 0.931196 0.108225
vt 0.329534 0.981969
vt 0.678397 0.096061
vt 0.946881 0.298083
vt 0.134053 0.979649
vt 0.923798 0.882900
vt 0.948782 0.108225
vt 0.948782 0.147634
vt 0.929365 0.298120
vt 0.929462 0.256698
vn 0.000000 1.000000 0.000000
vn 0.000000 1.000000 0.000000
vn 0.000000 1.000000 0.000000
vn 0.000000 1.000000 0.000000
vn 0.000000 1.000000 0.000000
vn 0.000000 1.000000 0.000000
vn 0.000000 1.000000 0.000000
vn 0.000000 1.000000 0.000000
vn 0.000000 1.000000 0.000000
vn 0.000000 1.000000 0.000000
vn 0.000000 1.000000 0.000000
vn 0.000000 1.000000 0.000000
vn 0.000000 1.000000 0.000000
vn 0.000000 1.000000 0.000000
vn 0.000000 1.000000 0.000000
vn 0.000000 1.000000 0.000000
vn 0.000000 1.000000 0.000000
vn 0.000000 1.000000 0.000000
vn 0.000000 1.000000 0.000000
vn 0.000000 1.000000 0.000000
vn 0.000000 1.000000 0.000000
vn 0.000000 1.000000 0.000000
vn 0.000000 1.000000 0.000000
vn 0.000000 1.000000 0.000000
vn -1.000000 0.000000 0.000000
vn -1.000000 0.000000 0.000000
vn -1.000000 0.000000 0.000000
vn -1.000000 0.000000 0.000000
vn 1.000000 0.000000 0.000000
vn 1.000000 0.000000 0.000000
vn 1.000000 0.000000 0.000000
vn 1.000000 0.000000 0.000000
vn -1.000000 0.000000 0.000000
vn -0.985602 0.000000 0.169083
vn -0.985602 0.000000 0.169083
vn -1.000000 0.000000 0.000000
vn -0.169085 0.000000 0.985602
vn -0.169085 0.000000 0.985602
vn 0.000000 0.000000 1.000000
vn 0.000000 0.000000 1.000000
vn 0.000000 0.000000 -1.000000
vn -0.169083 0.000000 -0.985602
vn -0.169083 0.000000 -0.985602
vn 0.000000 0.000000 -1.000000
vn -0.985602 0.000000 -0.169083
vn -0.985602 0.000000 -0.169083
vn -1.000000 0.000000 0.000000
vn -1.000000 0.000000 0.000000
vn 0.000000 1.000000 0.000000
vn 0.000000 1.000000 0.000000
vn -0.923879 0.000000 0.382686
vn -0.923879 0.000000 0.382686
vn -0.382687 0.000000 0.923878
vn -0.382687 0.000000 0.923878
vn -0.382683 0.000000 -0.923880
vn -0.382683 0.000000 -0.923880
vn -0.923879 0.000000 -0.382684
vn -0.923879 0.000000 -0.382684
vn 0.000000 1.000000 0.000000
vn 0.000000 1.000000 0.000000
vn 0.000000 1.000000 0.000000
vn 0.000000 1.000000 -0.000000
vn 0.000000 1.000000 -0.000000
vn 0.000000 1.000000 -0.000000
vn 0.000000 1.000000 -0.000000
vn 0.000000 1.000000 0.000000
vn 0.000000 1.000000 0.000000
vn 0.000000 1.000000 0.000000
vn 0.000000 1.000000 0.000000
vn 0.000000 1.000000 0.000000
vn 0.000000 1.000000 0.000000
vn 0.000000 1.000000 0.000000
vn 0.000000 1.000000 0.000000
vn 0.000000 1.000000 0.000000
s off
g RoadTile_3Way
usemtl initialShadingGroup
f 24/12/1 21/10/2 22/11/3 23/13/4
s 1
f 11/27/5 3/2/6 5/30/7 17/28/8
f 6/4/9 19/14/10 33/15/11 32/16/12
f 3/2/6 4/3/13 10/6/14 9/5/15
f 12/23/16 11/27/5 17/28/8 40/24/17
f 13/8/18 12/23/16 40/24/17 39/25/19
f 15/21/20 14/18/21 11/27/5 12/23/16
f 16/22/22 15/21/20 12/23/16 13/8/18
f 34/20/23 16/22/22 20/19/24
s off
f 23/13/25 22/11/26 2/1/27 1/9/28
f 24/12/29 9/7/30 10/62/31 21/10/32
s 3
f 8/32/33 32/42/34 36/33/35 25/34/36
s 4
f 35/43/37 34/64/38 20/35/39 26/36/40
s 5
f 18/37/41 39/44/42 43/38/43 28/39/44
s 6
f 42/45/45 41/66/46 7/40/47 29/41/48
s 1
f 33/15/11 19/14/10 14/18/21 15/21/20
f 41/29/49 5/30/7 7/31/50
s 3
f 32/42/34 31/63/51 37/57/52 36/33/35
s 4
f 31/63/53 34/64/38 35/43/37 37/57/54
s 5
f 39/44/42 38/65/55 44/60/56 43/38/43
s 6
f 38/65/57 41/66/46 42/45/45 44/60/58
s 7
f 36/50/59 27/48/60 25/49/61
s 8
f 42/51/62 30/53/63 43/55/64 44/61/65
s 1
f 34/20/23 31/56/66 33/15/11
f 33/15/11 31/56/66 32/16/12
f 41/29/49 38/59/67 40/24/17
f 40/24/17 38/59/67 39/25/19
s 7
f 35/46/68 26/47/69 27/48/60
f 35/46/68 27/48/60 36/50/59 37/58/70
s 8
f 43/55/64 30/53/63 28/54/71
f 42/51/62 29/52/72 30/53/63
s 1
f 33/15/11 15/21/20 16/22/22 34/20/23
f 6/4/9 32/16/12 8/17/73
f 13/8/18 39/25/19 18/26/74
f 41/29/49 40/24/17 17/28/8 5/30/7
f 14/18/21 4/3/13 3/2/6 11/27/5
f 19/14/10 6/4/9 4/3/13 14/18/21
