# This file uses meters as units for non-parametric coordinates.

mtllib 3D_ConcreteBlock.mtl
g default
v -109.232559 -43.903164 109.232559
v 109.232559 -43.903164 109.232559
v -100.248520 -15.926270 100.248520
v 100.248520 -15.926270 100.248520
v -100.248520 -15.926270 -100.248520
v 100.248520 -15.926270 -100.248520
v -109.232559 -43.903164 -109.232559
v 109.232559 -43.903164 -109.232559
vt 0.119695 0.219552
vt 0.727547 0.158823
vt 0.194891 0.241366
vt 0.705733 0.234019
vt 0.202238 0.752207
vt 0.713079 0.744861
vt 0.180424 0.827403
vt 0.737046 0.819398
vt 0.788275 0.766674
vt 0.127700 0.776174
vt 0.780271 0.210052
vt 0.170925 0.166828
vn 0.000000 0.305746 0.952113
vn 0.000000 0.305746 0.952113
vn 0.000000 0.305746 0.952113
vn 0.000000 0.305746 0.952113
vn 0.000000 1.000000 0.000000
vn 0.000000 1.000000 0.000000
vn 0.000000 1.000000 0.000000
vn 0.000000 1.000000 0.000000
vn 0.000000 0.305746 -0.952113
vn 0.000000 0.305746 -0.952113
vn 0.000000 0.305746 -0.952113
vn 0.000000 0.305746 -0.952113
vn 0.000000 -1.000000 0.000000
vn 0.000000 -1.000000 0.000000
vn 0.000000 -1.000000 0.000000
vn 0.000000 -1.000000 0.000000
vn 0.952113 0.305746 0.000000
vn 0.952113 0.305746 0.000000
vn 0.952113 0.305746 0.000000
vn 0.952113 0.305746 0.000000
vn -0.952113 0.305746 0.000000
vn -0.952113 0.305746 0.000000
vn -0.952113 0.305746 0.000000
vn -0.952113 0.305746 0.000000
s off
g Foundation
usemtl initialShadingGroup
f 1/12/1 2/2/2 4/4/3 3/3/4
f 3/3/5 4/4/6 6/6/7 5/5/8
f 5/5/9 6/6/10 8/8/11 7/7/12
f 7//13 8//14 2//15 1//16
f 2/11/17 8/9/18 6/6/19 4/4/20
f 7/10/21 1/1/22 3/3/23 5/5/24
