# This file uses meters as units for non-parametric coordinates.

mtllib 3D_Foundation_ReinforcedSteel.mtl
g default
v 108.886246 -16.552593 91.680550
v 108.886246 -16.552593 88.319450
v 108.886246 -13.191498 91.680550
v 108.886246 -13.191498 88.319450
v -85.749146 -13.191498 91.680550
v -85.749146 -13.191498 88.319450
v -85.749146 -16.552593 91.680550
v -85.749146 -16.552593 88.319450
v 108.886246 -16.552593 61.680550
v 108.886246 -16.552593 58.319450
v 108.886246 -13.191498 61.680550
v 108.886246 -13.191498 58.319450
v -85.749146 -13.191498 61.680550
v -85.749146 -13.191498 58.319450
v -85.749146 -16.552593 61.680550
v -85.749146 -16.552593 58.319450
v 108.886246 -16.552593 -88.319450
v 108.886246 -16.552593 -91.680550
v 108.886246 -13.191498 -88.319450
v 108.886246 -13.191498 -91.680550
v -85.749146 -13.191498 -88.319450
v -85.749146 -13.191498 -91.680550
v -85.749146 -16.552593 -88.319450
v -85.749146 -16.552593 -91.680550
v 108.886246 -16.552593 -58.319450
v 108.886246 -16.552593 -61.680550
v 108.886246 -13.191498 -58.319450
v 108.886246 -13.191498 -61.680550
v -85.749146 -13.191498 -58.319450
v -85.749146 -13.191498 -61.680550
v -85.749146 -16.552593 -58.319450
v -85.749146 -16.552593 -61.680550
v 108.886246 -16.552593 -28.319452
v 108.886246 -16.552593 -31.680548
v 108.886246 -13.191498 -28.319452
v 108.886246 -13.191498 -31.680548
v -85.749146 -13.191498 -28.319452
v -85.749146 -13.191498 -31.680548
v -85.749146 -16.552593 -28.319452
v -85.749146 -16.552593 -31.680548
v 108.886246 -16.552593 31.680548
v 108.886246 -16.552593 28.319452
v 108.886246 -13.191498 31.680548
v 108.886246 -13.191498 28.319452
v -85.749146 -13.191498 31.680548
v -85.749146 -13.191498 28.319452
v -85.749146 -16.552593 31.680548
v -85.749146 -16.552593 28.319452
v 108.886246 -16.552593 1.680548
v 108.886246 -16.552593 -1.680548
v 108.886246 -13.191498 1.680548
v 108.886246 -13.191498 -1.680548
v -85.749146 -13.191498 1.680548
v -85.749146 -13.191498 -1.680548
v -85.749146 -16.552593 1.680548
v -85.749146 -16.552593 -1.680548
v -91.417816 -21.613703 9.181113
v -65.071777 -21.613703 9.181113
v -91.417816 -16.573385 9.181113
v -65.071777 -16.573385 9.181113
v -91.417816 -16.573385 -9.181113
v -65.071777 -16.573385 -9.181113
v -91.417816 -21.613703 -9.181113
v -65.071777 -21.613703 -9.181113
v -91.417816 -21.613703 -20.818886
v -65.071777 -21.613703 -20.818886
v -91.417816 -16.573385 -20.818886
v -65.071777 -16.573385 -20.818886
v -91.417816 -16.573385 -39.181114
v -65.071777 -16.573385 -39.181114
v -91.417816 -21.613703 -39.181114
v -65.071777 -21.613703 -39.181114
v -91.417816 -21.613703 -50.818886
v -65.071777 -21.613703 -50.818886
v -91.417816 -16.573385 -50.818886
v -65.071777 -16.573385 -50.818886
v -91.417816 -16.573385 -69.181114
v -65.071777 -16.573385 -69.181114
v -91.417816 -21.613703 -69.181114
v -65.071777 -21.613703 -69.181114
v -91.417816 -21.613703 -80.818886
v -65.071777 -21.613703 -80.818886
v -91.417816 -16.573385 -80.818886
v -65.071777 -16.573385 -80.818886
v -91.417816 -16.573385 -99.181114
v -65.071777 -16.573385 -99.181114
v -91.417816 -21.613703 -99.181114
v -65.071777 -21.613703 -99.181114
v -91.417816 -21.613703 39.181114
v -65.071777 -21.613703 39.181114
v -91.417816 -16.573385 39.181114
v -65.071777 -16.573385 39.181114
v -91.417816 -16.573385 20.818886
v -65.071777 -16.573385 20.818886
v -91.417816 -21.613703 20.818886
v -65.071777 -21.613703 20.818886
v -91.417816 -21.613703 69.181114
v -65.071777 -21.613703 69.181114
v -91.417816 -16.573385 69.181114
v -65.071777 -16.573385 69.181114
v -91.417816 -16.573385 50.818886
v -65.071777 -16.573385 50.818886
v -91.417816 -21.613703 50.818886
v -65.071777 -21.613703 50.818886
v -91.417816 -21.613703 99.197914
v -65.071777 -21.613703 99.197914
v -91.417816 -16.573385 99.197914
v -65.071777 -16.573385 99.197914
v -91.417816 -16.573385 80.835686
v -65.071777 -16.573385 80.835686
v -91.417816 -21.613703 80.835686
v -65.071777 -21.613703 80.835686
v -26.550304 -21.135456 116.132828
v -26.550304 -2.874243 116.132828
v 116.152458 -2.874243 116.132828
v -20.141453 -2.874243 96.777359
v 116.152458 -2.874243 96.777359
v -20.469097 -2.874243 77.421890
v 116.152458 -2.874243 77.421890
v -16.108639 -2.874243 58.066425
v 116.152458 -2.874243 58.066425
v -16.441380 -2.874243 38.710957
v 116.152458 -2.874243 38.710957
v -14.806767 -2.874243 19.355484
v 116.152458 -2.874243 19.355484
v -16.017178 -2.874243 0.000013
v 116.152458 -2.874243 0.000013
v -14.927662 -2.874243 -19.355457
v 116.152458 -2.874243 -19.355457
v -16.762348 -2.874243 -38.710930
v 116.152458 -2.874243 -38.710930
v -10.292667 -2.874243 -58.066399
v 116.152458 -2.874243 -58.066399
v -14.627186 -2.874243 -77.421867
v 116.152458 -2.874243 -77.421867
v -8.750477 -2.874243 -96.777336
v 116.152458 -2.874243 -96.777336
v -10.173428 -2.874243 -116.132828
v 116.152458 -2.874243 -116.132828
v -10.173420 -21.135456 -116.132828
v -8.750477 -21.135456 -96.777359
v -14.627186 -21.135456 -77.421890
v -10.292664 -21.135456 -58.066425
v -16.762348 -21.135456 -38.710957
v -14.927662 -21.135456 -19.355484
v -16.017178 -21.135456 -0.000013
v -14.806767 -21.135456 19.355457
v -16.441380 -21.135456 38.710930
v -16.108639 -21.135456 58.066399
v -20.469097 -21.135456 77.421867
v -20.141453 -21.135456 96.777336
v -108.087860 -29.539408 108.087860
v 108.087860 -29.539408 108.087860
v -108.087860 -8.903049 108.087860
v 108.087860 -8.903049 108.087860
v -108.087860 -8.903049 -108.087860
v 108.087860 -8.903049 -108.087860
v -108.087860 -29.539408 -108.087860
v 108.087860 -29.539408 -108.087860
v 116.045341 -8.903046 116.045341
v -116.045341 -8.903046 116.045341
v -116.045341 -8.903046 -116.045341
v 116.045341 -8.903046 -116.045341
vt 0.255050 0.356116
vt 0.255050 0.366008
vt 0.255050 0.375835
vt 0.825448 0.366008
vt 0.825447 0.375835
vt 0.834557 0.366008
vt 0.834556 0.375835
vt 0.825448 0.356116
vt 0.825448 0.385655
vt 0.255050 0.385655
vt 0.255050 0.356116
vt 0.255050 0.366008
vt 0.255050 0.375835
vt 0.825448 0.366008
vt 0.825447 0.375835
vt 0.834557 0.366008
vt 0.834556 0.375835
vt 0.825448 0.356116
vt 0.825448 0.385655
vt 0.255050 0.385655
vt 0.255050 0.356116
vt 0.255050 0.366008
vt 0.255050 0.375835
vt 0.825448 0.366008
vt 0.825447 0.375835
vt 0.834557 0.366008
vt 0.834556 0.375835
vt 0.825448 0.356116
vt 0.825448 0.385655
vt 0.255050 0.385655
vt 0.255050 0.356116
vt 0.255050 0.366008
vt 0.255050 0.375835
vt 0.825448 0.366008
vt 0.825447 0.375835
vt 0.834557 0.366008
vt 0.834556 0.375835
vt 0.825448 0.356116
vt 0.825448 0.385655
vt 0.255050 0.385655
vt 0.255050 0.356116
vt 0.255050 0.366008
vt 0.255050 0.375835
vt 0.825448 0.366008
vt 0.825447 0.375835
vt 0.834557 0.366008
vt 0.834556 0.375835
vt 0.825448 0.356116
vt 0.825448 0.385655
vt 0.255050 0.385655
vt 0.255050 0.356116
vt 0.255050 0.366008
vt 0.255050 0.375835
vt 0.825448 0.366008
vt 0.825447 0.375835
vt 0.834557 0.366008
vt 0.834556 0.375835
vt 0.825448 0.356116
vt 0.825448 0.385655
vt 0.255050 0.385655
vt 0.255050 0.356116
vt 0.255050 0.366008
vt 0.255050 0.375835
vt 0.825448 0.366008
vt 0.825447 0.375835
vt 0.834557 0.366008
vt 0.834556 0.375835
vt 0.825448 0.356116
vt 0.825448 0.385655
vt 0.255050 0.385655
vt 0.094506 0.250003
vt 0.171715 0.249979
vt 0.171707 0.264756
vt 0.094506 0.264788
vt 0.171751 0.318510
vt 0.094542 0.318569
vt 0.171766 0.333297
vt 0.094555 0.333360
vt 0.186465 0.264742
vt 0.186499 0.318480
vt 0.079790 0.318562
vt 0.079740 0.264819
vt 0.094506 0.250003
vt 0.171715 0.249979
vt 0.171707 0.264756
vt 0.094506 0.264788
vt 0.171751 0.318510
vt 0.094542 0.318569
vt 0.171766 0.333297
vt 0.094555 0.333360
vt 0.186465 0.264742
vt 0.186499 0.318480
vt 0.079790 0.318562
vt 0.079740 0.264819
vt 0.094506 0.250003
vt 0.171715 0.249979
vt 0.171707 0.264756
vt 0.094506 0.264788
vt 0.171751 0.318510
vt 0.094542 0.318569
vt 0.171766 0.333297
vt 0.094555 0.333360
vt 0.186465 0.264742
vt 0.186499 0.318480
vt 0.079790 0.318562
vt 0.079740 0.264819
vt 0.094506 0.250003
vt 0.171715 0.249979
vt 0.171707 0.264756
vt 0.094506 0.264788
vt 0.171751 0.318510
vt 0.094542 0.318569
vt 0.171766 0.333297
vt 0.094555 0.333360
vt 0.186465 0.264742
vt 0.186499 0.318480
vt 0.079790 0.318562
vt 0.079740 0.264819
vt 0.094506 0.250003
vt 0.171715 0.249979
vt 0.171707 0.264756
vt 0.094506 0.264788
vt 0.171751 0.318510
vt 0.094542 0.318569
vt 0.171766 0.333297
vt 0.094555 0.333360
vt 0.186465 0.264742
vt 0.186499 0.318480
vt 0.079790 0.318562
vt 0.079740 0.264819
vt 0.094506 0.250003
vt 0.171715 0.249979
vt 0.171707 0.264756
vt 0.094506 0.264788
vt 0.171751 0.318510
vt 0.094542 0.318569
vt 0.171766 0.333297
vt 0.094555 0.333360
vt 0.186465 0.264742
vt 0.186499 0.318480
vt 0.079790 0.318562
vt 0.079740 0.264819
vt 0.094506 0.250003
vt 0.171715 0.249979
vt 0.171707 0.264756
vt 0.094506 0.264788
vt 0.171751 0.318510
vt 0.094542 0.318569
vt 0.171766 0.333297
vt 0.094555 0.333360
vt 0.186465 0.264742
vt 0.186499 0.318480
vt 0.079790 0.318562
vt 0.079740 0.264819
vt 0.934572 0.935922
vt 0.932705 0.493578
vt 0.875175 0.936245
vt 0.860693 0.513943
vt 0.816223 0.936787
vt 0.797450 0.521316
vt 0.757876 0.937272
vt 0.738981 0.540071
vt 0.700189 0.937774
vt 0.681526 0.545468
vt 0.643152 0.938218
vt 0.625071 0.554898
vt 0.586771 0.938645
vt 0.568854 0.556928
vt 0.531050 0.939038
vt 0.513543 0.564489
vt 0.475982 0.939404
vt 0.458947 0.565044
vt 0.421585 0.939679
vt 0.404695 0.585928
vt 0.367878 0.939964
vt 0.350648 0.582286
vt 0.314752 0.940166
vt 0.300580 0.603276
vt 0.262224 0.940166
vt 0.256169 0.606551
vt 0.214852 0.600186
vt 0.272062 0.556630
vt 0.336562 0.533847
vt 0.395204 0.529924
vt 0.451614 0.516508
vt 0.508160 0.511236
vt 0.564256 0.505375
vt 0.619897 0.501916
vt 0.674304 0.495668
vt 0.725571 0.489319
vt 0.772972 0.471632
vt 0.817311 0.438570
vt 0.891353 0.352727
vt 0.822592 0.126173
vt 0.189265 0.126173
vt 0.165952 0.102860
vt 0.845905 0.102860
vt 0.822591 0.126173
vt 0.189264 0.126173
vt 0.165952 0.102860
vt 0.845905 0.102860
vt 0.822592 0.126174
vt 0.189264 0.126173
vt 0.165952 0.102860
vt 0.845905 0.102860
vt 0.822591 0.126173
vt 0.189264 0.126173
vt 0.165952 0.102860
vt 0.845904 0.102860
vt 0.822591 0.186631
vt 0.189264 0.186631
vt 0.822591 0.186631
vt 0.189264 0.186631
vt 0.822592 0.186631
vt 0.189264 0.186631
vt 0.822592 0.186631
vt 0.189265 0.186631
vn 0.000000 1.000000 0.000000
vn 0.000000 1.000000 0.000000
vn 0.000000 1.000000 0.000000
vn 0.000000 1.000000 0.000000
vn -1.000000 0.000000 0.000000
vn -1.000000 0.000000 0.000000
vn -1.000000 0.000000 0.000000
vn -1.000000 0.000000 0.000000
vn 0.000000 0.000000 -1.000000
vn 0.000000 0.000000 -1.000000
vn 0.000000 0.000000 -1.000000
vn 0.000000 0.000000 -1.000000
vn 0.000000 0.000000 1.000000
vn 0.000000 0.000000 1.000000
vn 0.000000 0.000000 1.000000
vn 0.000000 0.000000 1.000000
vn 0.000000 1.000000 0.000000
vn 0.000000 1.000000 0.000000
vn 0.000000 1.000000 0.000000
vn 0.000000 1.000000 0.000000
vn -1.000000 0.000000 0.000000
vn -1.000000 0.000000 0.000000
vn -1.000000 0.000000 0.000000
vn -1.000000 0.000000 0.000000
vn 0.000000 0.000000 -1.000000
vn 0.000000 0.000000 -1.000000
vn 0.000000 0.000000 -1.000000
vn 0.000000 0.000000 -1.000000
vn 0.000000 0.000000 1.000000
vn 0.000000 0.000000 1.000000
vn 0.000000 0.000000 1.000000
vn 0.000000 0.000000 1.000000
vn 0.000000 1.000000 0.000000
vn 0.000000 1.000000 0.000000
vn 0.000000 1.000000 0.000000
vn 0.000000 1.000000 0.000000
vn -1.000000 0.000000 0.000000
vn -1.000000 0.000000 0.000000
vn -1.000000 0.000000 0.000000
vn -1.000000 0.000000 0.000000
vn 0.000000 0.000000 -1.000000
vn 0.000000 0.000000 -1.000000
vn 0.000000 0.000000 -1.000000
vn 0.000000 0.000000 -1.000000
vn 0.000000 0.000000 1.000000
vn 0.000000 0.000000 1.000000
vn 0.000000 0.000000 1.000000
vn 0.000000 0.000000 1.000000
vn 0.000000 1.000000 0.000000
vn 0.000000 1.000000 0.000000
vn 0.000000 1.000000 0.000000
vn 0.000000 1.000000 0.000000
vn -1.000000 0.000000 0.000000
vn -1.000000 0.000000 0.000000
vn -1.000000 0.000000 0.000000
vn -1.000000 0.000000 0.000000
vn 0.000000 0.000000 -1.000000
vn 0.000000 0.000000 -1.000000
vn 0.000000 0.000000 -1.000000
vn 0.000000 0.000000 -1.000000
vn 0.000000 0.000000 1.000000
vn 0.000000 0.000000 1.000000
vn 0.000000 0.000000 1.000000
vn 0.000000 0.000000 1.000000
vn 0.000000 1.000000 0.000000
vn 0.000000 1.000000 0.000000
vn 0.000000 1.000000 0.000000
vn 0.000000 1.000000 0.000000
vn -1.000000 0.000000 0.000000
vn -1.000000 0.000000 0.000000
vn -1.000000 0.000000 0.000000
vn -1.000000 0.000000 0.000000
vn 0.000000 0.000000 -1.000000
vn 0.000000 0.000000 -1.000000
vn 0.000000 0.000000 -1.000000
vn 0.000000 0.000000 -1.000000
vn 0.000000 0.000000 1.000000
vn 0.000000 0.000000 1.000000
vn 0.000000 0.000000 1.000000
vn 0.000000 0.000000 1.000000
vn 0.000000 1.000000 0.000000
vn 0.000000 1.000000 0.000000
vn 0.000000 1.000000 0.000000
vn 0.000000 1.000000 0.000000
vn -1.000000 0.000000 0.000000
vn -1.000000 0.000000 0.000000
vn -1.000000 0.000000 0.000000
vn -1.000000 0.000000 0.000000
vn 0.000000 0.000000 -1.000000
vn 0.000000 0.000000 -1.000000
vn 0.000000 0.000000 -1.000000
vn 0.000000 0.000000 -1.000000
vn 0.000000 0.000000 1.000000
vn 0.000000 0.000000 1.000000
vn 0.000000 0.000000 1.000000
vn 0.000000 0.000000 1.000000
vn 0.000000 1.000000 0.000000
vn 0.000000 1.000000 0.000000
vn 0.000000 1.000000 0.000000
vn 0.000000 1.000000 0.000000
vn -1.000000 0.000000 0.000000
vn -1.000000 0.000000 0.000000
vn -1.000000 0.000000 0.000000
vn -1.000000 0.000000 0.000000
vn 0.000000 0.000000 -1.000000
vn 0.000000 0.000000 -1.000000
vn 0.000000 0.000000 -1.000000
vn 0.000000 0.000000 -1.000000
vn 0.000000 0.000000 1.000000
vn 0.000000 0.000000 1.000000
vn 0.000000 0.000000 1.000000
vn 0.000000 0.000000 1.000000
vn 0.000000 0.000000 1.000000
vn 0.000000 0.000000 1.000000
vn 0.000000 0.000000 1.000000
vn 0.000000 0.000000 1.000000
vn 0.000000 1.000000 0.000000
vn 0.000000 1.000000 0.000000
vn 0.000000 1.000000 0.000000
vn 0.000000 1.000000 0.000000
vn 0.000000 0.000000 -1.000000
vn 0.000000 0.000000 -1.000000
vn 0.000000 0.000000 -1.000000
vn 0.000000 0.000000 -1.000000
vn 1.000000 0.000000 0.000000
vn 1.000000 0.000000 0.000000
vn 1.000000 0.000000 0.000000
vn 1.000000 0.000000 0.000000
vn -1.000000 0.000000 0.000000
vn -1.000000 0.000000 0.000000
vn -1.000000 0.000000 0.000000
vn -1.000000 0.000000 0.000000
vn 0.000000 0.000000 1.000000
vn 0.000000 0.000000 1.000000
vn 0.000000 0.000000 1.000000
vn 0.000000 0.000000 1.000000
vn 0.000000 1.000000 0.000000
vn 0.000000 1.000000 0.000000
vn 0.000000 1.000000 0.000000
vn 0.000000 1.000000 0.000000
vn 0.000000 0.000000 -1.000000
vn 0.000000 0.000000 -1.000000
vn 0.000000 0.000000 -1.000000
vn 0.000000 0.000000 -1.000000
vn 1.000000 0.000000 0.000000
vn 1.000000 0.000000 0.000000
vn 1.000000 0.000000 0.000000
vn 1.000000 0.000000 0.000000
vn -1.000000 0.000000 0.000000
vn -1.000000 0.000000 0.000000
vn -1.000000 0.000000 0.000000
vn -1.000000 0.000000 0.000000
vn 0.000000 0.000000 1.000000
vn 0.000000 0.000000 1.000000
vn 0.000000 0.000000 1.000000
vn 0.000000 0.000000 1.000000
vn 0.000000 1.000000 0.000000
vn 0.000000 1.000000 0.000000
vn 0.000000 1.000000 0.000000
vn 0.000000 1.000000 0.000000
vn 0.000000 0.000000 -1.000000
vn 0.000000 0.000000 -1.000000
vn 0.000000 0.000000 -1.000000
vn 0.000000 0.000000 -1.000000
vn 1.000000 0.000000 0.000000
vn 1.000000 0.000000 0.000000
vn 1.000000 0.000000 0.000000
vn 1.000000 0.000000 0.000000
vn -1.000000 0.000000 0.000000
vn -1.000000 0.000000 0.000000
vn -1.000000 0.000000 0.000000
vn -1.000000 0.000000 0.000000
vn 0.000000 0.000000 1.000000
vn 0.000000 0.000000 1.000000
vn 0.000000 0.000000 1.000000
vn 0.000000 0.000000 1.000000
vn 0.000000 1.000000 0.000000
vn 0.000000 1.000000 0.000000
vn 0.000000 1.000000 0.000000
vn 0.000000 1.000000 0.000000
vn 0.000000 0.000000 -1.000000
vn 0.000000 0.000000 -1.000000
vn 0.000000 0.000000 -1.000000
vn 0.000000 0.000000 -1.000000
vn 1.000000 0.000000 0.000000
vn 1.000000 0.000000 0.000000
vn 1.000000 0.000000 0.000000
vn 1.000000 0.000000 0.000000
vn -1.000000 0.000000 0.000000
vn -1.000000 0.000000 0.000000
vn -1.000000 0.000000 0.000000
vn -1.000000 0.000000 0.000000
vn 0.000000 0.000000 1.000000
vn 0.000000 0.000000 1.000000
vn 0.000000 0.000000 1.000000
vn 0.000000 0.000000 1.000000
vn 0.000000 1.000000 0.000000
vn 0.000000 1.000000 0.000000
vn 0.000000 1.000000 0.000000
vn 0.000000 1.000000 0.000000
vn 0.000000 0.000000 -1.000000
vn 0.000000 0.000000 -1.000000
vn 0.000000 0.000000 -1.000000
vn 0.000000 0.000000 -1.000000
vn 1.000000 0.000000 0.000000
vn 1.000000 0.000000 0.000000
vn 1.000000 0.000000 0.000000
vn 1.000000 0.000000 0.000000
vn -1.000000 0.000000 0.000000
vn -1.000000 0.000000 0.000000
vn -1.000000 0.000000 0.000000
vn -1.000000 0.000000 0.000000
vn 0.000000 0.000000 1.000000
vn 0.000000 0.000000 1.000000
vn 0.000000 0.000000 1.000000
vn 0.000000 0.000000 1.000000
vn 0.000000 1.000000 0.000000
vn 0.000000 1.000000 0.000000
vn 0.000000 1.000000 0.000000
vn 0.000000 1.000000 0.000000
vn 0.000000 0.000000 -1.000000
vn 0.000000 0.000000 -1.000000
vn 0.000000 0.000000 -1.000000
vn 0.000000 0.000000 -1.000000
vn 1.000000 0.000000 0.000000
vn 1.000000 0.000000 0.000000
vn 1.000000 0.000000 0.000000
vn 1.000000 0.000000 0.000000
vn -1.000000 0.000000 0.000000
vn -1.000000 0.000000 0.000000
vn -1.000000 0.000000 0.000000
vn -1.000000 0.000000 0.000000
vn 0.000000 0.000000 1.000000
vn 0.000000 0.000000 1.000000
vn 0.000000 0.000000 1.000000
vn 0.000000 0.000000 1.000000
vn 0.000000 1.000000 0.000000
vn 0.000000 1.000000 0.000000
vn 0.000000 1.000000 0.000000
vn 0.000000 1.000000 0.000000
vn 0.000000 0.000000 -1.000000
vn 0.000000 0.000000 -1.000000
vn 0.000000 0.000000 -1.000000
vn 0.000000 0.000000 -1.000000
vn 1.000000 0.000000 0.000000
vn 1.000000 0.000000 0.000000
vn 1.000000 0.000000 0.000000
vn 1.000000 0.000000 0.000000
vn -1.000000 0.000000 0.000000
vn -1.000000 0.000000 0.000000
vn -1.000000 0.000000 0.000000
vn -1.000000 0.000000 0.000000
vn 0.000000 1.000000 -0.000000
vn 0.000000 1.000000 -0.000000
vn 0.000000 1.000000 0.000000
vn 0.000000 1.000000 0.000000
vn 0.000000 1.000000 0.000000
vn 0.000000 1.000000 0.000000
vn 0.000000 1.000000 -0.000000
vn 0.000000 1.000000 -0.000000
vn 0.000000 1.000000 -0.000000
vn 0.000000 1.000000 -0.000000
vn 0.000000 1.000000 0.000000
vn 0.000000 1.000000 0.000000
vn 0.000000 1.000000 0.000000
vn 0.000000 1.000000 0.000000
vn 0.000000 1.000000 -0.000000
vn 0.000000 1.000000 -0.000000
vn 0.000000 1.000000 0.000000
vn 0.000000 1.000000 0.000000
vn 0.000000 1.000000 -0.000000
vn 0.000000 1.000000 -0.000000
vn 0.000000 1.000000 -0.000000
vn 0.000000 1.000000 -0.000000
vn 0.000000 1.000000 0.000000
vn 0.000000 1.000000 0.000000
vn 0.000000 1.000000 0.000000
vn 0.000000 1.000000 0.000000
vn -0.997309 -0.000000 0.073319
vn -0.993447 0.000000 -0.114298
vn -0.993447 0.000000 -0.114298
vn -0.997309 -0.000000 0.073319
vn -0.999207 -0.000000 -0.039807
vn -0.999207 -0.000000 -0.039807
vn -0.998482 -0.000000 -0.055073
vn -0.998482 -0.000000 -0.055073
vn -0.992908 0.000000 -0.118885
vn -0.992908 0.000000 -0.118884
vn -0.999815 -0.000000 0.019246
vn -0.999815 -0.000000 0.019246
vn -0.999995 -0.000000 0.003123
vn -0.999995 -0.000000 0.003123
vn -0.999940 0.000000 -0.010957
vn -0.999940 0.000000 -0.010958
vn -0.999435 0.000000 -0.033612
vn -0.999435 0.000000 -0.033612
vn -0.994631 0.000000 -0.103487
vn -0.994631 0.000000 -0.103487
vn -0.994617 0.000000 -0.103617
vn -0.994617 0.000000 -0.103617
vn -0.987885 0.000000 -0.155189
vn -0.987885 0.000000 -0.155190
vn -0.949314 0.000000 -0.314330
vn -0.949314 0.000000 -0.314330
vn -0.000000 1.000000 -0.000000
vn 0.000000 1.000000 -0.000000
vn 0.000000 1.000000 -0.000000
vn -0.000000 1.000000 -0.000000
vn 0.000000 1.000000 0.000000
vn -0.000000 1.000000 0.000000
vn -0.000000 1.000000 0.000000
vn 0.000000 1.000000 0.000000
vn 1.000000 0.000000 0.000000
vn 1.000000 0.000000 0.000000
vn 1.000000 0.000000 0.000000
vn 1.000000 0.000000 0.000000
vn 0.000000 0.000000 1.000000
vn 0.000000 0.000000 1.000000
vn 0.000000 0.000000 1.000000
vn 0.000000 0.000000 1.000000
vn -1.000000 0.000000 0.000000
vn -1.000000 0.000000 0.000000
vn -1.000000 0.000000 0.000000
vn -1.000000 0.000000 0.000000
vn 0.000000 0.000000 -1.000000
vn 0.000000 0.000000 -1.000000
vn 0.000000 0.000000 -1.000000
vn 0.000000 0.000000 -1.000000
s off
g Reinforced_Steel3
usemtl initialShadingGroup
f 3/3/1 4/2/2 6/4/3 5/5/4
f 5/5/5 6/4/6 8/6/7 7/7/8
f 2/1/9 8/8/10 6/4/11 4/2/12
f 7/9/13 1/10/14 3/3/15 5/5/16
f 11/13/17 12/12/18 14/14/19 13/15/20
f 13/15/21 14/14/22 16/16/23 15/17/24
f 10/11/25 16/18/26 14/14/27 12/12/28
f 15/19/29 9/20/30 11/13/31 13/15/32
f 19/23/33 20/22/34 22/24/35 21/25/36
f 21/25/37 22/24/38 24/26/39 23/27/40
f 18/21/41 24/28/42 22/24/43 20/22/44
f 23/29/45 17/30/46 19/23/47 21/25/48
f 27/33/49 28/32/50 30/34/51 29/35/52
f 29/35/53 30/34/54 32/36/55 31/37/56
f 26/31/57 32/38/58 30/34/59 28/32/60
f 31/39/61 25/40/62 27/33/63 29/35/64
f 35/43/65 36/42/66 38/44/67 37/45/68
f 37/45/69 38/44/70 40/46/71 39/47/72
f 34/41/73 40/48/74 38/44/75 36/42/76
f 39/49/77 33/50/78 35/43/79 37/45/80
f 43/53/81 44/52/82 46/54/83 45/55/84
f 45/55/85 46/54/86 48/56/87 47/57/88
f 42/51/89 48/58/90 46/54/91 44/52/92
f 47/59/93 41/60/94 43/53/95 45/55/96
f 51/63/97 52/62/98 54/64/99 53/65/100
f 53/65/101 54/64/102 56/66/103 55/67/104
f 50/61/105 56/68/106 54/64/107 52/62/108
f 55/69/109 49/70/110 51/63/111 53/65/112
f 57/71/113 58/72/114 60/73/115 59/74/116
f 59/74/117 60/73/118 62/75/119 61/76/120
f 61/76/121 62/75/122 64/77/123 63/78/124
f 58/79/125 64/80/126 62/75/127 60/73/128
f 63/81/129 57/82/130 59/74/131 61/76/132
f 65/83/133 66/84/134 68/85/135 67/86/136
f 67/86/137 68/85/138 70/87/139 69/88/140
f 69/88/141 70/87/142 72/89/143 71/90/144
f 66/91/145 72/92/146 70/87/147 68/85/148
f 71/93/149 65/94/150 67/86/151 69/88/152
f 73/95/153 74/96/154 76/97/155 75/98/156
f 75/98/157 76/97/158 78/99/159 77/100/160
f 77/100/161 78/99/162 80/101/163 79/102/164
f 74/103/165 80/104/166 78/99/167 76/97/168
f 79/105/169 73/106/170 75/98/171 77/100/172
f 81/107/173 82/108/174 84/109/175 83/110/176
f 83/110/177 84/109/178 86/111/179 85/112/180
f 85/112/181 86/111/182 88/113/183 87/114/184
f 82/115/185 88/116/186 86/111/187 84/109/188
f 87/117/189 81/118/190 83/110/191 85/112/192
f 89/119/193 90/120/194 92/121/195 91/122/196
f 91/122/197 92/121/198 94/123/199 93/124/200
f 93/124/201 94/123/202 96/125/203 95/126/204
f 90/127/205 96/128/206 94/123/207 92/121/208
f 95/129/209 89/130/210 91/122/211 93/124/212
f 97/131/213 98/132/214 100/133/215 99/134/216
f 99/134/217 100/133/218 102/135/219 101/136/220
f 101/136/221 102/135/222 104/137/223 103/138/224
f 98/139/225 104/140/226 102/135/227 100/133/228
f 103/141/229 97/142/230 99/134/231 101/136/232
f 105/143/233 106/144/234 108/145/235 107/146/236
f 107/146/237 108/145/238 110/147/239 109/148/240
f 109/148/241 110/147/242 112/149/243 111/150/244
f 106/151/245 112/152/246 110/147/247 108/145/248
f 111/153/249 105/154/250 107/146/251 109/148/252
s 1
f 114/156/253 115/155/254 117/157/255 116/158/256
f 116/158/256 117/157/255 119/159/257 118/160/258
f 118/160/258 119/159/257 121/161/259 120/162/260
f 120/162/260 121/161/259 123/163/261 122/164/262
f 122/164/262 123/163/261 125/165/263 124/166/264
f 124/166/264 125/165/263 127/167/265 126/168/266
f 126/168/266 127/167/265 129/169/267 128/170/268
f 128/170/268 129/169/267 131/171/269 130/172/270
f 130/172/270 131/171/269 133/173/271 132/174/272
f 132/174/272 133/173/271 135/175/273 134/176/274
f 134/176/274 135/175/273 137/177/275 136/178/276
f 136/178/276 137/177/275 139/179/277 138/180/278
s 2
f 140/181/279 141/182/280 136/178/281 138/180/282
f 141/182/280 142/183/283 134/176/284 136/178/281
f 142/183/283 143/184/285 132/174/286 134/176/284
f 143/184/285 144/185/287 130/172/288 132/174/286
f 144/185/287 145/186/289 128/170/290 130/172/288
f 145/186/289 146/187/291 126/168/292 128/170/290
f 146/187/291 147/188/293 124/166/294 126/168/292
f 147/188/293 148/189/295 122/164/296 124/166/294
f 148/189/295 149/190/297 120/162/298 122/164/296
f 149/190/297 150/191/299 118/160/300 120/162/298
f 150/191/299 151/192/301 116/158/302 118/160/300
f 151/192/301 113/193/303 114/156/304 116/158/302
s 3
f 155/194/305 154/195/306 161/196/307 160/197/308
f 156/198/309 157/199/310 163/200/311 162/201/312
f 157/202/310 155/203/305 160/204/308 163/205/311
f 154/206/306 156/207/309 162/208/312 161/209/307
s off
f 156/207/313 154/206/314 152/210/315 158/211/316
f 157/199/317 156/198/318 158/212/319 159/213/320
f 155/203/321 157/202/322 159/214/323 153/215/324
f 153/216/325 152/217/326 154/195/327 155/194/328
