# This file uses meters as units for non-parametric coordinates.

mtllib 3D_WelcomeSign.mtl
g default
v -62.235188 157.432007 3.168848
v 62.235188 157.432007 3.168848
v -62.235188 188.831635 3.168848
v 62.235188 188.831635 3.168848
v -62.235188 188.831635 0.217387
v 62.235188 188.831635 0.217387
v -62.235188 157.432007 0.217387
v 62.235188 157.432007 0.217387
v -62.235188 199.486633 3.168848
v 62.235188 199.486633 3.168848
v -62.235188 253.573456 3.168848
v 62.235188 253.573456 3.168848
v -62.235188 253.573456 0.217387
v 62.235188 253.573456 0.217387
v -62.235188 199.486633 0.217387
v 62.235188 199.486633 0.217387
v -61.044647 -0.372238 -2.278028
v -64.472412 -0.372238 -3.962765
v -67.900177 -0.372238 -2.278028
v -69.320007 -0.372238 1.789284
v -67.900177 -0.372238 5.856597
v -64.472412 -0.372238 7.541334
v -61.044647 -0.372238 5.856597
v -59.624847 -0.372238 1.789284
v -61.044647 257.216583 -2.278028
v -64.472412 257.216583 -3.962765
v -67.900177 257.216583 -2.278028
v -69.320007 257.216583 1.789284
v -67.900177 257.216583 5.856597
v -64.472412 257.216583 7.541334
v -61.044647 257.216583 5.856597
v -59.624847 257.216583 1.789284
v 60.210297 -0.372238 -2.278028
v 63.638062 -0.372238 -3.962765
v 67.065826 -0.372238 -2.278028
v 68.485626 -0.372238 1.789284
v 67.065826 -0.372238 5.856597
v 63.638062 -0.372238 7.541334
v 60.210297 -0.372238 5.856597
v 58.790466 -0.372238 1.789284
v 60.210297 257.216583 -2.278028
v 63.638062 257.216583 -3.962765
v 67.065826 257.216583 -2.278028
v 68.485626 257.216583 1.789284
v 67.065826 257.216583 5.856597
v 63.638062 257.216583 7.541334
v 60.210297 257.216583 5.856597
v 58.790466 257.216583 1.789284
v -57.795929 271.951874 -3.962765
v -56.559814 268.489349 -2.278028
v -56.047791 267.055145 1.789284
v -56.559814 268.489349 5.856597
v -57.795929 271.951874 7.541334
v -59.032074 275.414429 5.856597
v -59.544067 276.848663 1.789284
v -59.032074 275.414429 -2.278028
v -63.299561 266.074554 -3.962765
v -60.044495 264.847900 -2.278028
v -58.696259 264.339783 1.789284
v -60.044495 264.847900 5.856597
v -63.299561 266.074554 7.541334
v -66.554565 267.301208 5.856597
v -67.902863 267.809296 1.789284
v -66.554565 267.301208 -2.278028
v 56.961578 271.951874 -3.962765
v 58.197693 275.414429 -2.278028
v 58.709717 276.848663 1.789284
v 58.197693 275.414429 5.856597
v 56.961578 271.951874 7.541334
v 55.725464 268.489349 5.856597
v 55.213440 267.055145 1.789284
v 55.725464 268.489349 -2.278028
v 62.465179 266.074554 -3.962765
v 65.720215 267.301208 -2.278028
v 67.068512 267.809296 1.789284
v 65.720215 267.301208 5.856597
v 62.465179 266.074554 7.541334
v 59.210175 264.847900 5.856597
v 57.861908 264.339783 1.789284
v 59.210175 264.847900 -2.278028
vt 0.349894 0.089427
vt 0.692833 0.089427
vt 0.349894 0.175939
vt 0.692834 0.175939
vt 0.349894 0.184071
vt 0.692834 0.184070
vt 0.349894 0.081296
vt 0.692833 0.081296
vt 0.700965 0.089429
vt 0.700964 0.175939
vt 0.341762 0.089427
vt 0.341762 0.175939
vt 0.335608 0.419713
vt 0.678544 0.419712
vt 0.678544 0.616002
vt 0.335608 0.616002
vt 0.678544 0.624133
vt 0.335608 0.624135
vt 0.335608 0.411581
vt 0.678544 0.411580
vt 0.686677 0.419712
vt 0.686678 0.616001
vt 0.327475 0.419713
vt 0.327475 0.616002
vt 0.132807 0.712222
vt 0.122283 0.712156
vt 0.126777 0.002477
vt 0.137301 0.002544
vt 0.111759 0.712090
vt 0.116254 0.002411
vt 0.099894 0.712012
vt 0.104385 0.002336
vt 0.088022 0.711938
vt 0.092516 0.002261
vt 0.077498 0.711871
vt 0.081993 0.002194
vt 0.066974 0.711805
vt 0.071470 0.002127
vt 0.055104 0.711730
vt 0.059602 0.002051
vt 0.043235 0.711656
vt 0.047733 0.001976
vt 0.142993 0.713767
vt 0.142993 0.004064
vt 0.153516 0.004064
vt 0.153516 0.713767
vt 0.164040 0.004064
vt 0.164039 0.713767
vt 0.175909 0.004064
vt 0.175909 0.713768
vt 0.187778 0.004064
vt 0.187778 0.713767
vt 0.198301 0.004064
vt 0.198301 0.713767
vt 0.208824 0.004064
vt 0.208825 0.713767
vt 0.220694 0.004064
vt 0.220694 0.713767
vt 0.232563 0.004064
vt 0.232563 0.713768
vt 0.620757 0.255047
vt 0.619999 0.244079
vt 0.643549 0.239964
vt 0.646831 0.251278
vt 0.613340 0.330618
vt 0.615300 0.318543
vt 0.635979 0.322438
vt 0.634376 0.334465
vt 0.617111 0.305430
vt 0.639101 0.310531
vt 0.618740 0.294679
vt 0.642971 0.300052
vt 0.620189 0.285224
vt 0.646408 0.289410
vt 0.621121 0.275107
vt 0.648447 0.277188
vt 0.621319 0.264789
vt 0.649711 0.262672
vt 0.598503 0.252090
vt 0.605011 0.241922
vt 0.600882 0.328077
vt 0.604626 0.317548
vt 0.602552 0.306002
vt 0.596975 0.295866
vt 0.591973 0.285730
vt 0.590189 0.273928
vt 0.592710 0.262129
vt 0.708462 0.258772
vt 0.707472 0.268011
vt 0.681673 0.264496
vt 0.684770 0.254228
vt 0.707006 0.277943
vt 0.679750 0.276437
vt 0.707373 0.288085
vt 0.679153 0.291258
vt 0.708528 0.297758
vt 0.682737 0.302619
vt 0.710033 0.308789
vt 0.686715 0.313690
vt 0.711908 0.322499
vt 0.689921 0.326333
vt 0.714029 0.335547
vt 0.691375 0.339110
vt 0.709491 0.248514
vt 0.688171 0.244011
vt 0.883130 0.015612
vt 0.893737 0.019025
vt 0.893742 0.335200
vt 0.883134 0.338606
vt 0.871250 0.014191
vt 0.871254 0.340017
vt 0.859367 0.015602
vt 0.859371 0.338607
vt 0.848757 0.019008
vt 0.848761 0.335201
vt 0.838148 0.022414
vt 0.838151 0.331795
vt 0.826265 0.023825
vt 0.826268 0.330384
vt 0.814382 0.022414
vt 0.814385 0.331795
vt 0.904344 0.022434
vt 0.904350 0.331794
vt 0.729682 0.256226
vt 0.735068 0.265917
vt 0.737392 0.277416
vt 0.735488 0.289048
vt 0.730463 0.299060
vt 0.725003 0.309203
vt 0.723267 0.321163
vt 0.727796 0.332404
vt 0.723675 0.246493
vn 0.000000 0.000000 1.000000
vn 0.000000 0.000000 1.000000
vn 0.000000 0.000000 1.000000
vn 0.000000 0.000000 1.000000
vn 0.000000 1.000000 0.000000
vn 0.000000 1.000000 0.000000
vn 0.000000 1.000000 0.000000
vn 0.000000 1.000000 0.000000
vn 0.000000 -1.000000 0.000000
vn 0.000000 -1.000000 0.000000
vn 0.000000 -1.000000 0.000000
vn 0.000000 -1.000000 0.000000
vn 1.000000 0.000000 0.000000
vn 1.000000 0.000000 0.000000
vn 1.000000 0.000000 0.000000
vn 1.000000 0.000000 0.000000
vn -1.000000 0.000000 0.000000
vn -1.000000 0.000000 0.000000
vn -1.000000 0.000000 0.000000
vn -1.000000 0.000000 0.000000
vn 0.000000 0.000000 1.000000
vn 0.000000 0.000000 1.000000
vn 0.000000 0.000000 1.000000
vn 0.000000 0.000000 1.000000
vn 0.000000 1.000000 0.000000
vn 0.000000 1.000000 0.000000
vn 0.000000 1.000000 0.000000
vn 0.000000 1.000000 0.000000
vn 0.000000 -1.000000 0.000000
vn 0.000000 -1.000000 0.000000
vn 0.000000 -1.000000 0.000000
vn 0.000000 -1.000000 0.000000
vn 1.000000 0.000000 0.000000
vn 1.000000 0.000000 0.000000
vn 1.000000 0.000000 0.000000
vn 1.000000 0.000000 0.000000
vn -1.000000 0.000000 0.000000
vn -1.000000 0.000000 0.000000
vn -1.000000 0.000000 0.000000
vn -1.000000 0.000000 0.000000
vn 0.764667 0.000000 -0.644426
vn 0.000000 0.000000 -1.000000
vn -0.002359 0.000322 -0.999997
vn 0.763846 -0.002895 -0.645392
vn -0.764665 0.000000 -0.644429
vn -0.765594 0.003846 -0.643312
vn -1.000000 0.000000 0.000000
vn -0.999987 0.005018 0.000000
vn -0.764665 0.000000 0.644429
vn -0.765594 0.003846 0.643312
vn -0.000000 0.000000 1.000000
vn -0.002359 0.000322 0.999997
vn 0.764667 0.000000 0.644426
vn 0.763846 -0.002895 0.645392
vn 1.000000 0.000000 0.000000
vn 0.999993 -0.003735 0.000000
vn -0.764665 0.000000 -0.644429
vn -0.763844 -0.002895 -0.645394
vn 0.002359 0.000322 -0.999997
vn 0.000000 0.000000 -1.000000
vn 0.765596 0.003846 -0.643310
vn 0.764667 0.000000 -0.644426
vn 0.999987 0.005018 0.000000
vn 1.000000 0.000000 0.000000
vn 0.765596 0.003846 0.643310
vn 0.764667 0.000000 0.644426
vn 0.002359 0.000322 0.999997
vn 0.000000 0.000000 1.000000
vn -0.763844 -0.002895 0.645394
vn -0.764665 0.000000 0.644429
vn -0.999993 -0.003735 0.000000
vn -1.000000 0.000000 0.000000
vn -0.121352 0.071574 -0.990026
vn 0.645482 -0.259700 -0.718268
vn 0.932293 -0.361703 0.000000
vn 0.645482 -0.259700 0.718268
vn -0.121352 0.071574 0.990026
vn -0.727281 0.355103 0.587336
vn -0.899379 0.437170 0.000000
vn -0.727282 0.355103 -0.587336
vn -0.010720 0.104089 -0.994510
vn 0.023307 -0.717018 -0.696665
vn 0.028248 -0.999601 -0.000000
vn 0.023307 -0.717018 0.696665
vn -0.010720 0.104089 0.994510
vn -0.052279 0.795120 0.604195
vn -0.066109 0.997812 0.000000
vn -0.052279 0.795120 -0.604195
vn 0.121351 0.071574 -0.990026
vn 0.727281 0.355103 -0.587337
vn 0.899379 0.437171 0.000000
vn 0.727280 0.355103 0.587337
vn 0.121352 0.071574 0.990026
vn -0.645483 -0.259700 0.718267
vn -0.932294 -0.361703 -0.000001
vn -0.645483 -0.259700 -0.718268
vn 0.052278 0.795120 -0.604195
vn 0.010720 0.104088 -0.994510
vn 0.066110 0.997812 0.000000
vn 0.052278 0.795119 0.604195
vn 0.010721 0.104089 0.994510
vn -0.023307 -0.717018 0.696665
vn -0.028248 -0.999601 -0.000000
vn -0.023307 -0.717018 -0.696665
s off
g pCube2
usemtl initialShadingGroup
f 1/1/1 2/2/2 4/4/3 3/3/4
f 3/3/5 4/4/6 6/6/7 5/5/8
f 7/7/9 8/8/10 2/2/11 1/1/12
f 2/2/13 8/9/14 6/10/15 4/4/16
f 7/11/17 1/1/18 3/3/19 5/12/20
f 9/13/21 10/14/22 12/15/23 11/16/24
f 11/16/25 12/15/26 14/17/27 13/18/28
f 15/19/29 16/20/30 10/14/31 9/13/32
f 10/14/33 16/21/34 14/22/35 12/15/36
f 15/23/37 9/13/38 11/16/39 13/24/40
s 1
f 17/25/41 18/26/42 26/27/43 25/28/44
f 18/26/42 19/29/45 27/30/46 26/27/43
f 19/29/45 20/31/47 28/32/48 27/30/46
f 20/31/47 21/33/49 29/34/50 28/32/48
f 21/33/49 22/35/51 30/36/52 29/34/50
f 22/35/51 23/37/53 31/38/54 30/36/52
f 23/37/53 24/39/55 32/40/56 31/38/54
f 24/39/55 17/41/41 25/42/44 32/40/56
f 33/43/57 41/44/58 42/45/59 34/46/60
f 34/46/60 42/45/59 43/47/61 35/48/62
f 35/48/62 43/47/61 44/49/63 36/50/64
f 36/50/64 44/49/63 45/51/65 37/52/66
f 37/52/66 45/51/65 46/53/67 38/54/68
f 38/54/68 46/53/67 47/55/69 39/56/70
f 39/56/70 47/55/69 48/57/71 40/58/72
f 40/58/72 48/57/71 41/59/58 33/60/57
f 57/61/73 58/62/74 25/63/44 26/64/43
f 58/65/74 59/66/75 32/67/56 25/68/44
f 59/66/75 60/69/76 31/70/54 32/67/56
f 60/69/76 61/71/77 30/72/52 31/70/54
f 61/71/77 62/73/78 29/74/50 30/72/52
f 62/73/78 63/75/79 28/76/48 29/74/50
f 63/75/79 64/77/80 27/78/46 28/76/48
f 64/77/80 57/61/73 26/64/43 27/78/46
f 49/79/81 50/80/82 58/62/74 57/61/73
f 50/81/82 51/82/83 59/66/75 58/65/74
f 51/82/83 52/83/84 60/69/76 59/66/75
f 52/83/84 53/84/85 61/71/77 60/69/76
f 53/84/85 54/85/86 62/73/78 61/71/77
f 54/85/86 55/86/87 63/75/79 62/73/78
f 55/86/87 56/87/88 64/77/80 63/75/79
f 56/87/88 49/79/81 57/61/73 64/77/80
f 73/88/89 74/89/90 43/90/61 42/91/59
f 74/89/90 75/92/91 44/93/63 43/90/61
f 75/92/91 76/94/92 45/95/65 44/93/63
f 76/94/92 77/96/93 46/97/67 45/95/65
f 77/96/93 78/98/94 47/99/69 46/97/67
f 78/98/94 79/100/95 48/101/71 47/99/69
f 79/100/95 80/102/96 41/103/58 48/101/71
f 80/104/96 73/88/89 42/91/59 41/105/58
f 66/106/97 65/107/98 49/108/81 56/109/88
f 67/110/99 66/106/97 56/109/88 55/111/87
f 68/112/100 67/110/99 55/111/87 54/113/86
f 69/114/101 68/112/100 54/113/86 53/115/85
f 70/116/102 69/114/101 53/115/85 52/117/84
f 71/118/103 70/116/102 52/117/84 51/119/83
f 72/120/104 71/118/103 51/119/83 50/121/82
f 65/107/98 72/122/104 50/123/82 49/108/81
f 65/124/98 66/125/97 74/89/90 73/88/89
f 66/125/97 67/126/99 75/92/91 74/89/90
f 67/126/99 68/127/100 76/94/92 75/92/91
f 68/127/100 69/128/101 77/96/93 76/94/92
f 69/128/101 70/129/102 78/98/94 77/96/93
f 70/129/102 71/130/103 79/100/95 78/98/94
f 71/130/103 72/131/104 80/102/96 79/100/95
f 72/132/104 65/124/98 73/88/89 80/104/96
