# This file uses meters as units for non-parametric coordinates.

mtllib 3D_River_Curve.mtl
g default
v -250.000000 0.000000 250.000000
v 250.000000 0.000000 250.000000
v -250.000000 0.000000 -250.000000
v 250.000000 0.000000 -250.000000
v -250.000000 0.000000 150.000000
v 250.000000 0.000000 150.000000
v -250.000000 0.000000 -150.000000
v 250.000000 0.000000 -150.000000
v -150.000000 0.000000 250.000000
v -150.000000 0.000000 -150.000000
v -150.000000 0.000000 -250.000000
v 150.000000 0.000000 250.000000
v 150.000000 0.000000 150.000000
v 44.756260 0.000000 -53.692875
v 150.000000 0.000000 -250.000000
v -250.000000 -112.556091 150.000000
v -150.000000 -112.556091 -150.000000
v -250.000000 -112.556091 -150.000000
v -150.000000 -112.556091 250.000000
v 150.000000 -112.556091 250.000000
v 150.000000 -112.556091 150.000000
v 44.756260 -112.556091 -53.692875
v -199.994995 0.000000 150.000000
v -150.000000 0.000000 199.994995
v -199.994995 -112.556091 150.000000
v -150.000000 -112.556091 199.994995
vt 0.677648 0.757019
vt 0.591086 0.708276
vt 0.611582 0.668613
vt 0.699452 0.717852
vt 0.531243 0.729596
vt 0.565407 0.825825
vt 0.505964 0.528744
vt 0.481713 0.663455
vt 0.396624 0.608687
vt 0.405175 0.519162
vt 0.370185 0.836813
vt 0.285047 0.782061
vt 0.524457 0.895419
vt 0.614391 0.895419
vt 0.614391 0.985354
vt 0.524457 0.985354
vt 0.789544 0.808806
vt 0.884195 0.985354
vt 0.974129 0.895419
vt 0.974129 0.985354
vt 0.884195 0.625616
vt 0.974129 0.625616
vt 0.884195 0.535681
vt 0.974129 0.535681
vt 0.530103 0.628957
vt 0.490571 0.710511
vt 0.083295 0.578782
vt 0.102450 0.851626
vt 0.012886 0.843057
vt 0.038533 0.574534
vt 0.132342 0.538273
vt 0.136614 0.493494
vt 0.489487 0.821641
vt 0.448570 0.803021
vt 0.092853 0.952503
vt 0.003380 0.943832
vt 0.321081 0.876683
vt 0.497423 0.618273
vt 0.138578 0.946194
vt 0.625692 0.804243
vn 0.000000 1.000000 0.000000
vn 0.000000 1.000000 0.000000
vn 0.000000 1.000000 0.000000
vn 0.000000 1.000000 0.000000
vn 0.000000 1.000000 0.000000
vn 0.000000 1.000000 0.000000
vn 0.000000 1.000000 0.000000
vn 0.000000 1.000000 -0.000000
vn 0.000000 1.000000 -0.000000
vn 0.000000 1.000000 -0.000000
vn 0.000000 1.000000 -0.000000
vn 0.000000 1.000000 0.000000
vn 0.000000 1.000000 0.000000
vn 0.000000 1.000000 0.000000
vn 0.000000 1.000000 0.000000
vn 0.000000 1.000000 0.000000
vn 0.000000 1.000000 0.000000
vn 0.000000 1.000000 0.000000
vn 0.000000 1.000000 0.000000
vn 0.000000 0.000000 -1.000000
vn 0.447178 0.000000 -0.894445
vn 0.447178 0.000000 -0.894445
vn 0.000000 0.000000 -1.000000
vn -0.310577 0.000000 0.950548
vn 0.000000 0.000000 1.000000
vn 0.000000 0.000000 1.000000
vn -0.310577 0.000000 0.950548
vn 0.894445 0.000000 -0.447178
vn 0.894445 0.000000 -0.447178
vn 1.000000 0.000000 0.000000
vn 1.000000 0.000000 0.000000
vn -1.000000 0.000000 0.000000
vn -0.944871 0.000000 0.327442
vn -0.944871 0.000000 0.327442
vn -1.000000 0.000000 0.000000
vn -0.707107 0.000000 0.707107
vn -0.707107 0.000000 0.707107
vn 0.000000 1.000000 0.000000
vn 0.000000 1.000000 0.000000
vn 0.000000 1.000000 0.000000
vn 0.000000 1.000000 0.000000
vn 0.000000 1.000000 0.000000
vn 0.000000 1.000000 0.000000
vn 0.000000 1.000000 0.000000
s 1
g polySurface2
usemtl initialShadingGroup
f 7/13/1 10/14/2 11/15/3 3/16/4
s 2
f 23/5/5 9/3/6 24/2/7
s 3
f 25/27/8 17/28/9 18/29/10 16/30/11
s 1
f 11/15/3 10/14/2 14/17/12 15/18/13
f 13/21/14 12/23/15 2/24/16 6/22/17
f 14/17/12 13/21/14 6/22/17 8/19/18
f 15/18/13 14/17/12 8/19/18 4/20/19
s 5
f 5/26/20 23/5/21 25/33/22 16/34/23
s 6
f 10/35/24 7/36/25 18/29/26 17/28/27
s 5
f 26/1/28 24/2/29 9/3/30 19/4/31
s 6
f 12/7/32 13/38/33 21/9/34 20/10/35
f 13/8/33 14/11/36 22/12/37 21/9/34
f 14/37/36 10/39/24 17/28/27 22/12/37
s 5
f 23/5/21 24/2/29 26/40/28 25/6/22
s 2
f 1/25/38 9/3/6 23/5/5 5/26/39
s 3
f 26/31/40 19/32/41 20/10/42 21/9/43
f 26/31/40 21/9/43 22/12/44 25/27/8
f 25/27/8 22/12/44 17/28/9
