# This file uses meters as units for non-parametric coordinates.

mtllib 3D_River_Straight.mtl
g default
v -250.000000 0.000000 250.000000
v 250.000000 0.000000 250.000000
v -250.000000 0.000000 -250.000000
v 250.000000 0.000000 -250.000000
v -250.000000 0.000000 150.000000
v 250.000000 0.000000 150.000000
v -250.000000 0.000000 -150.000000
v 250.000000 0.000000 -150.000000
v -250.000000 -112.556015 150.000000
v 250.000000 -112.556015 150.000000
v 250.000000 -112.556015 -150.000000
v -250.000000 -112.556015 -150.000000
vt 0.572552 0.455547
vt 0.572552 0.005875
vt 0.662487 0.005875
vt 0.662487 0.455547
vt 0.010361 0.455548
vt 0.010361 0.005875
vt 0.100295 0.005875
vt 0.100295 0.455548
vt 0.201522 0.455547
vt 0.201522 0.005875
vt 0.471326 0.005875
vt 0.471326 0.455547
vn 0.000000 1.000000 0.000000
vn 0.000000 1.000000 0.000000
vn 0.000000 1.000000 0.000000
vn 0.000000 1.000000 0.000000
vn 0.000000 1.000000 0.000000
vn 0.000000 1.000000 0.000000
vn 0.000000 1.000000 0.000000
vn 0.000000 1.000000 0.000000
vn 0.000000 1.000000 0.000000
vn 0.000000 1.000000 0.000000
vn 0.000000 1.000000 0.000000
vn 0.000000 1.000000 0.000000
vn 0.000000 0.000000 -1.000000
vn 0.000000 0.000000 -1.000000
vn 0.000000 0.000000 -1.000000
vn 0.000000 0.000000 -1.000000
vn 0.000000 0.000000 1.000000
vn 0.000000 0.000000 1.000000
vn 0.000000 0.000000 1.000000
vn 0.000000 0.000000 1.000000
s off
g polySurface1
usemtl initialShadingGroup
f 7/1/1 8/2/2 4/3/3 3/4/4
f 1/5/5 2/6/6 6/7/7 5/8/8
f 9/9/9 10/10/10 11/11/11 12/12/12
f 5/8/13 6/7/14 10/10/15 9/9/16
f 8/2/17 7/1/18 12/12/19 11/11/20
