# This file uses meters as units for non-parametric coordinates.

mtllib 3D_Puddles.mtl
g default
v -50.000000 0.000000 50.000000
v 50.000000 0.000000 50.000000
v -50.000000 0.000000 -50.000000
v 50.000000 0.000000 -50.000000
vt 0.018341 0.072341
vt 0.443659 0.072341
vt 0.018341 0.497659
vt 0.443659 0.497659
vn 0.000000 1.000000 0.000000
vn 0.000000 1.000000 0.000000
vn 0.000000 1.000000 0.000000
vn 0.000000 1.000000 0.000000
s off
g Puddle_3
usemtl lambert3SG
f 1/1/1 2/2/2 4/4/3 3/3/4
g default
v -50.000000 0.000000 50.000000
v 50.000000 0.000000 50.000000
v -50.000000 0.000000 -50.000000
v 50.000000 0.000000 -50.000000
vt 0.513258 0.051258
vt 0.998742 0.051258
vt 0.513258 0.536742
vt 0.998742 0.536742
vn 0.000000 1.000000 0.000000
vn 0.000000 1.000000 0.000000
vn 0.000000 1.000000 0.000000
vn 0.000000 1.000000 0.000000
s off
g Puddle_4
usemtl lambert3SG
f 5/5/5 6/6/6 8/8/7 7/7/8
g default
v -50.000000 0.000000 50.000000
v 50.000000 0.000000 50.000000
v -50.000000 0.000000 -50.000008
v 50.000000 0.000000 -50.000008
vt 0.496863 0.483863
vt 0.995137 0.483863
vt 0.496863 0.982137
vt 0.995137 0.982137
vn 0.000000 1.000000 0.000000
vn 0.000000 1.000000 0.000000
vn 0.000000 1.000000 0.000000
vn 0.000000 1.000000 0.000000
s off
g Puddle_2
usemtl lambert3SG
f 9/9/9 10/10/10 12/12/11 11/11/12
g default
v -50.000000 0.000000 50.000000
v 50.000000 0.000000 50.000000
v -50.000000 0.000000 -50.000000
v 50.000000 0.000000 -50.000000
vt 0.034965 0.532965
vt 0.425035 0.532965
vt 0.034965 0.923035
vt 0.425035 0.923035
vn 0.000000 1.000000 0.000000
vn 0.000000 1.000000 0.000000
vn 0.000000 1.000000 0.000000
vn 0.000000 1.000000 0.000000
s off
g Puddle_1
usemtl lambert3SG
f 13/13/13 14/14/14 16/16/15 15/15/16
